<svg width="75" height="76" viewBox="0 0 75 76" fill="none" xmlns="http://www.w3.org/2000/svg">
<g filter="url(#filter0_i_1_2305)">
<circle cx="37.0586" cy="37.0255" r="35.5" fill="white"/>
</g>
<path d="M70.0606 56.572C69.321 58.3552 67.0501 61.3013 65.6258 62.7405C65.6003 62.7675 65.5748 62.7945 65.5492 62.8215C65.2172 63.1692 64.9041 63.4986 64.5297 63.8771C63.626 64.7605 62.4281 66.0267 59.4665 68.0238C58.6293 68.6367 57.7664 69.2131 56.8784 69.752C50.9455 73.3681 43.9649 75.2225 37.0586 75.095C32.8162 75.0285 28.6023 74.2409 24.6441 72.7714C24.5115 72.7266 24.377 72.6804 24.2414 72.6329C21.6061 71.7396 18.5055 70.1669 16.7405 68.9095C14.484 67.3298 13.1219 66.0472 12.0415 64.9737C5.64935 59.0231 1.46877 50.8636 0.343296 42.3017C0.108004 40.5496 -0.00525093 38.7932 -0.000201941 37.0255C0.00269127 36.0804 0.038825 35.1508 0.109434 34.2098C0.295613 31.7296 0.724383 29.2651 1.39242 26.8658C1.73967 25.4589 2.14468 24.1319 2.57992 22.9226C3.19148 21.2217 3.86355 19.7505 4.50241 18.5798C6.0241 15.7437 8.3545 12.8954 10.2931 11.0225C10.6078 10.7137 10.9103 10.4277 11.1933 10.1671C12.7131 8.65906 14.3632 7.27742 16.1218 6.04492C16.2513 5.98053 16.3823 5.91714 16.516 5.85361C18.1884 5.07541 20.0875 3.88838 23.3504 2.56362C24.7742 1.99577 26.4579 1.41961 28.4964 0.955261C29.8137 0.660293 30.5114 0.652308 31.0807 0.640799C31.2479 0.638362 31.4063 0.636831 31.5627 0.632113C32.1008 0.615893 32.6505 0.474696 33.3119 0.326304C34.1599 0.136268 35.2075 -0.0715108 36.5913 0.023967C36.7502 0.0350564 36.9059 0.0463986 37.0586 0.0579097C41.1223 0.407216 42.9371 0.59946 44.3714 0.672864C44.8045 0.703887 45.2007 0.739986 45.5977 0.804962C46.8874 1.00854 48.658 1.62715 49.9218 2.23214C50.934 2.69609 53.0027 3.47588 54.5456 4.17776C55.1301 4.4377 55.8867 4.8586 56.7507 5.39645C57.6454 5.95288 58.6543 6.63565 59.7213 7.38861C62.4084 9.31131 63.6583 10.579 64.6661 11.5731C64.9508 11.8607 65.2113 12.133 65.4684 12.4087C66.282 13.2788 67.2308 14.417 68.1111 15.6327C69.1691 17.0835 70.121 18.6478 70.8011 19.862C72.3865 23.1059 73.4831 26.5777 74.0617 30.117C74.3631 31.9412 74.3143 33.7251 74.0154 35.0267C73.7158 36.3212 73.2234 37.0269 72.7322 37.0255C72.2357 37.0247 71.7727 36.3306 71.3465 35.1688C70.92 33.9948 70.5446 32.4505 70.2021 30.8333C69.5196 27.5808 68.3506 24.443 66.7655 21.5448C64.8359 18.0128 62.2927 14.8361 59.3051 12.1621C57.2158 10.291 54.8976 8.67333 52.417 7.36266C52.1617 7.2277 51.9044 7.09573 51.6452 6.96706C49.4723 6.03726 47.2146 5.38826 45.617 5.00994C44.2981 4.69421 43.3396 4.4464 42.5091 4.2513C41.9348 4.11812 41.4304 4.01494 40.906 3.95977C40.6242 3.93029 40.2414 3.8973 39.7787 3.86892C39.0401 3.8234 38.1079 3.79172 37.0586 3.80187C35.4156 3.81405 33.5242 3.94589 31.7425 4.16191C30.4459 4.31447 28.9429 4.53931 27.5163 4.86071C25.4773 5.30978 23.6187 5.966 22.7438 6.42542C21.2029 7.22095 19.4489 8.15281 17.9685 9.10817C16.5537 10.0131 15.3886 10.9238 14.8144 11.5362C14.1302 12.2687 13.4836 12.816 12.5646 13.6889C11.9308 14.2968 11.165 15.0636 10.2457 16.2096C9.18921 17.5362 8.48102 18.5093 7.89641 19.3534C7.08457 20.5436 6.50751 21.4833 5.9396 23.0019C5.31164 24.6904 4.77464 26.4806 4.34559 27.8858C4.14718 28.5289 3.96692 29.2705 3.80818 30.0555C3.59811 31.0888 3.43082 32.1875 3.27325 33.1924C3.14302 34.0211 2.9989 34.7022 2.88332 35.3171C2.84749 35.5069 2.81476 35.6899 2.78662 35.8678C2.77458 36.2521 2.76905 36.6381 2.77022 37.0255C2.77109 37.3148 2.77569 37.6032 2.78402 37.8906C2.80215 37.9991 2.82257 38.1129 2.84432 38.2313C2.95356 38.8219 3.1016 39.5562 3.24452 40.4452C3.47421 41.8635 3.62421 43.1022 3.8536 44.4107C4.03386 45.4267 4.26469 46.4824 4.66408 47.6502C4.93617 48.446 5.30461 49.3329 5.70733 50.189C6.30416 51.4663 6.98346 52.6727 7.42291 53.5298C7.58712 53.8515 7.69071 54.1499 7.79699 54.4452C7.79736 54.4465 7.79775 54.4479 7.79813 54.4492C7.80535 54.4693 7.81272 54.4893 7.81999 54.5093C9.06999 56.5061 10.5301 58.3668 12.1625 60.0522C12.312 60.1909 12.4639 60.3299 12.6155 60.4662C13.3553 61.1332 14.1067 61.7403 14.6403 62.0807C15.2155 62.4526 16.5451 63.5123 18.0504 64.4678C19.0328 65.0979 20.0844 65.6875 20.9717 66.108C21.4901 66.3546 21.9405 66.6592 22.4165 66.964C22.86 67.2476 23.3226 67.5295 23.8705 67.7487C24.1453 67.8585 24.4477 67.9563 24.7733 68.0558C25.0597 68.1432 25.3642 68.232 25.6797 68.3299C25.9716 68.4204 26.6034 68.683 27.4306 68.9767C27.9398 69.1579 28.531 69.3524 29.1519 69.5281C30.8279 69.8944 32.5228 70.1305 34.229 70.2392C34.5881 70.2148 34.9015 70.1645 35.1505 70.0878C35.3297 70.0328 35.4806 69.9623 35.6349 69.8893C35.845 69.7899 36.0607 69.6858 36.3545 69.603C36.5841 69.5384 36.853 69.513 37.0342 69.5419C37.0425 69.5433 37.0507 69.5447 37.0586 69.5463C37.1314 69.5604 37.1894 69.5829 37.2426 69.6033C37.3102 69.6293 37.3707 69.6522 37.4442 69.6507C37.4972 69.6495 37.5521 69.6301 37.6194 69.6064C37.7269 69.5685 37.866 69.5194 38.0784 69.5113C38.8648 69.4816 39.7702 69.437 40.6458 69.3551C41.6238 69.2652 42.5735 69.1278 43.3192 68.9676C44.1555 68.7907 45.3582 68.5832 46.5499 68.2919C47.3828 68.0903 48.2065 67.8522 48.9025 67.603C49.5827 67.3602 50.2614 67.0289 50.9033 66.6872C51.6753 66.2771 52.3955 65.8516 53.0469 65.555C53.1787 65.495 53.3713 65.472 53.6137 65.4392C53.7854 65.4159 53.9831 65.3873 54.1998 65.3379C54.9858 64.8609 55.7523 64.3546 56.4992 63.8187C56.5194 63.7915 56.5402 63.7634 56.561 63.7352C56.5612 63.7347 56.5615 63.7342 56.5618 63.7336C57.0313 63.0919 57.6329 62.2272 58.8296 61.4225C59.1342 61.2166 59.3648 61.127 59.5731 61.0449C59.7774 60.964 59.9605 60.8898 60.1637 60.713C60.3943 60.5122 60.6146 60.2218 60.8473 59.902C61.1747 59.4525 61.5243 58.9458 61.9855 58.5321C62.017 58.5039 62.051 58.4735 62.0861 58.4416C62.4196 58.1393 62.9041 57.6833 63.4401 57.2586C64.6742 55.7254 65.781 54.0843 66.7398 52.3556C68.3393 49.4743 69.5247 46.3453 70.2244 43.0962C70.5687 41.513 70.9438 39.9986 71.3668 38.8468C71.7896 37.7075 72.2451 37.0261 72.7322 37.0255C73.2141 37.0241 73.6976 37.7164 73.9988 38.9842C74.2991 40.2598 74.3608 42.0072 74.0866 43.7983C73.6449 46.7112 72.8548 49.5837 71.7273 52.3293C71.6737 52.4757 71.6185 52.6222 71.5622 52.7674C71.1434 53.8462 70.7718 54.8662 70.3558 55.8772C70.2603 56.1093 70.1622 56.341 70.0606 56.572Z" fill="black"/>
<defs>
<filter id="filter0_i_1_2305" x="0" y="-3" width="77.2646" height="78.1011" filterUnits="userSpaceOnUse" color-interpolation-filters="sRGB">
<feFlood flood-opacity="0" result="BackgroundImageFix"/>
<feBlend mode="normal" in="SourceGraphic" in2="BackgroundImageFix" result="shape"/>
<feColorMatrix in="SourceAlpha" type="matrix" values="0 0 0 0 0 0 0 0 0 0 0 0 0 0 0 0 0 0 127 0" result="hardAlpha"/>
<feOffset dx="6" dy="-17"/>
<feGaussianBlur stdDeviation="1.5"/>
<feComposite in2="hardAlpha" operator="arithmetic" k2="-1" k3="1"/>
<feColorMatrix type="matrix" values="0 0 0 0 0 0 0 0 0 0 0 0 0 0 0 0 0 0 0.25 0"/>
<feBlend mode="normal" in2="shape" result="effect1_innerShadow_1_2305"/>
</filter>
</defs>
</svg>
