<svg width="215" height="279" viewBox="0 0 215 279" fill="none" xmlns="http://www.w3.org/2000/svg">
<path d="M212.911 78.0362V8.53622L112.911 171.799L121.411 267.536L212.911 78.0362Z" fill="white"/>
<path d="M117.877 261.101C118.072 263.315 118.268 265.548 118.465 267.798L119.371 278.469L124.075 268.822C133.286 249.804 143.16 229.502 152.137 210.661C153.357 208.101 153.091 208.188 153.413 207.46C154.293 205.469 155.076 204.393 155.75 202.958C159.026 195.981 162.13 189.474 165.348 182.632C168.665 175.584 166.499 178.629 167.538 176.126C169.568 171.234 168.348 175.64 169.417 173.848C172.008 168.368 174.588 162.822 177.147 157.315C176.434 158.617 175.722 159.919 175.007 161.238C176.143 158.848 177.676 155.382 175.557 159.28C175.93 158.372 176.265 157.519 176.652 156.587C177.039 156.468 179.099 152.259 179.444 151.95C179.788 151.641 178.606 153.996 178.627 153.988C178.901 153.926 183.33 144.063 183.647 143.351C184.484 141.467 183.366 142.934 184.15 141.365C185.497 138.668 185.3 140.803 186.176 136.694C187.174 135.373 187.084 135.172 187.957 133.311C188.073 133.066 188.15 133.337 188.206 133.232C189.685 130.491 188.331 132.493 188.321 132.47C188.154 132.076 189.735 129.131 190.013 128.484C193.506 120.368 196.085 114.43 200.055 106.004C200.913 104.182 203.697 98.7164 204.495 96.938C205.282 95.184 204.626 96.012 204.963 95.0579C206.165 93.8481 206.889 92.4899 208.133 89.0711C209.084 88.0341 208.714 88.0478 209.91 85.7582C210.904 83.8523 212.971 80.6916 213.626 78.3814C212.481 80.8397 212.423 80.5002 210.988 83.1968C210.51 84.0946 205.895 93.6333 205.864 92.7428C205.848 92.2784 207.554 89.2021 207.577 89.0626C207.712 88.2499 206.602 89.8909 205.937 91.499C206.167 91.1295 206.437 90.6804 206.681 90.2816C205.246 93.9221 205.409 91.0204 204.997 94.1151C204.945 94.4974 205.119 94.4236 204.971 95.0232C204.869 95.1123 205.074 94.3896 204.776 94.9531C204.472 95.528 204.158 96.7465 203.891 96.8215C203.498 96.9373 204.776 94.5652 204.848 94.3751C204.851 94.3739 204.853 94.3728 204.856 94.3716C205.49 92.6888 203.847 96.0492 203.743 96.1975C203.07 97.1573 203.282 96.3836 202.387 97.8792C201.876 98.7326 200.826 101.027 200.396 101.853C199.967 102.673 200.463 101.315 200.165 101.862C199.867 102.409 199.628 103.154 199.278 103.797C199.128 104.072 198.991 103.988 198.92 104.122C198.159 105.557 198.921 104.743 198.263 106.059C197.836 106.912 196.165 109.66 197.041 107.633C196.551 108.574 196.08 109.495 195.599 110.434C195.845 109.814 196.115 109.181 196.347 108.572C195.552 110.393 194.915 111.083 194.356 112.195C193.796 113.307 193.607 114.455 192.867 115.618C191.289 118.102 194.578 111.653 194.914 110.818C195.044 110.492 194.228 111.591 194.131 111.774C193.703 112.588 193.395 113.648 193.079 114.283C191.948 116.556 191.053 117.85 189.957 120.007C186.225 127.353 181.66 136.497 178.219 143.502C176.937 146.111 176.423 147.804 175.849 148.976C174.505 151.716 174.128 151.949 172.96 154.341C171.219 157.9 168.979 163.017 167.582 166.014C166.614 168.089 165.505 169.856 165.241 170.389C161.569 177.806 157.196 186.874 154.211 193.049C152.808 195.952 152.375 197.444 152.078 198.041C150.805 200.605 150.939 199.817 149.95 201.917C149.415 203.051 149.505 203.355 149.439 203.51C148.86 204.871 148.482 205.015 147.973 206.049C145.043 211.997 142.429 217.827 139.599 223.75C139.393 224.18 139.522 224.195 139.383 224.47C138.779 225.65 138.873 225.011 138.258 226.252C136.979 228.832 135.722 231.509 134.417 234.268C134.288 234.542 134.371 234.733 134.07 235.356C133.769 235.979 133.406 236.387 132.94 237.37C131.724 239.939 130.666 242.542 129.367 245.256C129.151 245.705 128.712 246.178 128.389 246.851C127.376 248.965 126.022 252.164 125.155 253.975C123.08 258.305 121.062 262.363 119.075 266.408L123.996 267.307C123.856 265.601 123.713 263.899 123.562 262.188C123.432 260.727 123.142 259.448 123.07 258.689C122.909 256.976 123.189 258.254 123.036 256.518C121.781 242.339 120.442 228.112 119.182 213.765C118.686 208.131 118.249 201.258 117.718 195.817C117.497 193.554 117.231 193.164 117.087 191.563C116.831 188.707 117.079 188.163 116.841 185.147C116.65 182.741 116.112 180.011 115.908 177.508C115.719 175.187 115.862 174.004 115.708 171.551L115.305 173.265C115.41 173.104 115.518 172.935 115.63 172.757C116.895 170.745 118.517 167.848 119.886 165.653C132.433 145.538 144.726 125.693 156.994 105.236C161.323 98.0174 166.235 90.076 170.538 82.5119C170.942 81.8014 170.054 82.7226 171.471 80.5194C172.233 79.3359 173.463 77.7849 175.172 75.0175C185.332 58.5627 195.672 40.706 206.029 23.9903C208.961 19.2587 211.968 14.5282 214.991 9.81011L210.472 8.53622C209.986 32.5793 209.133 56.581 211.467 77.3397C211.609 78.5952 212.301 77.9144 212.498 77.1622C212.358 76.4641 212.191 75.8187 212.032 75.0882C212.897 74.1683 212.672 74.3306 212.594 70.9209C212.546 68.8217 212.916 70.4985 213.021 69.3795C213.157 67.929 213.585 61.1184 213.011 62.4282C213.111 62.006 213.206 61.6164 213.303 61.2051C213.39 56.2744 213.534 51.484 213.698 46.6616C213.727 45.8285 213.907 45.7901 213.935 44.9297C214.014 42.6188 213.895 40.784 213.914 38.4027C213.923 37.1091 214.131 36.9296 214.118 35.2355C214.105 33.5424 213.824 33.5795 214.129 31.2695C214.481 32.7742 214.226 26.0622 214.247 23.6752C214.25 23.3288 214.566 20.4876 214.53 18.9775C214.494 17.4622 214.292 15.1618 214.407 12.8185C214.461 11.7198 214.707 11.0531 214.721 9.86778C214.726 9.45969 214.676 9.01141 214.623 8.53622L214.647 2.47251L211.452 7.64232C211.24 8.09379 211.017 8.57208 210.74 9.03384C210.196 9.93821 208.851 11.791 208.63 12.1461C207.831 13.4274 208.832 12.0874 208.3 12.972C205.726 17.241 202.771 22.223 200.116 26.3597C199.79 26.8683 200.072 26.0607 200.025 26.126C197.692 29.5075 199.037 27.764 198.597 28.7933C198.171 29.7902 193.997 36.4406 193.698 36.3253C193.909 36.7371 192.74 38.0679 192.493 38.4485C191.534 39.9294 192.006 39.8128 191.022 41.2159C190.662 41.7309 191.103 40.5684 190.757 41.147C189.9 42.5773 189.433 44.0503 188.306 45.962C188.033 46.4237 187.802 46.4859 187.309 47.3011C186.815 48.1174 184.9 51.632 185.566 49.8768C184.538 52.0902 184.152 52.4264 182.686 54.835C182.315 55.4454 182.062 56.3687 181.197 57.622C180.905 58.0457 180.694 57.8988 180.288 58.5577C179.359 60.0639 178.714 61.6243 177.55 63.545C175.374 67.1372 172.879 70.8523 170.649 74.6209C170.043 75.6453 170.418 75.5267 169.518 77.0053C169.386 77.2222 168.106 78.8833 167.5 79.9143C167.134 80.5348 165.32 83.7974 164.938 84.4455C164.305 85.5169 163.976 85.576 163.662 86.1825C162.753 87.9361 163.892 86.7801 162.225 88.5392C162.055 89.3493 161.308 90.5161 161.369 91.0738C160.627 91.5651 160.389 92.6455 159.464 93.9134C158.54 95.1815 157.249 95.895 157.719 96.6271C157.256 97.2005 155.492 99.7703 155.208 100.212C154.371 101.514 154.988 100.921 154.353 101.902C154.241 102.075 154.227 101.814 153.551 102.946C153.107 103.69 149.8 109.106 149.62 109.439C147.559 113.247 150.975 107.507 151.6 106.794C151.651 106.631 151.7 106.47 151.756 106.298C152.694 104.632 152.412 105.734 152.026 106.514C151.64 107.293 150.667 108.595 150.385 109.266C150.245 109.6 150.703 109.621 151.228 108.67C150.727 109.725 151.667 108.441 151.526 108.893C151.371 109.39 148.68 113.858 148.477 113.766C148.979 112.931 149.619 111.902 150.126 111.057C150.471 109.758 147.308 112.409 145.881 115.743C144.845 118.161 147.344 114.659 143.855 119.744C144.337 118.929 144.725 118.227 145.16 117.485C144.962 117.256 144.504 118.612 144.049 119.178C143.831 119.449 144.77 117.525 143.745 119.068C143.266 120.64 142.273 121.467 140.875 123.74C141.325 123.146 141.775 122.551 142.225 121.957C140.125 125.958 145.679 117.079 141.242 124.643C141.805 123.75 142.35 122.853 142.921 121.959C142.781 122.477 143.59 122.007 143.429 122.449C143.009 123.606 141.95 125.051 141.199 126.317C140.871 126.871 141.182 126.593 141.154 126.64C140.705 127.399 140.656 127.141 140.243 127.795C139.722 128.619 138.398 131.107 138.144 131.485C137.485 132.466 138.215 130.609 138.134 130.693C137.598 131.246 136.914 132.629 136.769 132.446C138.829 129.372 144.229 120.185 138.884 128.215C139.97 125.763 139.152 126.162 137.123 129.401C135.445 132.079 136.677 130.442 136.001 131.958C135.913 132.154 133.79 135.818 133.547 135.923C133.935 135.961 133.48 137.299 134.272 136.699C134.388 136.612 135.277 135.119 135.209 135.788C135.175 136.123 134.993 137.031 135.225 137.009C134.928 137.246 134.608 137.488 134.304 137.727C132.912 139.927 132.838 140.316 132.3 141.656C132.248 141.548 132.574 140.205 131.64 141.975C131.593 142.067 131.677 142.221 131.211 143.126C130.269 144.954 130.085 145.344 131.288 144.234C128.852 147.724 128.799 148.764 126.399 152.403C126.362 151.364 127.283 150.133 129.461 146.789C129.435 146.57 129.362 146.43 129.338 146.206C126.829 150.895 128.172 148.641 126.365 151.061C125.922 151.654 123.934 155.039 124.289 153.72C124.373 153.409 125.656 151.335 125.387 151.498C125.336 151.53 123.728 154.022 123.623 154.264C122.3 157.3 125.633 152.468 120.773 160.083C120.639 160.293 120.451 160.28 120.177 160.683C119.662 161.44 119.821 161.551 119.357 162.224C118.892 162.898 118.078 163.727 117.642 164.901C116.842 167.045 119.824 162.658 120.859 160.524C121.602 160.135 116.812 168.174 114.141 172.552L114.348 171.671C114.5 173.355 114.601 174.582 114.612 174.841C114.786 179.021 114.341 173.019 114.117 171.692L113.943 172.431C113.999 172.321 114.033 172.244 114.039 172.209C114.066 172.035 113.298 171.659 114.773 170.31C115.209 169.911 114.152 172.049 114.97 170.888C115.787 169.725 115.28 170.074 115.319 169.977C115.452 169.645 116.319 168.407 116.391 168.222C117.502 165.374 116.663 165.183 115.607 169.214C114.467 170.553 116.18 166.926 114.894 168.671C113.98 169.912 113.372 171.055 112.993 171.849L113.006 171.791C113.126 172.403 113.233 172.805 113.252 172.941C113.808 176.862 112.84 172.37 113.448 177.166C113.786 179.836 113.467 173.123 113.974 179.245C114.397 184.369 113.955 181.621 113.541 182.032C113.444 182.13 113.565 184.947 113.272 181.122C113.379 181.004 113.514 180.786 113.6 180.534C113.432 179.604 112.71 178.093 112.646 177.598C112.333 175.175 112.646 175.266 112.163 173.863C112.643 174.853 112.26 173.207 112.287 172.574C112.301 172.233 112.321 172.005 112.343 171.849L112.328 171.656L112.425 171.501C113.071 170.841 112.274 172.208 114.325 168.22C114.125 168.898 113.956 169.518 113.767 170.176C114.1 169.644 114.434 169.112 114.767 168.58C114.912 167.571 116.697 164.754 114.773 167.117C116.572 163.96 117.413 162.754 118.097 162.24C118.227 162.142 118.532 161.689 118.872 161.146C118.884 161.295 119.036 161.57 119.117 161.501C119.84 160.885 120.139 159.424 119.723 159.73C119.95 159.343 120.126 159.034 120.187 158.925C120.577 158.232 119.613 159.468 119.898 158.888C119.993 158.697 121.194 156.808 121.156 156.733C120.907 156.264 119.264 159.578 122.901 153.131C123.35 153.196 121.477 156.078 122.315 155.557C123.215 154.998 123.681 153.017 124.398 152.962C124.398 152.778 124.367 152.677 124.344 152.505C126.124 150.085 125.73 149.798 126.117 148.962C126.865 147.339 131.155 140.395 127.686 146.864C128.282 145.973 128.87 145.05 129.458 144.16C128.843 143.497 128.8 144.232 131.369 139.783C131.935 138.803 131.8 138.289 132.768 137.581C132.308 137.476 134.286 134.764 134.403 134.469C135.148 132.578 130.847 138.663 131.021 139.887C130.104 140.797 130.452 141.006 129.675 142.172C128.551 143.858 128.337 144.056 127.337 146.262C125.742 148.059 132.015 138.269 127.857 143.986C125.573 147.126 117.999 159.046 110.793 170.502L110.371 171.175L110.437 172.019C111.288 183.099 112.152 193.78 112.496 198.084C113.879 215.377 114.586 224.47 115.989 239.99C116.127 241.52 117.113 253.082 117.386 250.637C117.425 250.286 117.168 245.298 117.928 249.528C117.626 248.681 117.702 251.201 117.697 251.413C117.588 256.286 117.208 253.505 117.877 261.101ZM127.059 252.623C122.832 261.634 125.717 254.908 124.155 256.45C124.709 255.298 125.26 254.151 125.814 253C125.71 253.323 125.607 253.641 125.503 253.963C125.502 253.964 125.502 253.966 125.501 253.967C126.02 253.52 126.54 253.07 127.059 252.623ZM197.363 105.887C197.107 106.195 196.853 106.498 196.584 106.836C196.04 108.033 195.497 109.225 194.952 110.423C195.079 110.31 195.205 110.202 195.333 110.09C196.007 108.688 196.678 107.29 197.363 105.887ZM121.677 159.393C122.42 157.665 122.742 158.059 123.847 155.835C123.991 156.279 124.111 156.748 124.244 157.203C123.216 158.781 122.878 159.076 121.883 160.865C121.91 160.602 121.94 160.335 121.963 160.076C122.162 159.799 122.375 159.504 122.566 159.234C122.568 158.62 120.82 161.382 121.673 159.398C121.674 159.397 121.676 159.395 121.677 159.393ZM131.764 143.198C132.247 142.32 134.171 138.847 134.579 138.462C135.963 137.158 129.847 146.536 134.534 139.734C134.573 139.802 134.652 139.806 134.711 139.842C133.946 141.138 133.18 142.428 132.405 143.731C132.213 143.517 131.952 143.421 131.764 143.198ZM121.056 247.375C120.881 245.845 120.466 238.517 120.992 240.871C121.146 241.564 120.986 244.866 121.116 246.105C121.2 246.906 121.366 245.984 121.416 247.577C121.302 247.517 121.177 247.484 121.056 247.37C121.056 247.372 121.056 247.373 121.056 247.375ZM119.876 250.377C119.78 248.788 119.693 247.176 119.598 245.576C119.982 246.716 120.005 249.023 120.412 249.123C120.403 248.684 120.395 248.249 120.386 247.81C120.27 247.484 120.154 247.162 120.039 246.841C120.132 245.453 120.312 246.273 120.024 243.728C120.758 245.217 121.104 245.475 120.887 249.896C121.138 249.042 122.263 249.725 121.724 252.212C121.624 252.677 121.362 250.795 121.338 250.775C121.035 250.509 120.951 251.574 120.661 251.285C120.53 251.155 120.429 250.001 120.25 249.844C120.162 249.771 120.031 250.889 119.876 250.377ZM121.563 253.411C121.688 252.905 122.235 254.546 122.284 256.009C122.36 258.29 121.663 254.744 121.563 253.411ZM197.367 105.879C197.366 105.882 197.365 105.884 197.363 105.887C197.364 105.886 197.365 105.885 197.366 105.884C197.366 105.882 197.367 105.881 197.367 105.879ZM129.233 147.703C129.972 146.772 130.866 145.272 130.993 145.501C131.255 144.988 131.52 144.471 131.782 143.958C131.837 143.998 131.89 144.044 131.945 144.084C131.08 145.578 130.217 147.068 129.353 148.563C129.309 148.283 129.257 148.016 129.233 147.703ZM138.921 131.581C140.035 129.718 139.349 131.432 139.726 131.104C140.102 130.776 141.008 129.064 141.073 129.37C140.413 130.464 139.724 131.604 139.055 132.711C139.033 132.298 138.955 131.971 138.923 131.577C138.923 131.578 138.922 131.58 138.921 131.581ZM144.502 215.937C143.922 217.291 144.397 216.853 142.883 219.35C142.884 219.348 142.885 219.346 142.886 219.344C143.914 216.77 145.307 213.488 146.803 210.821C146.216 212.611 145.415 213.805 144.502 215.937ZM119.583 164.148C119.099 164.58 120.477 162.03 120.959 161.576C121.74 160.842 120.321 163.489 119.583 164.148ZM171.851 163.116C173.345 161.351 172.083 165.453 169.899 169.333C169.71 169.668 170.792 167.005 170.321 167.722C170.274 167.794 169.601 169.218 169.36 169.534C169.118 169.85 169.127 169.4 168.779 169.941C168.168 170.891 167.296 173.282 166.769 173.959C166.699 174.048 167.157 172.525 167.192 172.432C167.757 170.914 168.727 169.657 168.837 169.433C169.405 168.283 169.09 168.346 169.177 168.027C169.341 167.427 169.911 166.507 169.937 166.435C170.581 164.584 168.705 168.618 168.36 169.119C167.432 170.467 167.875 169.018 166.061 172.451C165.889 172.777 163.984 176.756 166.143 171.625C160.859 181.195 168.222 166.539 169.115 164.992C169.526 164.28 169.206 165.505 169.521 165.104C170.242 164.19 171.124 162.465 171.368 162.775C171.876 163.435 170.33 165.514 169.68 167.148C169.906 167.052 170.078 167.058 170.369 166.819C169.949 167.199 171.741 163.243 171.85 163.116C171.85 163.116 171.85 163.116 171.851 163.116ZM159.07 187.63C158.206 189.935 157.858 189.575 157.124 191.714C155.882 193.314 157.607 189.808 157.783 189.388C158.591 187.471 158.157 187.314 159.209 185.461C159.135 186.237 159.124 186.892 159.07 187.63ZM168.168 168.341C167.241 169.714 168.521 167.073 168.531 166.946C168.66 165.57 164.924 173.523 168.168 168.341ZM119.269 237.944C119.18 237.116 119.453 237.622 119.455 236.885C119.458 236.146 119.041 233.657 119.188 233.707C119.335 233.759 120.11 238.319 119.78 233.702C119.873 233.851 119.928 233.794 120.007 233.863C120.121 235.129 120.238 236.408 120.353 237.674C120.062 236.999 119.758 236.308 119.478 235.659C119.359 236.387 119.628 236.766 119.632 236.804C119.631 236.804 119.631 236.804 119.631 236.804C119.73 238.131 119.47 239.805 119.269 237.944ZM135.954 234.661C136.575 234.685 135.148 236.177 134.733 236.873C134.319 237.568 134.028 238.658 133.988 238.176C134.402 236.928 135.884 234.658 135.954 234.662C135.954 234.662 135.954 234.662 135.954 234.661ZM153.277 199.624C152.259 201.415 152.267 201.056 151.326 203.394C151.244 203.246 151.16 203.098 151.08 202.951C151.946 201.151 152.245 201.452 153.105 199.301C153.246 198.948 152.605 199.54 153.441 198.045C153.378 198.567 153.33 199.103 153.277 199.624ZM148.388 208.574C149.433 206.458 151.251 205.258 148.908 208.953C148.561 209.501 147.602 210.165 148.388 208.574ZM121.166 259.629C120.779 255.634 121.362 260.16 121.625 261.186C120.935 251.865 121.672 262.241 122.322 263.119C122.261 264.271 122.08 266.433 121.771 264.077C121.643 263.094 121.844 263.439 121.838 263.38C121.635 261.567 121.378 261.811 121.166 259.629ZM160.947 183.805C160.874 183.938 160.803 183.64 160.559 184.058C160.315 184.475 159.962 185.517 159.808 185.563C159.654 185.608 160.523 183.596 160.894 183.029C161.264 182.463 161.609 182.604 160.947 183.805ZM154.676 197.884C153.679 199.63 154.466 196.368 154.659 195.976C156.359 192.542 154.424 197.888 154.676 197.884ZM122.706 266.58C122.406 267.098 122.159 267.499 121.956 267.799L120.993 269.774L120.808 267.59C120.888 266.118 121.181 266.468 121.522 267.526L121.311 267.488C121.498 266.677 121.865 265.513 122.232 264.428C122.475 264.101 122.722 263.764 122.962 263.441C121.754 264.878 119.956 267.548 123.403 261.339C121.813 264.881 123.338 262.009 123.373 261.998C124.325 261.983 121.469 266.988 122.708 266.576C122.707 266.577 122.706 266.578 122.706 266.58ZM163.601 177.843C164.519 175.948 167.032 171.081 166.255 173.543C165.37 174.978 164.486 176.408 163.601 177.843ZM113.834 190.109C113.47 188.413 113.334 186.832 113.16 184.718C113.636 186.593 113.561 185.34 113.579 184.691C113.606 183.708 113.806 186.066 113.827 186.071C114.116 186.002 114.027 184.495 114.324 187.918C114.351 187.063 114.379 186.219 114.405 185.364C114.65 187.971 114.895 188.568 115.275 190.203C114.564 188.646 115.107 190.73 114.995 192.675C114.938 193.645 114.019 190.971 113.833 190.102C113.834 190.104 113.834 190.107 113.834 190.109ZM120.234 264.05C120.292 263.545 120.39 263.079 120.465 262.589C120.43 262.065 120.393 261.54 120.358 261.016C120.261 260.959 120.162 260.914 120.068 260.846C119.98 260.159 120.13 260.417 120.124 260.211C120.124 260.211 120.123 260.211 120.123 260.211C120.029 257.259 119.904 256.058 119.419 253.782C119.697 253.757 119.974 253.732 120.252 253.708C120.271 254.227 120.292 254.752 120.312 255.271C120.187 255.56 120.063 255.849 119.938 256.137C120.073 256.728 120.208 257.314 120.343 257.905C120.332 258.389 120.327 258.97 120.311 259.39C121.299 261.709 120.29 256.329 120.608 256.251C120.812 256.201 121.288 261.668 121.215 262.468C121.204 262.583 120.522 261.453 121 263.426C121.076 263.734 122.335 263.733 121.515 265.979C121.398 266.299 120.526 265.295 120.234 264.05ZM118.069 244.239C119.141 247.241 117.288 235.974 118.381 240.81C118.624 239.381 118.643 239.64 119.094 241.018C119.134 241.139 119.148 240.158 119.169 240.24C119.465 241.539 119.511 243.133 119.839 243.114C119.853 243.472 119.867 243.808 119.881 244.165C119.441 242.71 119.444 245.085 119.264 246.019C119.184 246.444 119.063 245.494 118.99 245.852C118.964 245.985 119.158 247.31 119.055 247.374C118.821 247.509 118.417 246.702 118.111 245.3C118.111 245.3 118.11 245.3 118.11 245.3C118.095 244.943 118.083 244.596 118.069 244.239ZM140.405 229.584C140.234 228.919 141.034 226.968 139.081 230.515C139.089 230.297 139.101 230.074 139.109 229.855C139.412 229.245 139.707 228.653 140.014 228.033C142.095 226.729 142.416 222.672 142.194 225.263C142.17 225.546 141.365 226.953 142.306 225.634C142.305 225.636 142.304 225.638 142.304 225.64C141.259 227.611 140.995 227.796 140.405 229.584ZM133.638 242.888C130.561 247.112 136.258 236.263 135.592 238.213C135.532 238.388 133.057 243.052 133.638 242.888ZM152.31 206.086C151.322 208.169 150.802 208.087 150.74 207.799C150.677 207.51 151.537 206.153 151.601 205.955C151.807 205.309 151.132 206.564 151.395 205.723C151.482 205.445 153.066 201.751 153.166 201.595C153.718 200.727 153.443 202.253 153.613 202.01C154.168 201.22 154.536 199.962 154.855 199.809C155.538 199.478 154.044 201.434 153.86 201.798C153.305 202.894 153.591 202.913 153.239 203.765C152.887 204.616 152.544 205.117 152.208 205.856C152.096 206.102 152.359 205.98 152.31 206.086ZM148.038 212.487C149.428 210.485 147.252 215.944 146.87 216.532C145.741 218.259 147.373 213.446 148.038 212.487ZM119.958 251.825C119.878 254.043 119.201 248.953 119.182 247.482C119.321 247.743 119.986 251.062 119.958 251.825ZM123.288 265.37C122.33 267.156 122.937 264.468 123.68 262.951C124.479 262.238 124.001 263.041 123.536 264.043C123.072 265.043 124.035 263.977 123.288 265.37ZM162.772 183.371C162.588 183.767 159.223 189.959 160.855 186.256C160.98 185.973 163.176 181.562 163.395 181.253C163.836 180.632 163.245 182.35 162.772 183.371ZM128.054 256.89C127.269 257.701 126.815 258.652 126.869 257.585C126.87 257.583 126.87 257.582 126.871 257.581C125.577 259.967 126.291 260.445 126.021 260.964C125.074 262.777 125.371 260.769 124.635 261.838C126.1 259.234 125.36 259.826 126.323 257.773C126.539 257.312 127.644 255.585 127.91 255.383C128.176 255.181 128.134 256.315 128.054 256.89ZM167.175 174.456C166.264 176.654 164.802 178.363 166.153 175.356C166.811 173.889 167.732 173.113 167.175 174.456ZM131.831 139.221C131.77 139.609 131.703 140.005 131.626 140.415C132.115 139.687 132.605 138.958 133.095 138.23C132.692 138.796 132.29 139.363 131.885 139.934C132.7 138.504 132.859 137.719 131.833 139.217C131.833 139.218 131.832 139.22 131.831 139.221ZM162.33 89.2079C162.591 88.5045 163.731 87.502 163.665 87.6772C163.164 88.9946 161.968 90.184 162.33 89.2079ZM118.313 248.705C118.009 245.985 118.902 247.795 119.1 249.461C118.87 248.451 118.486 250.249 118.313 248.705ZM151.6 106.794C151.526 107.036 151.45 107.28 151.359 107.547C151.737 106.764 151.766 106.605 151.6 106.794ZM162.866 184.659C162.734 185.06 161.433 187.862 161.189 188.208C160.681 188.924 161.366 186.58 162.094 185.356C162.175 185.221 162.996 184.26 162.863 184.665C162.864 184.663 162.865 184.661 162.866 184.659ZM133.527 135.918C133.53 135.926 133.537 135.927 133.547 135.923C133.54 135.922 133.534 135.918 133.527 135.918ZM193.682 36.2876C193.683 36.3078 193.688 36.3213 193.698 36.3253C193.692 36.3142 193.69 36.2972 193.682 36.2876ZM153.948 204.552C154.127 205.78 152.763 207.754 153.268 205.918C153.297 205.816 153.841 204.777 153.948 204.552Z" fill="black"/>
<path d="M120.411 273.036L112.911 169.536H44.4111L4.41113 273.036H120.411Z" fill="white"/>
<path d="M14.9122 237.677C10.6382 248.705 6.03037 260.482 1.61687 271.956L-0.000244141 275.969L4.41113 276.032C8.94236 276.025 13.4257 276.008 17.8023 275.975C19.7974 275.961 19.6611 275.759 20.2208 275.733C21.7509 275.659 22.6722 275.897 23.7875 275.879C29.2094 275.795 34.2813 275.761 39.6003 275.685C45.0796 275.607 42.4877 274.98 44.3915 274.828C48.1113 274.529 44.9473 275.346 46.4094 275.529C50.6738 275.48 54.976 275.391 59.2479 275.302C58.205 275.226 57.1619 275.151 56.1076 275.08C57.9695 275.063 60.6344 274.937 57.5163 274.724C58.2055 274.665 58.8489 274.596 59.5571 274.539C59.7512 274.836 63.0478 274.86 63.3492 275.037C63.65 275.213 61.7966 275.173 61.808 275.188C61.9309 275.408 69.5339 275.107 70.0822 275.083C71.5317 275.018 70.2608 274.649 71.494 274.673C73.6148 274.713 72.2019 275.464 75.0729 274.466C76.215 274.79 76.3147 274.622 77.7609 274.599C77.9513 274.597 77.8036 274.784 77.8873 274.789C80.0764 274.928 78.3937 274.58 78.4051 274.561C78.6039 274.24 80.953 274.382 81.448 274.352C87.6579 273.968 92.2081 273.708 98.7609 273.619C100.177 273.601 104.492 273.731 105.862 273.676C107.214 273.622 106.489 273.391 107.196 273.28C108.331 273.836 109.413 273.898 111.959 273.531C112.907 273.937 112.785 273.61 114.601 273.691C116.113 273.758 118.747 274.245 120.411 273.83C118.503 273.868 118.701 273.668 116.553 273.548C115.839 273.508 108.384 273.5 108.939 273.085C109.228 272.869 111.699 273.067 111.794 273.027C112.35 272.795 110.971 272.509 109.749 272.609C110.054 272.656 110.421 272.704 110.748 272.751C108.003 273.041 109.891 271.926 107.804 272.901C107.546 273.02 107.646 273.145 107.221 273.272C107.133 273.219 107.654 273.089 107.206 273.066C106.749 273.042 105.881 273.29 105.751 273.081C105.558 272.778 107.451 272.897 107.594 272.88C107.596 272.882 107.597 272.883 107.599 272.885C108.858 272.724 106.227 272.706 106.101 272.677C105.288 272.488 105.843 272.343 104.621 272.187C103.924 272.098 102.149 272.15 101.495 272.122C100.844 272.092 101.856 271.949 101.418 271.918C100.981 271.887 100.435 271.996 99.9214 271.961C99.7013 271.945 99.7126 271.785 99.6061 271.779C98.4641 271.718 99.2132 272.05 98.1776 272.03C97.5066 272.017 95.2548 271.706 96.8069 271.614C96.0608 271.582 95.3333 271.558 94.591 271.533C95.0592 271.486 95.543 271.453 95.9998 271.397C94.6029 271.473 93.971 271.2 93.0955 271.179C92.2198 271.159 91.4347 271.488 90.4715 271.327C88.4153 270.986 93.5066 271.144 94.1387 271.083C94.3851 271.059 93.4392 270.802 93.2935 270.795C92.6464 270.762 91.881 270.946 91.3822 270.938C89.5965 270.907 88.503 270.664 86.8011 270.615C81.0059 270.449 73.8169 270.314 68.3262 270.261C66.2815 270.241 65.0512 270.514 64.1335 270.506C61.9866 270.488 61.7236 270.25 59.851 270.237C57.0638 270.218 53.1373 270.426 50.8108 270.47C49.2002 270.501 47.7421 270.271 47.3232 270.265C41.5013 270.183 34.4189 270.188 29.5945 270.185C27.3256 270.184 26.248 270.442 25.7796 270.435C23.7655 270.403 24.3055 270.181 22.6727 270.204C21.7907 270.216 21.6257 270.428 21.5077 270.436C20.4682 270.506 20.2612 270.229 19.4502 270.22C14.7862 270.167 10.2934 270.349 5.67509 270.376C5.34001 270.378 5.36975 270.501 5.15271 270.494C4.66176 270.478 4.54966 270.417 4.41113 270.361L6.90677 274.001C6.9989 273.903 7.09514 273.784 7.26749 273.356C8.02579 271.478 8.7458 269.526 9.49711 267.514C9.57155 267.315 9.4587 267.169 9.63407 266.715C9.80975 266.26 10.0826 265.969 10.3506 265.253C11.051 263.38 11.5951 261.476 12.3491 259.497C12.4741 259.17 12.808 258.834 12.9955 258.343C13.584 256.803 14.3028 254.464 14.8062 253.144C16.468 248.79 18.1189 244.818 19.7028 240.724C20.0746 239.761 20.2397 238.845 20.4293 238.343C20.857 237.211 20.6833 238.123 21.1259 236.98C24.7397 227.64 28.2929 218.237 31.9578 208.791C33.3967 205.081 35.3034 200.625 36.6453 197.021C37.2028 195.522 37.0926 195.169 37.4983 194.113C38.223 192.23 38.6302 191.996 39.4247 190.021C40.0585 188.446 40.4851 186.524 41.139 184.883C41.7929 183.241 42.3537 182.584 43.1173 180.704C43.746 179.154 44.4662 176.931 45.1418 175.241C45.7686 173.673 46.3938 172.107 47.0173 170.543L44.4111 172.33C59.3594 172.488 74.1518 172.562 89.2333 172.361C95.1542 172.282 101.723 172.323 107.842 172.042C108.417 172.015 107.538 171.739 109.38 171.797C110.196 171.823 111.277 171.989 112.911 172.053L110.401 169.718C110.412 170.068 110.43 170.444 110.457 170.846C111.371 184.421 112.928 198.858 113.827 212.662C115.173 233.34 114.763 254.901 118.936 272.652C119.141 273.523 119.797 272.995 119.955 272.453C119.779 271.973 119.58 271.532 119.384 271.031C120.201 270.323 119.984 270.453 119.733 268.067C119.578 266.597 120.033 267.747 120.081 266.954C120.142 265.927 120.223 261.117 119.717 262.078C119.795 261.774 119.87 261.494 119.946 261.198C119.782 257.732 119.682 254.361 119.601 250.965C119.587 250.379 119.764 250.339 119.749 249.733C119.71 248.106 119.499 246.827 119.396 245.155C119.34 244.247 119.538 244.106 119.439 242.918C119.339 241.731 119.061 241.777 119.248 240.134C119.676 241.165 119.08 236.474 118.98 234.797C118.965 234.554 119.136 232.538 119.023 231.481C118.91 230.42 118.592 228.821 118.587 227.168C118.585 226.393 118.797 225.908 118.75 225.075C118.718 224.489 118.449 223.803 118.386 223.063C118.323 222.323 118.386 220.709 118.368 220.415C118.303 219.355 118.234 220.535 118.174 219.811C117.886 216.316 117.509 212.258 117.362 208.802C117.344 208.377 117.568 208.951 117.569 208.894C117.583 206 117.459 207.553 117.24 206.788C117.029 206.046 116.715 200.531 117.027 200.468C116.621 200.327 116.833 199.081 116.821 198.762C116.776 197.521 116.453 197.788 116.472 196.581C116.478 196.138 116.77 196.978 116.729 196.506C116.628 195.337 116.182 194.312 116.032 192.757C115.996 192.382 116.151 192.248 116.097 191.58C116.043 190.911 115.638 188.121 116.08 189.39C115.678 187.709 115.806 187.355 115.655 185.377C115.616 184.876 115.304 184.25 115.309 183.178C115.311 182.815 115.568 182.807 115.53 182.264C115.446 181.022 115.096 179.871 114.971 178.296C114.745 175.444 114.699 172.4 114.435 169.426L114.355 168.03L112.911 168.009C112.813 168.01 112.715 168.012 112.617 168.014C111.779 168.033 111.988 168.291 110.771 168.296C110.592 168.296 109.125 168.073 108.284 168.093C107.777 168.106 105.153 168.263 104.624 168.275C103.749 168.296 103.593 168.046 103.113 168.095C101.727 168.236 102.839 168.603 101.172 168.1C100.623 168.379 99.6488 168.351 99.3365 168.694C98.7692 168.318 98.0336 168.679 96.9333 168.553C95.8329 168.427 94.9306 167.7 94.6641 168.483C94.1501 168.388 91.9601 168.225 91.5908 168.213C90.5023 168.18 91.0843 168.396 90.2628 168.367C90.1181 168.362 90.2696 168.214 89.3414 168.229C88.7322 168.238 84.2685 168.248 84.0019 168.268C80.9608 168.5 85.6591 168.415 86.3168 168.575C86.4329 168.533 86.5477 168.491 86.6717 168.449C88.0155 168.379 87.2504 168.714 86.6412 168.791C86.032 168.869 84.8936 168.72 84.3872 168.83C84.1349 168.885 84.2913 169.286 85.0543 169.238C84.2378 169.361 85.3528 169.492 85.0299 169.608C84.6749 169.735 81.006 169.775 80.9865 169.554C81.6718 169.546 82.5247 169.554 83.2176 169.544C84.1238 169.16 81.3712 167.848 78.8467 168.372C77.0156 168.751 80.0344 169.053 75.7018 168.735C76.3681 168.719 76.9316 168.683 77.537 168.667C77.6015 168.379 76.6194 168.696 76.113 168.604C75.8698 168.56 77.3689 168.355 76.0674 168.288C74.948 168.7 74.0867 168.285 72.2097 168.28C72.7314 168.354 73.2537 168.427 73.7753 168.5C70.6036 168.799 77.9705 168.898 71.8031 169.065C72.5453 169.078 73.2837 169.075 74.0296 169.095C73.6681 169.246 74.2467 169.69 73.923 169.784C73.0741 170.03 71.8181 169.882 70.7827 169.903C70.3296 169.912 70.6106 170.032 70.5725 170.033C69.952 170.046 70.089 169.871 69.5446 169.859C68.8594 169.845 66.8804 170.016 66.5596 169.997C65.7295 169.947 67.1116 169.6 67.0317 169.574C66.5025 169.407 65.4215 169.546 65.4783 169.326C68.0792 169.477 75.5749 169.283 68.7937 168.92C70.6633 168.565 70.1234 168.076 67.4353 168.037C65.2116 168.005 66.6465 168.201 65.4889 168.417C65.3393 168.444 62.361 168.547 62.2085 168.395C62.3279 168.745 61.3586 169.056 62.009 169.418C62.1042 169.472 63.3264 169.451 62.8999 169.742C62.6867 169.888 62.0748 170.206 62.1735 170.393C61.9222 170.263 61.6594 170.117 61.4044 169.982C59.5729 169.945 59.3127 170.084 58.3113 170.326C58.357 170.225 59.2823 169.801 57.8772 169.93C57.8051 169.938 57.7428 170.09 57.0289 170.165C55.586 170.316 55.2849 170.363 56.3924 170.81C53.4041 170.555 52.7604 171.053 49.6959 170.907C50.3052 170.333 51.3825 170.475 54.1886 170.586C54.3105 170.449 54.3676 170.314 54.4932 170.177C50.7583 170.486 52.6039 170.454 50.4879 170.177C49.97 170.109 47.2089 170.182 48.1303 169.796C48.3478 169.705 50.0632 169.715 49.8665 169.572C49.8285 169.545 47.7431 169.475 47.5592 169.512C45.4458 169.931 48.7275 170.233 44.4111 170.153L44.9866 169.759C44.8369 170.125 44.6612 170.551 44.4556 171.044C44.3879 171.205 44.2099 171.203 44.0649 171.513C43.7925 172.098 43.9701 172.175 43.7213 172.695C43.4723 173.215 42.9424 173.864 42.8553 174.757C42.6943 176.389 44.2731 173.003 44.6548 171.371C45.4318 170.948 41.1679 182.016 40.8572 182.684C39.5013 185.6 41.5413 180.664 41.4924 180.35C41.4709 180.219 40.656 179.965 41.6586 178.904C41.9555 178.59 41.5544 180.226 41.9981 179.329C42.4419 178.431 42.0655 178.709 42.0753 178.635C42.1088 178.382 42.578 177.426 42.5944 177.285C42.8543 175.116 42.0237 175.003 42.1356 178.055C41.4411 179.097 42.0476 176.323 41.3276 177.674C40.4525 179.315 40.3288 180.712 40.2614 180.935C39.4515 183.605 40.0793 180.408 39.0231 183.644C38.4349 185.445 40.3959 181.138 38.8035 185.156C37.4701 188.518 37.9902 186.625 37.477 186.709C37.3568 186.729 36.5222 188.531 37.5382 186.03C37.6747 186.001 37.8702 185.922 38.0325 185.802C38.1916 185.153 38.0439 183.913 38.1514 183.578C38.6797 181.941 38.933 182.128 38.9645 181.055C39.0686 181.87 39.2731 180.687 39.5093 180.305C40.3845 178.885 39.7148 180.932 40.677 177.357C40.6751 177.871 40.6865 178.34 40.6894 178.839C40.8545 178.43 41.0198 178.02 41.1848 177.61C41.0456 176.85 41.9394 174.681 40.7944 176.516C41.6076 174.091 42.0619 173.16 42.5568 172.751C42.6511 172.673 42.8118 172.324 42.9798 171.905C43.0314 172.017 43.2467 172.217 43.3035 172.163C43.8073 171.676 43.6882 170.573 43.386 170.817C43.4911 170.519 43.5709 170.282 43.5983 170.198C43.7717 169.666 43.2129 170.625 43.3201 170.181C43.3389 170.103 43.5167 169.659 43.6717 169.25L43.8797 168.736L44.4111 168.744C44.8002 168.741 45.1569 168.732 45.1713 168.698C45.3611 168.241 42.7697 168.571 47.9735 168.305C48.0991 168.721 45.6822 168.63 46.3028 169.072C46.9692 169.547 48.3283 168.91 48.6253 169.493C48.7357 169.397 48.7845 169.317 48.8796 169.208C50.9849 169.462 51.0128 168.976 51.656 168.869C52.9049 168.66 58.6467 168.691 53.4911 169.112C54.2451 169.154 55.0148 169.173 55.7649 169.21C55.9362 168.34 55.4794 168.686 59.0925 168.553C59.8883 168.524 60.1473 168.141 60.9277 168.596C60.8217 168.15 63.1752 168.419 63.3949 168.365C64.8036 168.013 59.5729 167.523 58.9022 168.312C58.0192 168.005 58.0224 168.411 57.0366 168.357C55.6125 168.279 55.4147 168.2 53.7241 168.5C52.0602 168.078 60.2382 168.314 55.2806 167.754C53.665 167.572 49.511 167.415 44.4111 167.285L42.9018 167.262L42.3112 168.725C38.2547 178.472 32.8402 192.037 31.1502 196.253C26.6093 207.581 24.2038 213.53 20.2756 223.764C19.8877 224.773 16.9073 232.373 17.9738 230.966C18.1269 230.764 19.5657 227.556 18.8371 230.503C18.8471 229.85 18.0719 231.449 17.9961 231.579C16.2637 234.563 16.8514 232.675 14.9122 237.677ZM13.2363 254.08C15.6566 247.509 14.1064 252.424 15.3175 251.333C14.9955 252.172 14.6747 253.008 14.3527 253.847C14.3947 253.61 14.4357 253.376 14.4778 253.139C14.4781 253.138 14.4785 253.137 14.4788 253.137C14.0651 253.45 13.6501 253.767 13.2363 254.08ZM98.0116 271.145C97.7384 271.048 97.4684 270.951 97.1724 270.856C96.2473 270.886 95.3258 270.916 94.4007 270.946C94.5111 271.012 94.6177 271.078 94.7281 271.144C95.8225 271.141 96.9134 271.138 98.0116 271.145ZM45.1072 170.496C45.1516 170.23 45.2036 170.03 45.2616 169.865L44.4111 170.448C45.1046 170.427 45.3089 170.699 46.6988 170.524C46.4856 170.878 46.2487 171.226 46.0241 171.577C45.2973 171.548 44.8787 171.494 44.4111 171.466L46.2114 170.232C46.0512 170.582 45.8951 170.97 45.6975 171.589C45.6515 171.392 45.6063 171.191 45.5583 170.997C45.6675 170.782 45.7853 170.554 45.8892 170.346C45.7246 169.886 44.8514 172.014 45.1049 170.5C45.1056 170.498 45.1064 170.497 45.1072 170.496ZM57.1889 170.674C57.8933 170.628 60.684 170.454 61.0648 170.601C62.3556 171.1 54.4821 170.783 60.285 171.226C60.2584 171.296 60.285 171.365 60.285 171.434C59.2265 171.459 58.1712 171.48 57.1051 171.499C57.1622 171.224 57.1242 170.951 57.1889 170.674ZM22.3944 230.469C22.7489 229.445 24.828 224.716 24.5159 226.399C24.4236 226.894 23.1719 228.88 22.8745 229.704C22.6818 230.238 23.1419 229.734 22.6535 230.745C22.5696 230.66 22.4678 230.588 22.3962 230.466C22.3956 230.467 22.395 230.468 22.3944 230.469ZM20.3191 231.843C20.7638 230.815 21.2249 229.777 21.6749 228.742C21.6414 229.611 20.8892 231.055 21.225 231.287C21.3642 231.01 21.502 230.737 21.6412 230.46C21.6454 230.209 21.6481 229.961 21.6509 229.713C22.2006 228.888 22.0893 229.473 22.6805 227.771C22.8474 229.003 23.0748 229.308 21.3969 231.966C21.9105 231.54 22.702 232.433 21.3789 233.755C21.1323 234.002 21.5262 232.723 21.5108 232.7C21.3251 232.408 20.8921 233.036 20.7262 232.735C20.6509 232.6 20.9463 231.841 20.8362 231.667C20.7813 231.586 20.2875 232.226 20.3191 231.843ZM20.832 234.433C21.1142 234.171 21.0608 235.42 20.6145 236.349C19.9191 237.799 20.4753 235.304 20.832 234.433ZM98.0177 271.145C98.0156 271.145 98.0136 271.145 98.0116 271.145C98.0126 271.145 98.0136 271.146 98.0146 271.146C98.0156 271.146 98.0167 271.146 98.0177 271.145ZM53.5566 170.869C54.3865 171.013 55.615 170.992 55.5243 171.22C55.9279 171.175 56.336 171.131 56.7396 171.086C56.7358 171.155 56.7282 171.223 56.7244 171.291C55.5099 171.334 54.299 171.377 53.0845 171.42C53.2368 171.237 53.3777 171.053 53.5566 170.869ZM66.788 170.71C68.3146 170.687 67.0347 170.997 67.3698 171.147C67.7049 171.296 69.0648 171.175 68.9049 171.389C68.0063 171.398 67.0691 171.406 66.159 171.414C66.3989 171.18 66.5664 170.942 66.7911 170.71C66.79 170.71 66.789 170.71 66.788 170.71ZM12.1248 271.394C11.0893 271.461 11.5118 271.698 9.46723 271.42C9.46876 271.42 9.47028 271.42 9.4718 271.42C11.4173 271.227 13.922 271.054 16.0692 271.241C14.7559 271.491 13.7542 271.289 12.1248 271.394ZM44.4531 174.126C44.1205 174.466 44.7085 172.51 45.033 172.154C45.5582 171.577 44.959 173.607 44.4531 174.126ZM53.9526 273.055C55.528 273.632 52.543 274.28 49.4173 274C49.1469 273.976 51.1649 273.792 50.5671 273.68C50.5067 273.668 49.3989 273.682 49.1249 273.602C48.8507 273.521 49.1386 273.335 48.6893 273.256C47.9009 273.119 46.1192 273.373 45.5292 273.193C45.4515 273.169 46.5564 272.919 46.6257 272.91C47.7603 272.759 48.8536 273.085 49.0289 273.087C49.9313 273.099 49.7949 272.842 50.0234 272.782C50.4538 272.669 51.2113 272.782 51.2646 272.774C52.6341 272.549 49.5048 272.614 49.0822 272.521C47.9439 272.272 48.9978 272.04 46.2678 271.9C46.0086 271.886 42.9054 271.902 46.8161 271.615C39.1373 271.017 50.6744 271.275 51.9271 271.406C52.5046 271.467 51.6302 271.712 51.9804 271.821C52.78 272.073 54.143 272.117 54.0211 272.471C53.7583 273.216 51.9682 272.728 50.7346 272.853C50.8641 273.015 50.9136 273.172 51.1534 273.331C50.7841 273.118 53.8384 273.011 53.9526 273.053C53.9526 273.054 53.9526 273.054 53.9526 273.055ZM34.5137 272.204C32.7888 272.429 32.9109 271.959 31.3307 272.227C29.9372 271.805 32.6858 271.834 33.006 271.81C34.4679 271.704 34.4343 271.245 35.93 271.386C35.4161 271.657 34.9972 271.932 34.5137 272.204ZM49.5163 272.01C48.3627 271.772 50.427 271.776 50.5107 271.731C51.4223 271.248 45.241 271.342 49.5163 272.01ZM23.9347 223.86C24.1309 223.308 24.2094 223.737 24.4585 223.279C24.7084 222.821 25.1646 221.1 25.2808 221.192C25.3969 221.286 24.5714 224.444 25.8194 221.436C25.854 221.568 25.9229 221.554 25.9709 221.63C25.6503 222.466 25.3281 223.309 25.0075 224.144C24.9704 223.604 24.9266 223.047 24.8899 222.527C24.5383 222.93 24.655 223.278 24.6454 223.302C24.6452 223.302 24.6449 223.302 24.6447 223.302C24.29 224.169 23.4936 225.101 23.9347 223.86ZM7.96745 267.16C7.37225 267.117 8.46468 266.058 8.73515 265.554C9.00533 265.05 9.08936 264.247 9.21275 264.609C9.03993 265.526 8.03369 267.165 7.96677 267.159C7.967 267.159 7.96722 267.16 7.96745 267.16ZM25.143 272.203C23.6972 272.064 23.9267 271.916 22.158 272.085C22.2265 271.948 22.295 271.807 22.3636 271.671C23.7685 271.668 23.6697 272.068 25.2953 271.907C25.5618 271.881 24.9911 271.561 26.1938 271.664C25.8438 271.835 25.4892 272.024 25.143 272.203ZM17.9775 271.692C19.6376 271.713 20.9542 272.828 17.8968 272.325C17.4436 272.25 16.729 271.676 17.9775 271.692ZM18.3881 238.134C19.3761 235.488 18.3876 238.546 18.2824 239.293C20.7803 233.21 17.9711 239.968 18.2666 240.786C17.8255 241.477 16.9372 242.745 17.4465 241.151C17.6592 240.487 17.7259 240.785 17.7403 240.746C18.1637 239.534 17.8485 239.579 18.3881 238.134ZM37.5108 272.232C37.4042 272.223 37.571 272.031 37.2321 271.992C36.8929 271.954 36.1249 272.089 36.0488 271.97C35.973 271.851 37.5134 271.759 37.986 271.846C38.4582 271.933 38.4741 272.306 37.5108 272.232ZM26.6735 272.706C25.2627 272.568 27.5698 271.858 27.8767 271.861C30.5725 271.898 26.5936 272.481 26.6735 272.706ZM14.8999 243.816C16.4632 240.771 16.1498 243.32 15.7311 245.444C15.5584 245.679 15.3831 245.921 15.2125 246.153C16.1059 245.126 17.3413 243.2 15.1665 247.707C16.0489 245.121 15.1087 247.209 15.078 247.216C14.1757 247.19 16.0023 243.56 14.8988 243.819C14.8992 243.818 14.8996 243.817 14.8999 243.816ZM42.0995 272.029C43.5811 272.031 47.4328 272.178 45.6358 272.549C44.4557 272.376 43.2796 272.202 42.0995 272.029ZM35.0361 191.852C35.2748 190.646 35.6805 189.606 36.2317 188.219C36.0351 189.584 36.3865 188.773 36.6204 188.378C36.9743 187.777 36.3654 189.327 36.3831 189.339C36.6676 189.416 37.0928 188.442 36.2149 190.694C36.5256 190.174 36.8343 189.661 37.1443 189.14C36.4925 190.863 36.5146 191.337 36.3113 192.511C36.1876 191.247 35.9826 192.77 35.2289 193.932C34.8523 194.511 34.9153 192.466 35.0378 191.848C35.0372 191.849 35.0367 191.851 35.0361 191.852ZM16.0612 240.494C16.2834 240.204 16.5288 239.955 16.7606 239.681C16.9042 239.341 17.0468 238.999 17.1904 238.659C17.122 238.583 17.047 238.514 16.9846 238.432C17.1354 237.969 17.1851 238.191 17.2484 238.061C17.2479 238.061 17.2474 238.06 17.247 238.06C18.1514 236.186 18.44 235.387 18.7635 233.769C19.0235 233.87 19.2834 233.97 19.5434 234.071C19.3869 234.402 19.2297 234.737 19.0739 235.068C18.8643 235.195 18.6542 235.323 18.4445 235.45C18.3692 235.874 18.2947 236.294 18.2194 236.718C18.0471 237.015 17.8476 237.374 17.693 237.629C17.8115 239.483 18.6998 235.716 19.0138 235.801C19.2158 235.855 17.8157 239.452 17.4814 239.919C17.433 239.986 17.1927 238.999 16.9655 240.425C16.9303 240.648 18.0728 241.173 16.576 242.227C16.3634 242.378 15.9094 241.39 16.0612 240.494ZM20.7368 227.273C20.7032 229.587 22.799 221.809 22.1692 225.271C22.8686 224.484 22.7982 224.653 22.7455 225.698C22.7413 225.79 23.0833 225.187 23.0743 225.246C22.9078 226.177 22.415 227.187 22.7184 227.312C22.6116 227.54 22.5119 227.755 22.405 227.983C22.4937 226.895 21.7 228.373 21.2246 228.879C21.0086 229.109 21.2174 228.468 21.0321 228.661C20.9639 228.732 20.6952 229.637 20.5802 229.634C20.3229 229.62 20.2271 228.95 20.4196 227.95C20.4194 227.95 20.4192 227.95 20.4189 227.95C20.5245 227.722 20.6306 227.501 20.7368 227.273ZM4.63721 270.781C4.91796 271.285 4.50274 272.712 5.73047 270.137C5.76125 270.3 5.78984 270.466 5.82064 270.629C5.64055 271.074 5.46591 271.504 5.28374 271.956C4.81773 272.194 4.50555 272.584 4.29356 272.991L4.22552 273.16L4.41113 273.162C5.66367 273.303 6.76379 272.691 5.5106 273.371C5.32403 273.472 4.18632 273.359 5.30958 273.633C5.30805 273.633 5.30653 273.633 5.30501 273.633C4.94478 273.614 4.65686 273.591 4.41113 273.57L3.62556 273.558L3.91354 272.844C4.27705 272.101 4.44946 271.793 4.63721 270.781ZM8.71014 261.1C10.885 258.063 7.3942 265.95 7.68195 264.519C7.70773 264.39 9.2328 261 8.71014 261.1ZM20.7538 274.142C19.1322 274.158 19.0247 273.654 19.1882 273.473C19.3519 273.291 20.4749 273.475 20.6198 273.446C21.0919 273.351 20.0905 273.289 20.7036 273.16C20.9066 273.117 23.7312 272.938 23.8606 272.96C24.5793 273.08 23.5287 273.496 23.7342 273.543C24.4043 273.699 25.3141 273.483 25.5085 273.704C25.9272 274.176 24.2309 273.681 23.9444 273.673C23.0801 273.65 23.1556 273.916 22.5083 273.969C21.8615 274.022 21.4388 273.931 20.868 273.95C20.6782 273.956 20.8361 274.14 20.7538 274.142ZM15.3915 273.078C17.0853 273.459 12.9612 273.874 12.472 273.785C11.0327 273.519 14.5805 272.896 15.3915 273.078ZM19.9079 232.778C19.0916 234.124 20.1839 230.677 20.6596 229.754C20.6978 229.974 20.1888 232.315 19.9079 232.778ZM14.5609 244.698C15.1546 243.4 15.0547 245.386 14.6173 246.491C13.9845 246.993 14.2964 246.411 14.5607 245.68C14.8246 244.951 14.0979 245.71 14.5609 244.698ZM38.3439 273.686C38.0367 273.693 33.0849 273.355 35.93 273.214C36.147 273.204 39.6133 273.263 39.876 273.326C40.4046 273.454 39.1358 273.668 38.3439 273.686ZM11.5346 250.851C12.1367 250.275 12.3996 249.582 12.5376 250.378C12.5372 250.379 12.5368 250.38 12.5365 250.381C13.3428 248.648 12.58 248.262 12.7452 247.885C13.3232 246.566 13.3966 248.056 13.9072 247.286C12.9767 249.175 13.5743 248.761 13.0233 250.259C12.8995 250.595 12.1559 251.843 11.9387 251.983C11.7216 252.124 11.5605 251.277 11.5346 250.851ZM45.3388 273.775C43.6674 273.91 42.1372 273.337 44.4555 273.246C45.5864 273.201 46.3593 273.692 45.3388 273.775ZM59.5997 168.654C59.3446 168.805 59.0819 168.954 58.8078 169.103C59.4244 169.14 60.0415 169.177 60.6581 169.214C60.1708 169.167 59.6827 169.12 59.1915 169.073C60.3491 169.02 60.8783 168.747 59.6027 168.654C59.6017 168.654 59.6007 168.654 59.5997 168.654ZM100.809 168.54C101.327 168.395 102.347 168.843 102.218 168.878C101.243 169.139 100.09 168.74 100.809 168.54ZM19.462 230.152C20.0975 228.334 20.3006 229.831 19.9219 230.95C20.052 230.226 19.1015 231.184 19.462 230.152ZM86.3168 168.575C86.144 168.638 85.9698 168.7 85.7762 168.763C86.3851 168.676 86.4907 168.617 86.3168 168.575ZM37.5565 274.331C37.2626 274.387 35.089 274.433 34.7954 274.364C34.1862 274.218 35.8812 273.815 36.8788 273.939C36.9892 273.952 37.849 274.275 37.552 274.331C37.5535 274.331 37.555 274.331 37.5565 274.331ZM62.2039 168.375C62.2005 168.382 62.2024 168.388 62.2085 168.395C62.2063 168.388 62.2069 168.381 62.2039 168.375ZM117.061 200.482C117.049 200.471 117.037 200.466 117.027 200.468C117.038 200.472 117.05 200.48 117.061 200.482ZM22.2265 274.95C21.5031 275.645 19.8354 275.275 21.1528 274.932C21.2266 274.914 22.0511 274.951 22.2265 274.95Z" fill="black"/>
<path d="M212.911 78.0362V1.53622H169.911L115.411 78.0362H212.911Z" fill="white"/>
<path d="M125.469 58.8313C121.443 64.4686 117.188 70.3864 112.969 76.2963L109.548 80.9439L115.411 81.0349C121.363 81.0406 127.297 81.0295 132.998 80.9753C134.552 80.9606 134.445 80.7591 134.881 80.7325C136.073 80.6591 136.791 80.8968 137.659 80.8794C141.882 80.7954 145.832 80.7612 149.974 80.6849C154.242 80.6065 152.223 79.9802 153.706 79.8276C156.603 79.5288 154.139 80.3455 155.277 80.5289C158.599 80.4799 161.949 80.3914 165.276 80.3018C164.464 80.2256 163.652 80.1509 162.831 80.0803C164.281 80.0635 166.356 79.9374 163.928 79.724C164.464 79.6652 164.965 79.5964 165.517 79.539C165.668 79.8364 168.236 79.8604 168.47 80.0367C168.705 80.2131 167.261 80.1726 167.27 80.188C167.366 80.4076 173.287 80.1073 173.714 80.0828C174.843 80.0177 173.853 79.6489 174.814 79.6727C176.465 79.7133 175.365 80.4635 177.601 79.4661C178.49 79.7901 178.568 79.6219 179.694 79.5994C179.843 79.5966 179.728 79.7842 179.793 79.7891C181.498 79.9284 180.187 79.5795 180.196 79.5606C180.351 79.2396 182.181 79.3823 182.566 79.3515C187.402 78.968 190.946 78.7083 196.05 78.6195C197.153 78.6006 200.513 78.7308 201.58 78.6762C202.633 78.6224 202.068 78.391 202.619 78.28C203.503 78.8364 204.345 78.8978 206.328 78.5312C207.067 78.9371 206.972 78.6097 208.386 78.6909C209.564 78.7581 211.615 79.245 212.911 78.83C211.425 78.8678 211.579 78.6684 209.907 78.548C209.35 78.5082 203.544 78.4997 203.976 78.0848C204.202 77.8685 206.126 78.0672 206.2 78.0273C206.633 77.7949 205.559 77.5094 204.607 77.6095C204.845 77.6563 205.13 77.7039 205.385 77.7508C203.247 78.0413 204.718 76.9257 203.093 77.9006C202.892 78.0202 202.97 78.1449 202.638 78.2719C202.57 78.2194 202.975 78.0891 202.626 78.0658C202.27 78.0422 201.595 78.2896 201.494 78.0811C201.343 77.778 202.818 77.8974 202.929 77.8797C202.93 77.8815 202.931 77.8834 202.932 77.8852C203.914 77.7243 201.864 77.7059 201.767 77.6772C201.133 77.4883 201.565 77.3429 200.614 77.1868C200.071 77.098 198.689 77.1504 198.179 77.1217C197.672 77.0922 198.46 76.9488 198.119 76.918C197.778 76.8873 197.354 76.9962 196.953 76.9605C196.782 76.9448 196.791 76.7848 196.708 76.7792C195.818 76.7177 196.402 77.0504 195.595 77.0301C195.073 77.0166 193.319 76.7065 194.528 76.6141C193.947 76.5819 193.38 76.5583 192.802 76.5331C193.167 76.4856 193.543 76.4532 193.899 76.3973C192.811 76.4735 192.319 76.1998 191.637 76.1794C190.955 76.1591 190.344 76.4876 189.594 76.3273C187.992 75.9865 191.957 76.144 192.45 76.0831C192.642 76.0591 191.905 75.8019 191.791 75.7945C191.288 75.7623 190.691 75.9463 190.303 75.9381C188.912 75.9073 188.061 75.6644 186.735 75.6154C182.222 75.4488 176.623 75.3138 172.347 75.2606C170.754 75.241 169.796 75.514 169.081 75.5063C167.409 75.4881 167.204 75.2501 165.746 75.2375C163.575 75.2179 160.517 75.4256 158.705 75.4704C157.451 75.5012 156.315 75.2709 155.989 75.2653C151.455 75.1827 145.939 75.1879 142.182 75.1851C140.415 75.1837 139.575 75.4425 139.211 75.4349C137.642 75.4027 138.063 75.1815 136.791 75.2038C136.104 75.2157 135.975 75.4281 135.884 75.4363C135.074 75.5063 134.913 75.229 134.281 75.2199C130.649 75.1674 127.15 75.349 123.553 75.3756C123.292 75.3777 123.315 75.5005 123.146 75.4942C122.42 75.4641 122.758 75.2706 121.999 75.2565C120.421 75.2264 118.802 75.2584 117.129 75.2829C116.963 75.2853 116.889 75.4432 116.51 75.4433C116.167 75.4433 115.899 75.3211 115.411 75.3037L117.637 79.6217C117.668 79.5803 117.701 79.5361 117.734 79.4888C118.619 78.2082 119.365 76.853 120.313 75.5044C120.471 75.2814 120.822 75.1165 121.057 74.782C121.797 73.7326 122.76 72.084 123.393 71.1843C125.483 68.2167 127.514 65.5523 129.499 62.7684C129.965 62.114 130.235 61.432 130.474 61.0891C131.013 60.3163 130.737 60.992 131.291 60.2148C135.82 53.8653 140.301 47.445 144.89 41.0258C146.692 38.5048 149.021 35.5326 150.72 33.0657C151.426 32.0396 151.37 31.722 151.879 31.0035C152.789 29.7223 153.194 29.6615 154.18 28.3289C154.966 27.2651 155.605 25.8597 156.419 24.7496C157.232 23.6395 157.833 23.2884 158.778 22.021C159.557 20.977 160.505 19.4212 161.345 18.279C165.035 13.2585 168.685 8.26507 172.301 3.23885L169.911 4.47061C176.627 4.50155 183.352 4.47749 190.152 4.36096C194.763 4.28187 199.879 4.32298 204.645 4.04162C205.092 4.01499 204.407 3.73855 205.843 3.79663C206.614 3.82812 207.69 4.06632 209.472 4.07824C210.611 4.08576 211.758 4.08659 212.911 4.0822L210.365 1.53622C210.402 11.1159 210.798 21.1525 210.708 30.7681C210.556 46.906 208.589 63.631 211.467 77.6546C211.609 78.3425 212.301 77.9695 212.498 77.5573C212.358 77.1749 212.191 76.8213 212.032 76.4211C212.897 75.9171 212.672 76.0059 212.594 74.1378C212.546 72.9877 212.916 73.9064 213.021 73.2933C213.157 72.4986 213.585 68.7671 213.011 69.4848C213.111 69.2535 213.206 69.04 213.303 68.8146C213.39 66.1132 213.534 63.4885 213.698 60.8464C213.727 60.39 213.907 60.3689 213.935 59.8975C214.014 58.6314 213.895 57.6262 213.914 56.3214C213.923 55.6127 214.131 55.5144 214.118 54.5862C214.105 53.6585 213.824 53.6789 214.129 52.4132C214.481 53.2376 214.226 49.5603 214.247 48.2524C214.25 48.0626 214.566 46.506 214.53 45.6786C214.494 44.8484 214.292 43.588 214.407 42.3041C214.461 41.7022 214.707 41.3369 214.721 40.6875C214.731 40.2308 214.512 39.6823 214.503 39.104C214.494 38.526 214.674 37.2753 214.677 37.0462C214.688 36.219 214.534 37.1315 214.527 36.5658C214.492 33.8347 214.409 30.6615 214.513 27.969C214.525 27.6379 214.707 28.0959 214.713 28.052C214.935 25.8047 214.699 27.0042 214.537 26.3974C214.38 25.8096 214.465 21.508 214.781 21.4763C214.386 21.3441 214.687 20.3879 214.699 20.1395C214.744 19.173 214.402 19.3625 214.508 18.4256C214.546 18.0818 214.777 18.7512 214.77 18.3817C214.753 17.4684 214.383 16.6465 214.345 15.4307C214.336 15.1371 214.502 15.0417 214.496 14.5198C214.49 13.9973 214.288 11.807 214.637 12.8177C214.357 11.4893 214.511 11.2219 214.503 9.67695C214.501 9.28559 214.234 8.78171 214.317 7.94881C214.345 7.66713 214.602 7.67542 214.604 7.25138C214.609 6.28182 214.343 5.36837 214.333 4.13788C214.325 3.28759 214.346 2.417 214.372 1.53622L214.4 0.103992L212.911 0.0752667C211.408 0.031212 209.876 -0.0275367 208.363 0.0143845C207.711 0.0326312 207.874 0.290649 206.925 0.295636C206.786 0.295636 205.644 0.0725076 204.989 0.0934864C204.594 0.106085 202.551 0.262896 202.138 0.275494C201.457 0.295689 201.335 0.0461456 200.962 0.0949513C199.882 0.235631 200.748 0.602953 199.449 0.100444C199.022 0.379003 198.263 0.351135 198.02 0.694075C197.578 0.318258 197.005 0.679336 196.149 0.553449C195.292 0.427466 194.589 -0.300424 194.381 0.48277C193.981 0.387583 192.275 0.225136 191.988 0.213238C191.14 0.179674 191.593 0.396313 190.953 0.367047C190.841 0.362149 190.959 0.214012 190.236 0.228619C189.761 0.238417 186.285 0.247506 186.077 0.267803C183.709 0.499726 187.368 0.414721 187.88 0.575056C187.971 0.532944 188.06 0.490694 188.157 0.449079C189.203 0.379128 188.607 0.713801 188.133 0.791487C187.658 0.869152 186.772 0.720059 186.377 0.829939C186.181 0.885111 186.303 1.28636 186.897 1.2379C186.261 1.36149 187.129 1.49199 186.878 1.60814C186.602 1.73547 183.744 1.77467 183.729 1.55357C184.263 1.54588 184.927 1.55351 185.467 1.54442C186.172 1.16017 184.029 -0.152055 182.062 0.372174C180.636 0.751499 182.987 1.05313 179.613 0.734724C180.132 0.719323 180.571 0.683437 181.042 0.667341C181.093 0.379175 180.328 0.696028 179.933 0.604353C179.744 0.559529 180.911 0.355478 179.898 0.287579C179.026 0.699656 178.355 0.285154 176.893 0.280255C177.3 0.353745 177.706 0.426858 178.113 0.500348C175.643 0.799199 181.38 0.897779 176.577 1.06505C177.155 1.07833 177.73 1.0748 178.311 1.09508C178.029 1.24628 178.48 1.69014 178.228 1.78392C177.567 2.03008 176.588 1.88169 175.782 1.90331C175.429 1.91241 175.648 2.03225 175.618 2.03295C175.135 2.04623 175.242 1.87056 174.818 1.85936C174.284 1.84538 172.743 2.01615 172.493 1.99669C171.847 1.947 172.923 1.60035 172.861 1.57445C172.449 1.40654 171.607 1.54579 171.651 1.32616C173.677 1.4773 179.514 1.28326 174.233 0.920028C175.689 0.565181 175.269 0.0759637 173.175 0.0374559C171.443 0.00526035 172.561 0.201281 171.659 0.416852C171.586 0.4339 170.633 0.481308 169.911 0.475501L169.385 0.46535L169.047 0.92076C168.8 1.2615 168.584 1.5278 168.513 1.53087C168.853 1.65882 168.668 2.45395 169.257 2.25154C169.343 2.22202 169.878 1.43459 169.923 1.87404C169.946 2.09414 169.928 2.66695 170.125 2.71242C169.906 2.79668 169.668 2.87885 169.443 2.96228C168.585 4.10207 168.581 4.34805 168.325 5.12336C168.263 5.0359 168.337 4.20325 167.806 5.16919C167.78 5.2194 167.876 5.34713 167.615 5.84368C167.086 6.84663 166.988 7.06495 167.852 6.62146C166.294 8.36917 166.408 9.0662 164.905 10.9256C164.713 10.2062 165.316 9.60523 166.674 7.88946C166.618 7.73299 166.534 7.61838 166.478 7.45869C165.042 10.0073 165.85 8.81831 164.669 9.99975C164.379 10.2888 163.191 12.0824 163.292 11.2737C163.317 11.083 164.1 10.001 163.895 10.0426C163.855 10.051 162.856 11.3334 162.804 11.4715C162.133 13.2003 164.256 10.7697 161.249 14.7036C161.166 14.8118 161.002 14.7539 160.828 14.9575C160.502 15.3404 160.656 15.4578 160.36 15.7963C160.064 16.135 159.492 16.4892 159.297 17.177C158.94 18.4336 160.83 16.2155 161.391 15.0276C162.161 14.9323 156.812 22.463 156.44 22.9007C154.816 24.8124 157.33 21.4965 157.325 21.2299C157.321 21.1184 156.602 20.6603 157.663 20.1238C157.977 19.9653 157.398 21.1504 157.922 20.5703C158.446 19.9899 158.063 20.0951 158.082 20.0391C158.145 19.8469 158.7 19.2279 158.733 19.1199C159.25 17.4639 158.499 17.1139 158.212 19.5929C157.437 20.2102 158.352 18.1788 157.515 19.0353C156.497 20.0763 156.205 21.1566 156.114 21.314C155.025 23.1992 156.013 20.8351 154.625 23.096C153.852 24.3548 156.212 21.5185 154.229 24.2382C152.569 26.5144 153.291 25.1608 152.807 25.0671C152.693 25.0455 151.693 26.228 152.95 24.5429C153.079 24.5624 153.27 24.5605 153.435 24.5144C153.665 24.0449 153.687 23.0055 153.829 22.7708C154.526 21.6252 154.736 21.8539 154.902 21.0041C154.894 21.6898 155.234 20.8065 155.501 20.5742C156.49 19.7106 155.61 21.1403 156.955 18.5783C156.888 18.989 156.838 19.3687 156.777 19.7693C156.982 19.4929 157.187 19.2164 157.391 18.94C157.36 18.2878 158.462 16.8298 157.171 17.9413C158.231 16.2539 158.77 15.65 159.278 15.4772C159.375 15.4446 159.568 15.215 159.777 14.9323C159.81 15.0377 159.983 15.2653 160.043 15.2396C160.57 15.0072 160.601 14.0868 160.291 14.1874C160.426 13.9819 160.53 13.8171 160.566 13.7585C160.794 13.3865 160.156 13.9796 160.312 13.6573C160.363 13.5513 161.106 12.5746 161.061 12.5139C160.775 12.128 159.872 13.9633 162.007 10.5082C162.403 10.6701 161.237 12.1501 161.877 12.0131C162.565 11.8661 162.66 10.6342 163.269 10.7841C163.241 10.6584 163.198 10.5811 163.152 10.4574C164.311 9.26941 163.928 8.96998 164.131 8.49981C164.525 7.58619 167.145 3.96234 165.158 7.47663C165.533 7.02278 165.897 6.5458 166.266 6.09152C165.634 5.47781 165.71 5.9686 167.234 3.59957C167.57 3.07778 167.375 2.69132 168.098 2.46016C167.734 2.29033 168.701 1.22059 168.963 0.86109L169.334 0.361527L169.911 0.372662C169.968 0.373333 170.009 0.371357 170.028 0.365216C170.34 0.265184 170.234 0.154011 169.911 0.0641974L169.181 0.0501105L168.712 0.682109C168.056 1.21389 166.709 2.94801 166.952 3.58008C166.303 3.96202 166.635 4.1955 166.145 4.78959C165.438 5.64781 165.285 5.72738 164.765 6.97355C163.669 7.78413 167.557 2.73391 164.861 5.55366C162.164 8.37434 148.861 26.5087 145.749 30.7327C140.11 38.3853 137.13 42.3976 132.197 49.3655C131.71 50.0526 127.988 55.207 129.152 54.4139C129.319 54.2999 131.057 52.1804 130.008 54.3128C130.101 53.7931 129.181 54.8311 129.094 54.9115C127.114 56.7595 127.898 55.4315 125.469 58.8313ZM121.825 71.4433C124.898 66.9374 122.839 70.3895 124.096 69.8941C123.692 70.4653 123.289 71.0344 122.885 71.6056C122.954 71.4291 123.022 71.2546 123.091 71.078C123.091 71.0774 123.091 71.0768 123.092 71.0761C122.67 71.1979 122.247 71.3216 121.825 71.4433ZM195.466 76.145C195.253 76.048 195.043 75.9509 194.812 75.856C194.092 75.8861 193.374 75.9157 192.654 75.9457C192.74 76.0115 192.823 76.0781 192.909 76.1439C193.761 76.1411 194.611 76.138 195.466 76.145ZM161.92 14.4683C162.292 13.4812 162.631 13.8351 163.238 12.6042C163.431 12.9453 163.607 13.297 163.791 13.6433C163.15 14.4529 162.904 14.5656 162.325 15.5285C162.308 15.3561 162.292 15.1808 162.272 15.0104C162.4 14.8726 162.538 14.7271 162.661 14.5925C162.568 14.1732 161.49 15.6038 161.917 14.4707C161.918 14.4699 161.919 14.4691 161.92 14.4683ZM168.101 6.03761C168.382 5.56399 169.502 3.69306 169.794 3.5368C170.783 3.00719 166.967 7.81787 169.95 4.39412C169.995 4.45154 170.063 4.47446 170.119 4.5146C169.661 5.20022 169.201 5.88187 168.736 6.56947C168.537 6.37327 168.298 6.23944 168.101 6.03761ZM133.294 55.3972C133.752 54.6883 136.275 51.5506 135.772 52.8009C135.624 53.1684 134.215 54.368 133.835 54.9349C133.589 55.302 134.078 55.0424 133.498 55.6996C133.431 55.6049 133.347 55.5153 133.296 55.3957C133.296 55.3962 133.295 55.3968 133.294 55.3972ZM131.204 55.8492C131.746 55.1648 132.304 54.4775 132.851 53.7899C132.709 54.4752 131.831 55.3964 132.111 55.6871C132.275 55.509 132.437 55.333 132.6 55.1549C132.636 54.9549 132.671 54.7571 132.705 54.5595C133.318 54.0711 133.14 54.5048 133.903 53.3262C133.9 54.365 134.07 54.6801 132.182 56.2843C132.711 56.1036 133.327 57.0668 131.937 57.7114C131.678 57.8326 132.205 56.9309 132.194 56.9082C132.06 56.6164 131.58 56.9833 131.465 56.6909C131.413 56.559 131.783 56.0433 131.703 55.8701C131.663 55.7877 131.126 56.1458 131.204 55.8492ZM131.346 58.0838C131.64 57.9619 131.431 58.9452 130.9 59.5502C130.073 60.4939 130.905 58.6694 131.346 58.0838ZM195.471 76.1453C195.469 76.1452 195.468 76.1451 195.466 76.145C195.467 76.1453 195.468 76.1457 195.468 76.1461C195.469 76.1458 195.47 76.1456 195.471 76.1453ZM166.619 8.45482C167.111 8.01162 167.649 7.22024 167.794 7.41008C167.94 7.12807 168.088 6.84364 168.234 6.56163C168.288 6.60382 168.341 6.6485 168.394 6.69029C167.88 7.48542 167.368 8.27833 166.854 9.07387C166.774 8.87088 166.688 8.67472 166.619 8.45482ZM172.671 2.70971C173.86 2.68664 172.863 2.99682 173.124 3.1466C173.385 3.29638 174.444 3.17453 174.32 3.3894C173.62 3.3978 172.89 3.40623 172.181 3.41393C172.368 3.18017 172.498 2.94208 172.673 2.70971C172.673 2.70971 172.672 2.70971 172.671 2.70971ZM128.576 76.3936C127.77 76.4608 128.099 76.6975 126.506 76.4204C126.507 76.4204 126.509 76.4204 126.51 76.4204C128.025 76.2265 129.976 76.0538 131.648 76.2413C130.625 76.491 129.845 76.2887 128.576 76.3936ZM160.852 17.1707C160.502 17.3392 161.294 15.9567 161.639 15.7728C162.198 15.4753 161.385 16.9133 160.852 17.1707ZM161.152 78.0548C162.379 78.6321 160.054 79.2802 157.62 79.0003C157.409 78.9758 158.981 78.7922 158.515 78.6795C158.468 78.6684 157.606 78.6822 157.392 78.6019C157.179 78.5214 157.403 78.3346 157.053 78.2562C156.439 78.1192 155.051 78.373 154.592 78.1932C154.531 78.1691 155.392 77.9192 155.446 77.9097C156.329 77.7586 157.181 78.0852 157.318 78.0874C158.02 78.0986 157.914 77.8425 158.092 77.7823C158.427 77.6691 159.017 77.7823 159.059 77.7739C160.125 77.5493 157.688 77.6136 157.359 77.5212C156.473 77.272 157.293 77.0404 155.167 76.8997C154.965 76.8865 152.548 76.9015 155.594 76.6148C149.614 76.0172 158.599 76.2749 159.575 76.4064C160.024 76.4674 159.343 76.7115 159.616 76.8214C160.239 77.0726 161.3 77.1169 161.206 77.471C161.001 78.2155 159.607 77.7277 158.646 77.853C158.747 78.0147 158.785 78.1723 158.972 78.3305C158.684 78.1178 161.063 78.0113 161.152 78.0533C161.152 78.0538 161.152 78.0543 161.152 78.0548ZM146.013 77.204C144.669 77.4287 144.765 76.9587 143.534 77.2275C142.449 76.8055 144.589 76.8338 144.839 76.81C145.977 76.7036 145.951 76.2447 147.116 76.3859C146.716 76.6575 146.389 76.9318 146.013 77.204ZM157.697 77.0103C156.799 76.7724 158.406 76.7764 158.472 76.7309C159.182 76.2482 154.367 76.342 157.697 77.0103ZM135.561 50.5865C135.812 50.2054 135.83 50.5735 136.118 50.2847C136.407 49.9958 137.048 48.7599 137.144 48.8703C137.239 48.9817 136.073 51.2528 137.609 49.2341C137.625 49.3503 137.69 49.3612 137.724 49.4369C137.322 50.0057 136.917 50.5805 136.514 51.1493C136.549 50.7045 136.58 50.2451 136.612 49.8169C136.236 50.0298 136.3 50.3449 136.288 50.3618C136.287 50.3617 136.287 50.3615 136.287 50.3614C135.849 50.9447 134.995 51.4421 135.561 50.5865ZM117.301 76.8375C117.437 77.4079 116.361 76.7708 115.919 76.7001C115.756 76.6741 115.569 76.6866 115.411 76.7003L116.499 78.8114C116.636 78.5789 116.724 78.4109 116.766 78.6175C116.73 78.7061 116.679 78.8 116.619 78.8964L115.411 76.5538C116.172 76.5118 117.288 76.7822 117.301 76.8382C117.301 76.838 117.301 76.8377 117.301 76.8375ZM138.715 77.2029C137.589 77.0645 137.768 76.9162 136.39 77.0854C136.443 76.9475 136.497 76.8066 136.55 76.6708C137.644 76.668 137.567 77.0683 138.833 76.9074C139.041 76.8808 138.597 76.5611 139.533 76.6639C139.261 76.8345 138.984 77.0239 138.715 77.2029ZM133.134 76.6917C134.427 76.7128 135.453 77.8285 133.071 77.3253C132.718 77.2501 132.162 76.6756 133.134 76.6917ZM128.618 60.2835C129.868 58.4735 128.564 60.613 128.372 61.1788C131.454 57.0883 127.998 61.6224 128.166 62.3693C127.671 62.7846 126.689 63.5228 127.363 62.4057C127.644 61.9397 127.667 62.1996 127.686 62.1726C128.231 61.3344 127.935 61.2718 128.618 60.2835ZM148.347 77.2315C148.264 77.2231 148.394 77.0305 148.13 76.992C147.866 76.9538 147.268 77.0886 147.208 76.9704C147.149 76.8515 148.349 76.7592 148.717 76.8459C149.085 76.9334 149.097 77.3057 148.347 77.2315ZM139.907 77.7061C138.808 77.5675 140.605 76.858 140.844 76.8613C142.943 76.8984 139.845 77.4815 139.907 77.7061ZM124.673 63.7439C126.504 61.7938 125.889 63.7367 125.231 65.3069C125.042 65.4413 124.849 65.5803 124.662 65.7126C125.618 65.17 127.004 64.0135 124.421 66.9432C125.566 65.1481 124.431 66.526 124.402 66.522C123.573 66.219 125.722 63.883 124.671 63.7458C124.672 63.7452 124.672 63.7445 124.673 63.7439ZM151.921 77.0286C153.075 77.0315 156.074 77.1785 154.675 77.5494C153.756 77.3758 152.84 77.2022 151.921 77.0286ZM149.897 28.4232C150.271 27.5321 150.779 26.8262 151.464 25.8876C151.109 26.9191 151.537 26.3795 151.803 26.1359C152.206 25.766 151.446 26.8166 151.461 26.8317C151.714 26.9825 152.23 26.3355 151.132 27.8646C151.486 27.5449 151.836 27.2305 152.189 26.9103C151.367 28.0867 151.327 28.4729 150.989 29.3498C151.037 28.2987 150.653 29.4538 149.809 30.1488C149.387 30.4954 149.707 28.8768 149.899 28.4203C149.898 28.4213 149.897 28.4222 149.897 28.4232ZM126.169 61.4459C126.411 61.2834 126.669 61.1608 126.918 61.0141C127.094 60.7863 127.269 60.5573 127.445 60.3295C127.392 60.2478 127.332 60.1684 127.285 60.0838C127.483 59.7597 127.5 59.9535 127.575 59.8687C127.575 59.8684 127.575 59.8681 127.574 59.8679C128.648 58.6495 129.017 58.0997 129.522 56.9056C129.749 57.0673 129.976 57.229 130.203 57.3907C130.016 57.607 129.829 57.8261 129.642 58.0427C129.433 58.079 129.223 58.1157 129.013 58.152C128.889 58.468 128.767 58.7812 128.643 59.0972C128.446 59.2808 128.216 59.506 128.041 59.6615C127.913 61.1833 129.214 58.4448 129.493 58.6107C129.673 58.7169 127.921 61.1604 127.553 61.4298C127.5 61.4683 127.404 60.6026 127.012 61.6737C126.951 61.8414 127.938 62.6188 126.422 62.9952C126.207 63.0492 125.914 62.1162 126.169 61.4459ZM132.174 52.3198C131.847 54.1622 134.775 48.5887 133.751 51.1646C134.497 50.7531 134.411 50.8664 134.228 51.6865C134.213 51.759 134.605 51.3824 134.59 51.4268C134.317 52.1209 133.733 52.7754 133.997 52.9706C133.869 53.1198 133.75 53.2607 133.622 53.4098C133.843 52.5667 132.922 53.5015 132.418 53.7582C132.19 53.8755 132.464 53.427 132.269 53.5234C132.197 53.5594 131.833 54.1998 131.727 54.1615C131.492 54.07 131.489 53.5032 131.794 52.7632C131.794 52.7631 131.794 52.7629 131.794 52.7628C131.92 52.6129 132.047 52.4693 132.174 52.3198ZM120.866 78.6385C121.154 78.1948 122.307 78.0678 120.092 77.8508C120.201 77.7634 120.314 77.6767 120.424 77.5893C120.798 77.597 121.159 77.6046 121.539 77.6116C122.678 78.9189 124.756 77.4436 123.425 78.3708C123.279 78.4716 122.393 78.359 123.268 78.6326C123.267 78.6329 123.266 78.6331 123.265 78.6334C122.043 78.5494 121.889 78.3922 120.866 78.6385ZM116.751 75.6506C118.717 74.2117 116.219 77.4759 115.509 78.1062L115.411 77.9156C115.613 77.9619 115.663 78.0115 115.463 78.0559C115.456 78.0573 115.438 78.0578 115.411 78.0577L115.369 78.057L115.394 78.0238C115.63 77.6963 117.215 75.7285 116.751 75.6506ZM135.296 79.1417C134.034 79.1578 133.95 78.654 134.077 78.4726C134.205 78.2907 135.079 78.4745 135.192 78.4459C135.56 78.3514 134.78 78.289 135.257 78.1595C135.415 78.1174 137.615 77.9379 137.716 77.9595C138.276 78.08 137.458 78.4957 137.618 78.5433C138.139 78.6993 138.848 78.483 138.999 78.7041C139.326 79.1756 138.004 78.6806 137.781 78.6726C137.108 78.6502 137.167 78.9156 136.663 78.9688C136.159 79.0219 135.83 78.931 135.385 78.9498C135.238 78.9561 135.36 79.14 135.296 79.1417ZM131.12 78.0778C132.439 78.4592 129.227 78.8739 128.846 78.7846C127.725 78.5194 130.489 77.8959 131.12 78.0778ZM130.705 56.4695C129.78 57.2917 131.228 54.8727 131.785 54.2828C131.792 54.4709 131.023 56.1866 130.705 56.4695ZM124.247 64.3437C124.961 63.4903 124.615 65.0496 124.07 65.7974C123.422 66.0017 123.784 65.6331 124.121 65.1307C124.458 64.6288 123.69 65.0095 124.247 64.3437ZM148.996 78.6865C148.757 78.693 144.9 78.3547 147.116 78.2141C147.285 78.2036 149.984 78.2631 150.189 78.3261C150.601 78.4535 149.613 78.6683 148.996 78.6865ZM120.668 68.3254C121.297 68.0527 121.628 67.5795 121.654 68.2602C121.653 68.2609 121.653 68.2615 121.652 68.2622C122.618 67.1261 121.964 66.579 122.164 66.3288C122.866 65.4535 122.743 66.6691 123.313 66.2122C122.213 67.4344 122.817 67.2896 122.117 68.3166C121.96 68.5469 121.114 69.314 120.896 69.3587C120.678 69.4031 120.637 68.6749 120.668 68.3254ZM154.444 78.7747C153.142 78.9104 151.95 78.3366 153.756 78.2456C154.636 78.2008 155.238 78.6921 154.444 78.7747ZM167.546 3.33632C167.553 3.58541 167.556 3.83901 167.554 4.09937C167.862 3.72936 168.171 3.35943 168.48 2.98983C168.221 3.27136 167.962 3.55373 167.702 3.83808C168.182 3.07339 168.199 2.57889 167.547 3.33439C167.547 3.33503 167.546 3.33567 167.546 3.33632ZM199.167 0.539533C199.57 0.394653 200.365 0.843284 200.264 0.878279C199.505 1.13906 198.607 0.740412 199.167 0.539533ZM130.629 54.2269C131.448 52.9694 131.444 54.2323 130.952 55.0098C131.164 54.471 130.165 54.9405 130.629 54.2269ZM187.88 0.575056C187.746 0.637765 187.61 0.700481 187.459 0.763289C187.933 0.676083 188.016 0.617435 187.88 0.575056ZM148.383 79.3306C148.154 79.3866 146.461 79.4328 146.232 79.3636C145.758 79.218 147.078 78.8153 147.855 78.9392C147.941 78.9525 148.61 79.2747 148.379 79.3306C148.38 79.3306 148.381 79.3306 148.383 79.3306ZM168.495 1.5223C168.499 1.52849 168.505 1.53121 168.513 1.53087C168.507 1.5285 168.502 1.5242 168.495 1.5223ZM214.814 21.4893C214.803 21.4801 214.791 21.4752 214.781 21.4763C214.791 21.4798 214.802 21.487 214.814 21.4893ZM136.443 79.9499C135.88 80.6449 134.581 80.2753 135.607 79.9316C135.665 79.9135 136.307 79.9513 136.443 79.9499Z" fill="black"/>
<path d="M169.911 1.03622H213.411L113.911 169.536H44.4111L169.911 1.03622Z" fill="white"/>
<path d="M121.542 150.721C118.07 156.542 114.802 162.332 111.533 168.132L113.911 166.774C107.513 166.903 101.107 167.036 94.5707 167.037C78.0109 167.038 61.1874 166.509 44.589 166.607C44.5297 166.608 44.4704 166.608 44.4111 166.609L46.7591 171.285C56.5023 158.039 66.2583 144.704 75.957 131.391C85.7016 118.015 95.4052 104.64 105.111 91.2245C114.795 77.8376 124.483 64.4088 134.147 50.9906C140.711 41.8766 147.278 32.7491 153.835 23.6313C156.714 19.6287 159.583 15.6376 162.46 11.6367C164.605 8.65184 166.751 5.66692 168.897 2.68199C169.195 2.26698 169.459 1.8531 169.63 1.52998C169.8 1.20682 169.864 1.00044 169.804 0.956241C169.743 0.912217 169.563 1.03345 169.301 1.29035C169.04 1.5472 168.719 1.91972 168.407 2.32449C166.145 5.26136 163.883 8.19821 161.62 11.135C159.108 14.3972 156.599 17.6534 154.087 20.9149C153.946 21.6175 153.601 22.4697 152.688 23.8675C152.222 24.5809 151.498 25.5885 150.907 26.287C150.376 26.9142 149.934 27.3552 149.514 27.7738C149.075 28.2116 148.658 28.627 148.185 29.2099C147.384 30.1991 146.558 31.0909 145.69 32.0274C145.374 32.3682 145.052 32.7153 144.725 33.0751C142.328 36.1889 139.931 39.3033 137.535 42.4175C136.655 43.6541 135.843 44.7888 135.125 45.7306C134.482 46.5754 133.849 47.3166 133.207 48.0449C132.836 48.527 132.465 49.0092 132.094 49.4914C129.701 52.6035 127.308 55.7173 124.915 58.8316C123.15 61.3377 121.296 63.9608 118.829 67.3303C117.767 68.7825 116.741 70.2329 115.756 71.6271C114.3 73.6865 112.931 75.6237 111.653 77.265C110.8 78.362 109.961 79.5604 109.125 80.7558C108.003 82.359 106.883 83.9592 105.731 85.3081C105.007 86.1562 104.324 86.922 103.692 87.6312C102.686 88.7596 101.806 89.7453 101.088 90.6962C99.7391 92.4824 98.5034 93.9793 97.4143 95.2985C96.1044 96.8851 95.0057 98.2158 94.1762 99.4851C94.0504 99.6775 93.9086 99.8993 93.7491 100.149C92.9084 101.466 91.5638 103.571 89.348 106.381C88.559 107.382 87.7713 108.287 86.9996 109.173C85.8762 110.462 84.7853 111.715 83.771 113.171C83.6195 113.389 83.4826 113.632 83.358 113.853C83.1996 114.135 83.0611 114.38 82.9371 114.495C82.5735 114.83 82.0316 115.389 81.4428 115.995C81.0103 116.44 80.5517 116.913 80.1202 117.342C77.3344 120.997 74.5498 124.654 71.7665 128.314C70.4914 129.991 69.2163 131.668 67.9413 133.347C67.4078 134.293 66.8486 135.251 66.2285 136.241C65.4176 137.535 64.2693 139.14 62.7892 141.208C61.7002 142.73 60.4309 144.504 58.9838 146.591C56.3049 150.454 53.3938 154.302 51.4783 156.732C51.0732 157.246 50.665 157.761 50.2283 158.313C48.5715 160.404 46.5038 163.014 42.6397 168.019C42.6074 168.061 42.5751 168.103 42.5428 168.145L39.7928 171.908L44.4111 171.866C50.3225 171.967 55.352 171.994 59.1386 172.014C61.0887 172.024 62.7095 172.032 63.9516 172.048C66.0765 172.076 68.6861 172.101 71.3055 172.125C75.405 172.164 79.5302 172.202 81.8655 172.254C82.6968 172.272 83.5693 172.294 84.5114 172.319C87.122 172.386 90.2756 172.466 94.6221 172.513C99.1847 172.562 102.013 172.529 104.951 172.456C106.145 172.427 107.198 172.31 108.283 172.189C109.823 172.018 111.43 171.839 113.603 171.893C113.704 171.895 113.807 171.898 113.911 171.902L115.289 171.886L115.948 170.739C116.172 170.388 116.414 170.023 116.664 169.645C117.239 168.776 117.861 167.837 118.425 166.833C118.622 166.482 118.774 166.161 118.924 165.847C119.089 165.501 119.25 165.162 119.464 164.796C120.263 163.429 121.053 162.107 121.755 160.932C122.66 159.417 123.42 158.146 123.863 157.341C124.653 155.906 125.601 154.387 126.562 152.849C127.295 151.674 128.037 150.487 128.72 149.318C130.672 145.976 133.451 141.436 136.36 136.785C137.461 135.025 138.292 133.475 139.357 131.488C140.02 130.252 140.773 128.847 141.737 127.118C142.284 126.137 142.823 125.352 143.322 124.624C143.782 123.954 144.208 123.333 144.575 122.654C144.899 122.055 145.025 121.629 145.144 121.225C145.276 120.775 145.401 120.351 145.783 119.746C145.986 119.423 146.269 119.052 146.604 118.61C146.737 118.436 146.879 118.249 147.027 118.051C147.001 118.05 146.983 118.043 146.97 118.036C146.879 117.983 147.202 117.325 147.52 116.68C147.647 116.423 147.774 116.167 147.871 115.953C148.232 115.165 149.049 113.752 149.687 112.681C149.956 112.227 150.171 111.799 150.422 111.299C150.645 110.856 150.896 110.356 151.239 109.731C151.434 109.375 151.566 109.091 151.675 108.856C151.754 108.686 151.822 108.541 151.893 108.412C151.955 108.301 152.033 108.227 152.121 108.145C152.185 108.086 152.254 108.021 152.325 107.935C152.496 107.727 152.68 107.439 152.791 107.226C152.842 107.127 152.876 107.046 152.91 106.965C152.95 106.871 152.989 106.778 153.056 106.656C153.36 106.097 153.704 105.582 154.062 105.046C154.455 104.458 154.865 103.844 155.256 103.122C155.379 102.895 155.5 102.647 155.617 102.407C155.739 102.155 155.859 101.911 155.971 101.71C156.426 100.893 156.938 100.175 157.408 99.5137C157.722 99.0742 158.017 98.6594 158.265 98.259C158.719 97.525 159.033 97.1719 159.264 96.9117C159.384 96.7768 159.482 96.6669 159.566 96.5408C159.635 96.4199 159.704 96.2971 159.771 96.1768C159.83 96.0645 159.89 95.9484 159.955 95.8438C159.96 95.8359 159.964 95.8282 159.969 95.8204C160.343 95.1445 160.702 94.4757 161.058 93.8111C161.859 92.3184 162.649 90.8439 163.581 89.3417C163.782 89.018 164.012 88.7028 164.245 88.3823C164.531 87.9895 164.824 87.5876 165.077 87.152C165.681 86.1136 166.244 85.0383 166.799 83.9791C167.634 82.3861 168.449 80.8292 169.354 79.4895C169.653 79.0473 169.963 78.6272 170.275 78.2061C170.449 77.9714 170.624 77.7355 170.796 77.4956C170.722 77.5242 170.665 77.5292 170.612 77.5339C170.502 77.5435 170.409 77.552 170.209 77.7625C169.737 78.26 169.17 78.8048 169.08 78.6541C169.056 78.6132 169.006 78.6054 168.955 78.599C168.828 78.5828 168.699 78.566 168.968 78.004C169.149 77.6251 169.623 76.6569 170.048 76.1139C170.141 75.9957 170.22 75.9374 170.309 75.8724C170.468 75.7557 170.656 75.6167 171.004 75.0697C171.063 74.9776 171.126 74.8771 171.191 74.7731C171.45 74.3583 171.74 73.8938 171.897 73.7493C172.079 73.5829 172.124 73.6681 172.177 73.7673C172.246 73.8966 172.327 74.0504 172.74 73.7042C172.821 73.6355 172.929 73.4765 173.011 73.3564C173.068 73.2718 173.112 73.2072 173.125 73.2058C173.14 73.2046 173.146 73.2455 173.152 73.2976C173.176 73.4814 173.217 73.8011 173.764 72.8912C173.912 72.6451 174.071 72.3574 174.214 72.0994C174.424 71.7191 174.598 71.4034 174.65 71.3783C174.67 71.369 174.688 71.3647 174.706 71.3625C174.878 71.0629 175.05 70.7633 175.223 70.4637C175.415 70.0622 175.734 69.5281 176.133 68.8614C176.23 68.6996 176.331 68.5289 176.437 68.3514C176.777 67.7601 177.117 67.1685 177.457 66.5772C177.717 66.1032 177.987 65.5941 178.259 65.0494C178.805 63.9582 179.223 62.9749 179.631 62.0143C179.803 61.6095 179.973 61.2083 180.151 60.8045C180.059 60.9482 179.974 61.0769 179.904 61.1737C179.43 61.8361 179.143 62.045 178.879 62.2369C178.704 62.3646 178.538 62.4852 178.335 62.7265C177.962 63.1685 177.894 63.0621 177.844 62.9838C177.818 62.9432 177.796 62.911 177.739 62.9656C177.694 63.0097 177.615 63.1274 177.534 63.2488C177.463 63.3546 177.39 63.4639 177.335 63.5293C176.675 64.3234 176.749 64.0109 176.856 63.5564C176.915 63.3057 176.983 63.0126 176.945 62.837C176.891 62.6737 176.84 62.6873 176.524 63.1211C176.68 62.7303 176.837 62.3394 176.994 61.9485C177.08 61.81 177.177 61.7237 177.323 61.6076C177.583 61.4002 178.135 60.5507 178.566 59.887C178.766 59.5798 178.94 59.3123 179.047 59.1665C179.616 58.3919 179.591 58.6999 179.568 58.971C179.556 59.1203 179.544 59.258 179.634 59.1981C179.672 59.1727 179.659 59.2335 179.646 59.2949C179.636 59.3423 179.625 59.391 179.638 59.4008C179.733 59.4716 180.097 59.0287 180.433 58.6179C180.626 58.3826 180.811 58.1583 180.932 58.0457C180.969 58.0114 181.001 57.9857 181.031 57.962C181.076 57.9272 181.119 57.8931 181.174 57.8326C181.3 57.6949 181.514 57.384 181.748 57.0432C181.868 56.8684 181.994 56.6859 182.115 56.5152C182.273 56.294 182.363 56.2337 182.457 56.1699C182.523 56.1247 182.593 56.0771 182.689 55.9714C182.863 55.78 183.14 55.3487 183.397 54.9485C183.509 54.7742 183.617 54.6058 183.712 54.4655C183.75 54.4084 183.774 54.3841 183.787 54.3834C184.215 53.7305 184.626 53.1081 185.027 52.5026C187.035 49.4667 188.773 46.8389 191.062 42.7338C191.494 41.9577 191.983 41.1384 192.489 40.3174C194.017 37.6385 195.544 34.9575 197.07 32.2782C197.289 31.6987 197.591 31.0107 197.98 30.2142C198.711 28.7184 199.555 27.2342 200.55 25.4828C201.287 24.188 202.106 22.7469 203.024 21.0462C204.567 18.1889 206.171 15.2666 208.036 12.0016C209.892 8.7508 212.037 5.04025 213.566 2.4223C213.752 2.1044 213.936 1.78075 214.118 1.45378L214.841 0.200659L213.411 0.215025C212.105 0.247647 210.776 0.320352 209.519 0.389079C207.243 0.513457 205.201 0.624934 203.954 0.463288C203.556 0.41163 203.171 0.321945 202.796 0.234814C202.529 0.17276 202.266 0.112159 202.009 0.0670223C201.322 0.0810397 200.635 0.0949059 199.948 0.109062C198.728 0.216783 196.832 0.332277 194.999 0.212149C194.291 0.226993 193.582 0.241766 192.897 0.256747C191.404 0.288085 189.943 0.319825 188.468 0.351792C187.987 0.362364 187.501 0.372952 187.014 0.383596C187.009 0.383718 187.004 0.38384 187 0.383961C186.019 0.405387 185.031 0.42696 184.059 0.448665C183.643 0.457926 183.227 0.467187 182.81 0.476448C181.752 0.49995 180.687 0.523536 179.64 0.547366C179.086 0.560039 178.526 0.572615 177.966 0.585384C177.056 0.6061 176.14 0.626929 175.229 0.647895C173.755 0.681789 172.287 0.71607 170.818 0.750617C170.577 0.75633 170.346 0.774255 170.176 0.801429C170.007 0.82865 169.911 0.862771 169.911 0.897937C169.911 0.933117 170.008 0.967323 170.178 0.994444C170.348 1.02147 170.579 1.03896 170.819 1.04453C172.291 1.07813 173.76 1.11137 175.235 1.14432C176.146 1.1647 177.062 1.18525 177.972 1.20537C178.532 1.21778 179.091 1.22998 179.646 1.24229C180.693 1.26544 181.76 1.28857 182.818 1.31138C183.234 1.3204 183.651 1.32942 184.067 1.33843C185.041 1.35956 186.032 1.38047 187.016 1.40131C187.022 1.40143 187.028 1.40155 187.033 1.40168C187.517 1.41193 188 1.4222 188.478 1.43238C189.953 1.4634 191.415 1.49413 192.909 1.5245C193.681 1.5409 194.485 1.55692 195.284 1.57312C195.728 1.58214 196.172 1.59121 196.608 1.60017C196.846 1.60495 197.088 1.60968 197.33 1.61443C202.7 1.72277 208.033 1.82715 213.411 1.92744L212.644 0.583068C212.538 0.754489 212.433 0.925966 212.327 1.0975C209.409 5.83403 206.491 10.5812 203.584 15.3161C200.67 20.0626 197.765 24.8028 194.861 29.5487C176.428 59.6685 158.01 89.9608 139.732 120.353C137.125 124.688 134.453 129.139 131.848 133.486C129.214 137.881 126.637 142.188 124.003 146.599C123.203 147.938 122.383 149.312 121.542 150.721Z" fill="black"/>
</svg>
