<svg width="216" height="287" viewBox="0 0 216 287" fill="none" xmlns="http://www.w3.org/2000/svg">
<path d="M2.1084 78.0362V8.53622L102.108 171.799L95.1084 274.536L2.1084 78.0362Z" fill="white"/>
<path d="M98.3964 269.699C98.2838 271.368 98.1708 273.048 98.0574 274.737L97.3266 286.041L92.4367 275.801C82.9313 255.771 72.6714 234.261 63.3678 214.342C62.1384 211.71 62.4054 211.803 62.0808 211.055C61.194 209.01 60.4053 207.899 59.7263 206.423C56.4249 199.251 53.2965 192.562 50.0521 185.528C46.7099 178.283 48.8905 181.427 47.8425 178.856C45.7956 173.832 47.0282 178.346 45.9517 176.5C43.3397 170.866 40.7398 165.166 38.1597 159.505C38.8783 160.845 39.5955 162.186 40.3161 163.544C39.1715 161.086 37.6255 157.525 39.7607 161.537C39.3845 160.605 39.0459 159.729 38.6566 158.772C38.2668 158.644 36.1917 154.315 35.8446 153.994C35.4978 153.673 36.689 156.096 36.6679 156.087C36.3928 156.019 31.9283 145.884 31.6089 145.152C30.7649 143.216 31.8898 144.731 31.1002 143.118C29.7424 140.344 29.9444 142.525 29.0575 138.32C28.0533 136.955 28.1433 136.752 27.2627 134.839C27.1466 134.587 27.0691 134.862 27.0125 134.754C25.523 131.932 26.8865 133.998 26.8965 133.974C27.0628 133.576 25.4705 130.545 25.1901 129.88C21.6685 121.543 19.0688 115.443 15.0674 106.781C14.2021 104.908 11.397 99.2858 10.5925 97.4583C9.79907 95.656 10.4599 96.5116 10.1196 95.5329C8.91017 94.2783 8.18076 92.8805 6.92606 89.3726C5.96863 88.2984 6.34054 88.3189 5.13581 85.9632C4.13336 84.0023 2.05217 80.7431 1.39089 78.3758C2.54503 80.9027 2.60219 80.5574 4.04873 83.3324C4.53005 84.2562 9.18131 94.0639 9.21076 93.1564C9.22597 92.683 7.50745 89.5162 7.48399 89.3735C7.34773 88.5424 8.46485 90.2352 9.13572 91.8866C8.9036 91.5058 8.63198 91.0431 8.38563 90.6322C9.83315 94.3697 9.66552 91.4077 10.084 94.5709C10.1366 94.9615 9.96165 94.8833 10.1117 95.4974C10.2136 95.5899 10.0073 94.8495 10.3075 95.4292C10.6135 96.0208 10.9306 97.2689 11.1996 97.3501C11.5941 97.475 10.3065 95.0336 10.2338 94.8385C10.2312 94.8373 10.2286 94.8361 10.226 94.8349C9.58665 93.1078 11.2423 96.5631 11.3465 96.7162C12.0243 97.7067 11.81 96.914 12.7119 98.4548C13.2262 99.3338 14.2845 101.692 14.7184 102.542C15.1503 103.386 14.6493 101.992 14.9498 102.555C15.2504 103.118 15.4915 103.882 15.844 104.544C15.9952 104.826 16.1328 104.743 16.2042 104.881C16.9712 106.358 16.2039 105.514 16.8673 106.868C17.2974 107.746 18.9804 110.577 18.0971 108.494C18.5909 109.463 19.0654 110.41 19.5506 111.376C19.302 110.74 19.0298 110.089 18.7959 109.464C19.5971 111.335 20.2382 112.05 20.8019 113.193C21.3658 114.337 21.5579 115.511 22.3027 116.71C23.8916 119.271 20.5778 112.637 20.2391 111.779C20.1073 111.445 20.9291 112.579 21.0265 112.768C21.4586 113.606 21.7691 114.692 22.0873 115.345C23.2275 117.682 24.1281 119.017 25.2325 121.236C28.9929 128.792 33.5932 138.197 37.0614 145.4C38.3528 148.083 38.8724 149.819 39.451 151.024C40.8048 153.841 41.1837 154.086 42.3616 156.545C44.1155 160.205 46.3736 165.462 47.7823 168.543C48.7577 170.676 49.8741 172.496 50.1401 173.045C53.8413 180.673 58.2483 189.996 61.256 196.345C62.6705 199.33 63.1079 200.859 63.4066 201.473C64.6903 204.109 64.5538 203.304 65.5507 205.463C66.0895 206.629 66.0003 206.937 66.0663 207.096C66.6505 208.494 67.0301 208.647 67.5435 209.711C70.4962 215.827 73.1307 221.818 75.9835 227.908C76.1903 228.349 76.0607 228.363 76.2016 228.646C76.8094 229.86 76.7144 229.207 77.3338 230.482C78.6228 233.136 79.8896 235.887 81.2052 238.724C81.3355 239.005 81.2523 239.198 81.5554 239.839C81.859 240.48 82.2244 240.903 82.6935 241.913C83.9191 244.553 84.986 247.226 86.2959 250.017C86.5128 250.479 86.9552 250.968 87.2806 251.661C88.3019 253.833 89.6663 257.12 90.5406 258.982C92.9091 264.024 95.204 268.709 97.4635 273.422L92.5089 274.359C92.5806 273.221 92.6545 272.083 92.7321 270.94C92.8343 269.442 93.1006 268.126 93.1579 267.346C93.2867 265.589 93.0302 266.904 93.1508 265.123C94.1379 250.575 95.2084 235.976 96.1981 221.256C96.587 215.475 96.8945 208.428 97.3226 202.844C97.5012 200.522 97.7596 200.117 97.8737 198.474C98.0761 195.544 97.8177 194.992 97.999 191.899C98.1441 189.43 98.6307 186.623 98.7875 184.055C98.9442 181.487 98.7393 180.283 98.9059 177.333C98.9991 175.687 99.1945 173.606 99.3604 171.612L99.7596 173.238C99.2734 172.417 98.7933 171.616 98.3406 170.889C85.4919 150.282 72.9016 129.952 60.3304 108.999C55.8947 101.606 50.8635 93.4705 46.4497 85.7257C46.0353 84.9982 46.9397 85.9454 45.4887 83.6878C44.709 82.475 43.4547 80.8833 41.7042 78.0483C31.2974 61.1918 20.695 42.9065 10.0881 25.7824C6.79018 20.4585 3.40085 15.135 -0.000374317 9.82787L4.5813 8.53622C5.07142 32.597 5.83325 56.5457 3.55215 77.3227C3.41079 78.6088 2.71806 77.9114 2.52126 77.1409C2.66191 76.4258 2.82897 75.7647 2.98781 75.0164C2.12226 74.0741 2.34763 74.2403 2.42531 70.7476C2.47355 68.5973 2.10338 70.3149 1.99831 69.1687C1.86253 67.6828 1.43497 60.7062 2.00819 62.048C1.90881 61.6156 1.81361 61.2164 1.71632 60.7951C1.62953 55.7443 1.48602 50.8372 1.32155 45.8973C1.2928 45.044 1.11293 45.0046 1.08424 44.1232C1.00588 41.756 1.12404 39.8766 1.10585 37.4372C1.09605 36.1121 0.888203 35.9283 0.901501 34.1929C0.914882 32.4586 1.19546 32.4965 0.890515 30.1303C0.538469 31.6716 0.793914 24.7962 0.772228 22.351C0.769429 21.9962 0.453159 19.0858 0.489512 17.5388C0.525203 15.9866 0.727243 13.6302 0.61256 11.2298C0.563732 10.2101 0.356949 9.55364 0.3081 8.53622L0.283089 2.15741L3.6436 7.5959C3.70304 7.68323 3.76305 7.77475 3.82376 7.87135C4.27806 8.5943 4.62706 9.58325 5.18395 10.5099C5.74064 11.4362 7.11527 13.3364 7.3416 13.7002C8.15955 15.0129 7.13712 13.6383 7.68298 14.5443C10.3202 18.9169 13.3486 24.0191 16.0664 28.2579C16.4003 28.7791 16.1077 27.9542 16.1558 28.0211C18.5401 31.4878 17.1672 29.6988 17.6214 30.7511C18.0615 31.7703 22.3353 38.5838 22.6351 38.4697C22.4275 38.8865 23.6184 40.2536 23.8708 40.6435C24.8529 42.1612 24.3765 42.0373 25.3815 43.476C25.7501 44.004 25.2932 42.8161 25.6483 43.4088C26.5259 44.8737 27.0123 46.3779 28.1679 48.3356C28.4468 48.8084 28.6809 48.8742 29.1858 49.7093C29.6912 50.5453 31.6578 54.143 30.9678 52.3495C32.027 54.6133 32.4188 54.9596 33.921 57.4268C34.3012 58.052 34.5662 58.9944 35.45 60.2792C35.7489 60.7137 35.9597 60.5664 36.3756 61.2414C37.3271 62.7843 37.9926 64.3794 39.1853 66.3468C41.4152 70.0262 43.9666 73.8342 46.2527 77.6938C46.8739 78.7429 46.4949 78.6181 47.4167 80.1326C47.5528 80.3548 48.8584 82.0593 49.4805 83.1151C49.855 83.7505 51.7169 87.0906 52.1087 87.7544C52.757 88.8516 53.0887 88.9153 53.4117 89.536C54.3458 91.3304 53.1869 90.1417 54.8838 91.95C55.0633 92.7763 55.8283 93.9719 55.7733 94.5387C56.5252 95.0468 56.7769 96.1489 57.721 97.4493C58.6654 98.75 59.9723 99.4901 59.5071 100.23C59.9792 100.819 61.7833 103.453 62.0744 103.905C62.9309 105.24 62.3035 104.63 62.9532 105.635C63.0674 105.812 63.0785 105.546 63.7721 106.707C64.227 107.468 67.6142 113.015 67.7996 113.357C69.9148 117.254 66.4139 111.376 65.777 110.643C65.7246 110.477 65.6733 110.312 65.6145 110.137C64.6521 108.432 64.9486 109.556 65.3457 110.353C65.7428 111.15 66.7357 112.486 67.0272 113.172C67.172 113.514 66.711 113.53 66.172 112.557C66.6875 113.635 65.7282 112.319 65.8748 112.781C66.0362 113.288 68.7932 117.864 68.9966 117.773C68.4819 116.918 67.8267 115.863 67.3075 114.998C66.9459 113.672 70.1584 116.404 71.6314 119.813C72.7006 122.285 70.1474 118.694 73.7141 123.907C73.2205 123.072 72.8225 122.353 72.3758 121.593C72.5725 121.363 73.0492 122.748 73.5125 123.328C73.7357 123.607 72.7696 121.639 73.8174 123.22C74.3173 124.825 75.3258 125.678 76.7576 128.006C76.2982 127.397 75.8386 126.786 75.3792 126.177C77.5366 130.271 71.8496 121.175 76.3976 128.921C75.8218 128.006 75.2632 127.087 74.6786 126.172C74.8246 126.7 74.0061 126.213 74.1722 126.664C74.608 127.847 75.6898 129.329 76.4588 130.626C76.7957 131.193 76.4798 130.907 76.5081 130.954C76.9688 131.732 77.0143 131.47 77.438 132.14C77.971 132.984 79.3305 135.53 79.5911 135.918C80.2648 136.923 79.5092 135.026 79.5921 135.111C80.1378 135.681 80.8412 137.096 80.9853 136.911C78.8783 133.76 73.3428 124.351 78.81 132.582C77.6908 130.075 78.5186 130.49 80.5958 133.808C82.3145 136.552 81.0561 134.873 81.7526 136.422C81.8434 136.622 84.0206 140.374 84.2666 140.484C83.8765 140.519 84.3486 141.885 83.5452 141.267C83.4274 141.176 82.5158 139.648 82.5918 140.329C82.6292 140.67 82.8232 141.596 82.5894 141.571C82.8909 141.816 83.2149 142.066 83.5241 142.312C84.9492 144.566 85.0282 144.962 85.5839 146.332C85.6351 146.223 85.2925 144.852 86.2513 146.664C86.2996 146.758 86.2174 146.915 86.696 147.84C87.6645 149.711 87.8535 150.11 86.6305 148.968C89.1204 152.545 89.1857 153.604 91.6405 157.333C91.6664 156.277 90.7259 155.014 88.4974 151.587C88.5211 151.364 88.5928 151.223 88.6149 150.995C91.1917 155.794 89.8149 153.486 91.6605 155.969C92.1123 156.576 94.1503 160.043 93.779 158.697C93.6911 158.379 92.3775 156.255 92.6493 156.424C92.7015 156.457 94.3468 159.01 94.455 159.258C95.8202 162.362 92.4125 157.408 97.3874 165.211C97.5247 165.426 97.7139 165.415 97.994 165.828C98.5203 166.604 98.3614 166.715 98.8365 167.405C99.3119 168.096 100.14 168.949 100.592 170.148C101.42 172.339 98.3702 167.842 97.3057 165.659C96.8117 165.394 98.7568 168.849 100.926 172.523L100.725 171.705C100.356 176.067 100.045 180.753 100.033 181.295C99.9287 185.971 100.334 178.205 100.52 177.816C100.598 177.655 101.442 177.795 101.025 175.795C100.901 175.203 100.52 177.616 100.529 176.161C100.538 174.705 100.749 175.297 100.773 175.193C100.858 174.836 100.87 173.289 100.919 173.091C101.058 172.525 101.199 172.076 101.327 171.746L101.441 172.208C101.2 171.261 101.402 171.114 101.811 171.981L101.761 171.775C101.663 172.323 101.424 173.191 100.982 174.385C101.132 176.179 101.843 172.133 101.877 174.352C101.918 177.05 101.397 178.982 101.357 179.318C100.875 183.346 101.758 178.724 101.241 183.649C100.953 186.391 101.145 179.509 100.754 185.79C100.428 191.047 100.818 188.222 101.239 188.634C101.338 188.732 101.27 191.62 101.491 187.696C101.382 187.577 101.243 187.358 101.152 187.101C101.303 186.145 101.996 184.582 102.051 184.073C102.318 181.585 102.007 181.685 102.464 180.238C102.002 181.262 102.354 179.568 102.315 178.921C102.174 176.518 101.848 179.634 102.602 174.313C102.372 174.997 102.15 175.616 101.921 176.278C101.959 175.636 101.996 174.994 102.033 174.352C102.502 173.422 102.682 170.011 102.878 173.125C102.923 172.671 102.962 172.25 102.997 171.86L103.014 171.567L102.868 171.334C101.45 168.91 100.713 167.901 100.105 167.435C99.9726 167.334 99.6602 166.87 99.3123 166.313C99.3018 166.465 99.1521 166.743 99.0694 166.672C98.3349 166.037 98.0189 164.547 98.44 164.863C98.2081 164.466 98.0274 164.151 97.9644 164.039C97.565 163.329 98.548 164.598 98.2548 164.004C98.1579 163.808 96.9277 161.873 96.9654 161.798C97.2112 161.323 98.9006 164.713 95.1696 158.113C94.7189 158.174 96.6352 161.128 95.786 160.588C94.874 160.009 94.3838 157.988 93.6608 157.924C93.6585 157.737 93.6896 157.635 93.7103 157.459C91.8925 154.978 92.2854 154.69 91.8876 153.835C91.1162 152.175 86.7224 145.062 90.2848 151.683C89.6756 150.769 89.0736 149.823 88.4715 148.911C89.0836 148.244 89.1356 148.992 86.5009 144.436C85.9208 143.433 86.0502 142.911 85.0689 142.18C85.53 142.078 83.5101 139.297 83.3893 138.996C82.618 137.063 87.0142 143.302 86.8518 144.546C87.7852 145.482 87.4367 145.69 88.2323 146.886C89.3816 148.614 89.5994 148.818 90.6298 151.074C92.2552 152.92 85.8338 142.889 90.0818 148.752C92.0585 151.48 97.9258 160.663 104.159 170.543L104.553 171.172L104.508 171.962C103.773 185.372 102.9 199.811 102.588 205.048C101.531 222.786 100.995 232.114 99.8851 248.038C99.776 249.608 99.0084 261.47 98.6897 258.972C98.644 258.613 98.8065 253.5 98.1264 257.849C98.4126 256.975 98.3837 259.557 98.3928 259.774C98.5945 264.762 98.9218 261.905 98.3964 269.699ZM88.6256 257.57C92.8866 266.833 89.977 259.923 91.5486 261.523C90.9907 260.339 90.4348 259.16 89.877 257.976C89.9822 258.307 90.0858 258.633 90.1911 258.963C90.1917 258.965 90.1923 258.966 90.193 258.967C89.6712 258.503 89.1474 258.034 88.6256 257.57ZM17.7708 106.708C18.0286 107.026 18.2845 107.34 18.5546 107.689C19.1037 108.92 19.651 110.145 20.2001 111.376C20.0719 111.258 19.9453 111.147 19.8171 111.029C19.1379 109.588 18.4611 108.151 17.7708 106.708ZM96.4701 164.499C95.7037 162.732 95.3835 163.13 94.2469 160.855C94.1065 161.305 93.9907 161.78 93.8619 162.242C94.914 163.86 95.258 164.163 96.2783 165.995C96.2481 165.727 96.2156 165.454 96.1889 165.191C95.9859 164.907 95.7683 164.605 95.5734 164.328C95.5647 163.703 97.3538 166.533 96.4742 164.504C96.4728 164.502 96.4714 164.501 96.4701 164.499ZM86.1403 147.908C85.6439 147.009 83.6696 143.453 83.2546 143.057C81.8479 141.714 88.1058 151.326 83.3146 144.352C83.2752 144.421 83.1966 144.424 83.1375 144.46C83.9217 145.787 84.7063 147.109 85.5004 148.443C85.6921 148.228 85.9532 148.133 86.1403 147.908ZM94.9584 255.715C95.1038 254.145 95.3808 246.631 94.8994 249.054C94.7583 249.767 94.9806 253.145 94.8744 254.416C94.8056 255.239 94.6216 254.298 94.6016 255.931C94.7153 255.866 94.839 255.83 94.9579 255.711C94.9581 255.712 94.9582 255.714 94.9584 255.715ZM96.1944 258.762C96.2612 257.133 96.3178 255.481 96.3826 253.84C96.0198 255.016 96.0404 257.379 95.635 257.49C95.6355 257.04 95.6358 256.596 95.6364 256.146C95.7463 255.809 95.8559 255.477 95.9655 255.146C95.8461 253.726 95.6813 254.57 95.9217 251.958C95.2155 253.499 94.8743 253.771 95.1744 258.293C94.9074 257.424 93.7951 258.149 94.382 260.684C94.4907 261.158 94.7167 259.224 94.7405 259.203C95.0387 258.924 95.1426 260.012 95.4269 259.71C95.5554 259.574 95.6342 258.391 95.8111 258.225C95.8971 258.149 96.0497 259.29 96.1944 258.762ZM94.5647 261.907C94.4307 261.393 93.9142 263.086 93.8934 264.584C93.8604 266.922 94.4905 263.275 94.5647 261.907ZM17.7666 106.7C17.768 106.703 17.7694 106.706 17.7708 106.708C17.7698 106.707 17.7688 106.706 17.7679 106.705C17.7675 106.703 17.7671 106.702 17.7666 106.7ZM88.7364 152.52C87.9829 151.564 87.0664 150.028 86.941 150.26C86.6722 149.735 86.3994 149.205 86.1307 148.681C86.0751 148.721 86.0223 148.767 85.9674 148.807C86.8547 150.337 87.7391 151.863 88.6258 153.394C88.6663 153.109 88.7161 152.838 88.7364 152.52ZM78.8093 136.007C77.668 134.099 78.3768 135.851 77.9943 135.513C77.6118 135.175 76.6813 133.423 76.6197 133.733C77.296 134.854 78.0016 136.022 78.6872 137.156C78.7041 136.736 78.7797 136.404 78.807 136.003C78.8078 136.004 78.8086 136.006 78.8093 136.007ZM71.0457 219.854C71.63 221.246 71.1528 220.791 72.677 223.364C72.676 223.361 72.6751 223.359 72.6741 223.357C71.6374 220.714 70.2334 217.344 68.7264 214.598C69.3188 216.433 70.1256 217.665 71.0457 219.854ZM98.6289 169.361C99.1214 169.806 97.7062 167.195 97.2159 166.728C96.4225 165.973 97.8792 168.682 98.6289 169.361ZM43.4893 165.513C41.9861 163.687 43.2597 167.893 45.4597 171.887C45.6503 172.232 44.5592 169.498 45.0334 170.236C45.0811 170.311 45.7587 171.775 46.002 172.101C46.2455 172.428 46.2351 171.969 46.5858 172.527C47.2007 173.506 48.0811 175.959 48.6112 176.659C48.6814 176.751 48.219 175.19 48.1844 175.095C47.6143 173.537 46.638 172.237 46.5268 172.008C45.9546 170.825 46.271 170.895 46.1831 170.568C46.0174 169.953 45.4432 169.005 45.4176 168.931C44.7674 167.032 46.6586 171.179 47.0054 171.695C47.9396 173.087 47.4925 171.601 49.3202 175.134C49.4937 175.469 51.4131 179.56 49.2362 174.29C54.5596 184.141 47.1401 169.067 46.2409 167.474C45.826 166.74 46.1501 167.995 45.8326 167.581C45.1075 166.637 44.2184 164.862 43.9742 165.173C43.465 165.838 45.021 167.985 45.6762 169.662C45.4494 169.561 45.2761 169.563 44.9837 169.315C45.406 169.711 43.5997 165.645 43.4906 165.513C43.4902 165.513 43.4897 165.513 43.4893 165.513ZM56.3669 190.734C57.2383 193.1 57.5871 192.739 58.3284 194.933C59.5779 196.587 57.8402 192.981 57.6623 192.55C56.8478 190.58 57.2835 190.428 56.2241 188.52C56.2989 189.312 56.3118 189.981 56.3669 190.734ZM47.1968 170.905C48.1304 172.322 46.8409 169.607 46.8299 169.477C46.6983 168.071 50.4639 176.246 47.1968 170.905ZM96.5668 246.018C96.6409 245.168 96.3768 245.692 96.3608 244.937C96.3443 244.18 96.714 241.622 96.5682 241.677C96.4219 241.734 95.7333 246.421 95.9759 241.686C95.8855 241.84 95.8298 241.782 95.7526 241.855C95.6619 243.155 95.5691 244.466 95.4784 245.766C95.756 245.068 96.0468 244.353 96.3148 243.682C96.4474 244.425 96.1856 244.819 96.183 244.858C96.1832 244.858 96.1835 244.858 96.1837 244.858C96.1094 246.22 96.4008 247.928 96.5668 246.018ZM79.6625 239.098C79.0378 239.112 80.4745 240.658 80.8918 241.375C81.3088 242.091 81.6035 243.207 81.6429 242.717C81.2244 241.437 79.7319 239.096 79.6618 239.099C79.662 239.099 79.6623 239.098 79.6625 239.098ZM62.205 203.067C63.2308 204.91 63.2218 204.545 64.1707 206.945C64.2526 206.796 64.3372 206.645 64.4173 206.497C63.5447 204.647 63.2444 204.948 62.3773 202.74C62.2353 202.378 62.8797 202.992 62.0377 201.453C62.1015 201.987 62.1512 202.534 62.205 203.067ZM67.1306 212.279C66.0774 210.103 64.2488 208.847 66.6082 212.656C66.9584 213.22 67.9228 213.915 67.1306 212.279ZM95.0792 268.266C95.3908 264.166 94.8936 268.814 94.6498 269.871C95.1637 260.311 94.6232 270.952 93.9893 271.866C94.0718 273.044 94.2935 275.253 94.558 272.834C94.6682 271.824 94.4736 272.182 94.4785 272.122C94.6474 270.26 94.9091 270.505 95.0792 268.266ZM54.4751 186.801C54.5491 186.938 54.6193 186.636 54.8652 187.065C55.1111 187.495 55.4676 188.564 55.6219 188.614C55.7766 188.662 54.9004 186.596 54.5277 186.011C54.1545 185.427 53.8081 185.565 54.4751 186.801ZM60.7968 201.268C61.8009 203.065 61.0052 199.725 60.811 199.323C59.0982 195.79 61.0497 201.277 60.7968 201.268ZM93.0209 271.878C95.4671 276.204 94.4822 272.659 93.493 269.692C93.2487 269.354 92.9997 269.007 92.7584 268.673C93.9741 270.159 95.7847 272.914 92.3126 266.522C93.9147 270.162 92.3781 267.206 92.3435 267.194C91.3868 267.162 94.2633 272.316 93.019 271.874C93.0197 271.876 93.0203 271.877 93.0209 271.878ZM51.8002 180.675C50.8747 178.726 48.3426 173.72 49.1267 176.243C50.0187 177.722 50.9082 179.196 51.8002 180.675ZM101.099 196.911C101.431 195.166 101.537 193.545 101.671 191.375C101.23 193.307 101.282 192.021 101.252 191.358C101.206 190.352 101.051 192.771 101.03 192.777C100.74 192.712 100.8 191.167 100.567 194.679C100.525 193.804 100.48 192.94 100.438 192.065C100.243 194.741 100.009 195.358 99.6599 197.04C100.342 195.43 99.8373 197.576 99.9867 199.565C100.062 200.557 100.93 197.799 101.1 196.904C101.099 196.907 101.099 196.909 101.099 196.911ZM96.0951 272.772C96.0271 272.256 95.92 271.781 95.8363 271.281C95.8616 270.743 95.8885 270.205 95.9138 269.668C96.0091 269.608 96.1078 269.559 96.2003 269.487C96.2749 268.782 96.1298 269.049 96.1323 268.838C96.1328 268.838 96.1332 268.838 96.1337 268.838C96.1715 265.813 96.2745 264.58 96.7159 262.238C96.4379 262.22 96.1598 262.201 95.8818 262.182C95.8721 262.714 95.8615 263.252 95.8511 263.784C95.9813 264.077 96.1115 264.37 96.2417 264.662C96.1175 265.271 95.9942 265.873 95.8699 266.482C95.8902 266.977 95.9064 267.572 95.9297 268.002C94.9856 270.399 95.893 264.866 95.5738 264.795C95.3687 264.747 94.9956 270.356 95.0837 271.174C95.0968 271.291 95.758 270.119 95.3167 272.15C95.2502 272.455 94.087 272.492 94.7568 274.512L95.4269 274.385C95.3612 274.325 95.291 274.264 95.216 274.201C95.1052 274.107 95.0001 274.285 94.9437 274.614L95.2452 275.246L95.2902 274.549C95.5834 274.186 95.9383 273.519 96.0951 272.772ZM97.8863 252.436C96.8706 255.534 98.5103 243.955 97.5091 248.932C97.2388 247.474 97.2255 247.74 96.8005 249.161C96.7625 249.286 96.7294 248.282 96.7108 248.366C96.4387 249.703 96.4234 251.336 96.0951 251.325C96.0877 251.691 96.0799 252.035 96.0724 252.401C96.4846 250.902 96.5273 253.334 96.724 254.286C96.813 254.72 96.916 253.744 96.9949 254.109C97.0235 254.244 96.8552 255.606 96.9594 255.669C97.1959 255.802 97.5847 254.966 97.8639 253.524C97.8642 253.524 97.8644 253.524 97.8647 253.524C97.8735 253.158 97.8782 252.802 97.8863 252.436ZM75.1829 233.843C75.3539 233.168 74.5465 231.165 76.5144 234.815C76.5057 234.593 76.4938 234.365 76.4851 234.142C76.1794 233.514 75.883 232.906 75.5732 232.268C73.4808 230.903 73.1519 226.759 73.3786 229.405C73.4037 229.694 74.2142 231.143 73.2672 229.782C73.2679 229.784 73.2686 229.786 73.2693 229.788C74.3222 231.816 74.5874 232.009 75.1829 233.843ZM82.0017 247.528C85.0989 251.889 79.359 240.726 80.0316 242.726C80.092 242.906 82.5853 247.705 82.0017 247.528ZM63.1867 209.673C64.1823 211.814 64.7046 211.74 64.7667 211.447C64.8292 211.154 63.9634 209.755 63.8991 209.552C63.6904 208.89 64.3706 210.181 64.1058 209.319C64.0173 209.034 62.4202 205.239 62.3199 205.078C61.7634 204.184 62.0421 205.744 61.871 205.494C61.3126 204.679 60.9413 203.389 60.6205 203.228C59.9335 202.878 61.4376 204.899 61.6233 205.273C62.1819 206.401 61.8949 206.415 62.2501 207.29C62.605 208.164 62.9505 208.681 63.289 209.44C63.4016 209.693 63.137 209.564 63.1867 209.673ZM67.4885 216.275C66.0887 214.209 68.2828 219.814 68.6682 220.42C69.8046 222.201 68.1582 217.265 67.4885 216.275ZM96.1398 260.248C96.2623 262.517 96.8427 257.289 96.8338 255.783C96.7003 256.053 96.0976 259.467 96.1398 260.248ZM92.4341 270.635C93.399 272.473 92.7855 269.721 92.0367 268.161C91.2329 267.42 91.7144 268.248 92.1831 269.277C92.651 270.305 91.6814 269.202 92.4341 270.635ZM52.6411 186.327C52.8266 186.734 56.2169 193.107 54.5717 189.302C54.446 189.012 52.2331 184.475 52.0125 184.156C51.568 183.515 52.1643 185.277 52.6411 186.327ZM87.6328 261.904C88.4224 262.745 88.8801 263.723 88.8243 262.633C88.8236 262.632 88.823 262.63 88.8224 262.629C90.1256 265.085 89.4096 265.56 89.6822 266.094C90.6358 267.959 90.3341 265.907 91.0757 267.009C89.6 264.328 90.3437 264.945 89.3733 262.834C89.1554 262.361 88.043 260.58 87.7752 260.369C87.5077 260.159 87.5516 261.317 87.6328 261.904ZM48.2041 177.158C49.1226 179.416 50.5945 181.185 49.2327 178.095C48.5687 176.587 47.6431 175.78 48.2041 177.158ZM86.0293 143.859C86.095 144.254 86.1671 144.659 86.2485 145.077C85.7485 144.331 85.2474 143.584 84.7468 142.837C85.1581 143.418 85.5692 143.999 85.9828 144.585C85.1472 143.12 84.9781 142.32 86.027 143.855C86.0278 143.857 86.0285 143.858 86.0293 143.859ZM54.785 92.6294C54.5147 91.9107 53.3561 90.878 53.4248 91.0571C53.9435 92.4033 55.1604 93.6267 54.785 92.6294ZM97.7259 257.015C97.9791 254.223 97.1203 256.096 96.9536 257.807C97.1642 256.768 97.5822 258.6 97.7259 257.015ZM65.777 110.643C65.8549 110.89 65.934 111.14 66.0277 111.413C65.6389 110.611 65.6086 110.449 65.777 110.643ZM52.5493 187.639C52.6818 188.05 53.994 190.93 54.2394 191.287C54.7505 192.027 54.0587 189.623 53.3253 188.363C53.2445 188.224 52.4178 187.23 52.5522 187.645C52.5512 187.643 52.5503 187.641 52.5493 187.639ZM84.2869 140.479C84.2836 140.487 84.2765 140.489 84.2666 140.484C84.2738 140.483 84.2791 140.479 84.2869 140.479ZM22.6508 38.4315C22.6501 38.4521 22.6453 38.4658 22.6351 38.4697C22.6407 38.4585 22.6431 38.4412 22.6508 38.4315ZM61.5388 208.08C61.3612 209.33 62.7342 211.367 62.2241 209.486C62.1945 209.381 61.6468 208.312 61.5388 208.08Z" fill="black"/>
<path d="M94.6084 273.036L102.108 169.536H170.608L210.608 273.036H94.6084Z" fill="white"/>
<path d="M200.107 237.677C204.381 248.705 208.989 260.482 213.403 271.956L215.02 275.969L210.608 276.032C206.077 276.025 201.594 276.008 197.217 275.975C195.222 275.961 195.358 275.759 194.799 275.733C193.269 275.659 192.347 275.897 191.232 275.879C185.81 275.795 180.738 275.761 175.419 275.685C169.94 275.607 172.532 274.98 170.628 274.828C166.908 274.529 170.072 275.346 168.61 275.529C164.346 275.48 160.044 275.391 155.772 275.302C156.814 275.226 157.858 275.151 158.912 275.08C157.05 275.063 154.385 274.937 157.503 274.724C156.814 274.665 156.171 274.596 155.462 274.539C155.268 274.836 151.972 274.86 151.67 275.037C151.37 275.213 153.223 275.173 153.212 275.188C153.089 275.408 145.486 275.107 144.937 275.083C143.488 275.018 144.759 274.649 143.526 274.673C141.405 274.713 142.818 275.464 139.947 274.466C138.805 274.79 138.705 274.622 137.259 274.599C137.068 274.597 137.216 274.784 137.132 274.789C134.943 274.928 136.626 274.58 136.614 274.561C136.416 274.24 134.066 274.382 133.572 274.352C127.362 273.968 122.811 273.708 116.259 273.619C114.842 273.601 110.528 273.731 109.157 273.676C107.805 273.622 108.531 273.391 107.823 273.28C106.689 273.836 105.607 273.898 103.061 273.531C102.113 273.937 102.235 273.61 100.418 273.691C98.9067 273.758 96.2722 274.245 94.6084 273.83C96.516 273.868 96.3185 273.668 98.466 273.548C99.1809 273.508 106.636 273.5 106.081 273.085C105.791 272.869 103.321 273.067 103.225 273.027C102.669 272.795 104.048 272.509 105.271 272.609C104.966 272.656 104.599 272.704 104.272 272.751C107.017 273.041 105.129 271.926 107.215 272.901C107.473 273.02 107.373 273.145 107.799 273.272C107.886 273.219 107.366 273.089 107.814 273.066C108.271 273.042 109.139 273.29 109.268 273.081C109.462 272.778 107.568 272.897 107.426 272.88C107.424 272.882 107.423 272.883 107.421 272.885C106.161 272.724 108.792 272.706 108.918 272.677C109.732 272.488 109.177 272.343 110.398 272.187C111.095 272.098 112.87 272.15 113.525 272.122C114.176 272.092 113.163 271.949 113.601 271.918C114.039 271.887 114.584 271.996 115.098 271.961C115.318 271.945 115.307 271.785 115.413 271.779C116.555 271.718 115.806 272.05 116.842 272.03C117.513 272.017 119.765 271.706 118.213 271.614C118.959 271.582 119.686 271.558 120.429 271.533C119.96 271.486 119.477 271.453 119.02 271.397C120.417 271.473 121.049 271.2 121.924 271.179C122.8 271.159 123.585 271.488 124.548 271.327C126.604 270.986 121.513 271.144 120.881 271.083C120.634 271.059 121.58 270.802 121.726 270.795C122.373 270.762 123.139 270.946 123.637 270.938C125.423 270.907 126.517 270.664 128.218 270.615C134.014 270.449 141.203 270.314 146.693 270.261C148.738 270.241 149.968 270.514 150.886 270.506C153.033 270.488 153.296 270.25 155.169 270.237C157.956 270.218 161.882 270.426 164.209 270.47C165.819 270.501 167.277 270.271 167.696 270.265C173.518 270.183 180.601 270.188 185.425 270.185C187.694 270.184 188.771 270.442 189.24 270.435C191.254 270.403 190.714 270.181 192.347 270.204C193.229 270.216 193.394 270.428 193.512 270.436C194.551 270.506 194.758 270.229 195.569 270.22C200.233 270.167 204.726 270.349 209.344 270.376C209.68 270.378 209.65 270.501 209.867 270.494C210.358 270.478 210.47 270.417 210.608 270.361L208.113 274.001C208.021 273.903 207.924 273.784 207.752 273.356C206.994 271.478 206.274 269.526 205.522 267.514C205.448 267.315 205.561 267.169 205.385 266.715C205.21 266.26 204.937 265.969 204.669 265.253C203.969 263.38 203.424 261.476 202.67 259.497C202.545 259.17 202.212 258.834 202.024 258.343C201.436 256.803 200.717 254.464 200.213 253.144C198.552 248.79 196.901 244.818 195.317 240.724C194.945 239.761 194.78 238.845 194.59 238.343C194.162 237.211 194.336 238.123 193.894 236.98C190.28 227.64 186.727 218.237 183.062 208.791C181.623 205.081 179.716 200.625 178.374 197.021C177.817 195.522 177.927 195.169 177.521 194.113C176.797 192.23 176.389 191.996 175.595 190.021C174.961 188.446 174.534 186.524 173.881 184.883C173.227 183.241 172.666 182.584 171.902 180.704C171.274 179.154 170.553 176.931 169.878 175.241C169.251 173.673 168.626 172.107 168.002 170.543L170.608 172.33C155.66 172.488 140.868 172.562 125.786 172.361C119.865 172.282 113.296 172.323 107.177 172.042C106.603 172.015 107.482 171.739 105.639 171.797C104.824 171.823 103.743 171.989 102.108 172.053L104.619 169.718C104.607 170.068 104.589 170.444 104.562 170.846C103.649 184.421 102.092 198.858 101.192 212.662C99.8463 233.34 100.256 254.901 96.0838 272.652C95.879 273.523 95.2227 272.995 95.0646 272.453C95.2404 271.973 95.4398 271.532 95.6354 271.031C94.8189 270.323 95.0354 270.453 95.2863 268.067C95.4411 266.597 94.9866 267.747 94.9387 266.954C94.8771 265.927 94.7969 261.117 95.302 262.078C95.2244 261.774 95.1492 261.494 95.0731 261.198C95.2372 257.732 95.3377 254.361 95.4188 250.965C95.4325 250.379 95.2551 250.339 95.2702 249.733C95.3095 248.106 95.5207 246.827 95.6236 245.155C95.6796 244.247 95.4814 244.106 95.5808 242.918C95.6803 241.731 95.9582 241.777 95.7715 240.134C95.3439 241.165 95.9399 236.474 96.0397 234.797C96.0545 234.554 95.8835 232.538 95.9965 231.481C96.1092 230.42 96.4277 228.821 96.4324 227.168C96.4345 226.393 96.2228 225.908 96.2691 225.075C96.3017 224.489 96.5709 223.803 96.6337 223.063C96.6964 222.323 96.6332 220.709 96.6515 220.415C96.7164 219.355 96.7853 220.535 96.8455 219.811C97.1338 216.316 97.5106 212.258 97.6572 208.802C97.6754 208.377 97.452 208.951 97.45 208.894C97.4366 206 97.561 207.553 97.7793 206.788C97.9904 206.046 98.3042 200.531 97.9927 200.468C98.3987 200.327 98.1867 199.081 98.1982 198.762C98.2433 197.521 98.5663 197.788 98.5479 196.581C98.5414 196.138 98.249 196.978 98.2901 196.506C98.3916 195.337 98.8378 194.312 98.9876 192.757C99.024 192.382 98.868 192.248 98.9221 191.58C98.9762 190.911 99.3811 188.121 98.9397 189.39C99.3415 187.709 99.2135 187.355 99.3645 185.377C99.4032 184.876 99.7155 184.25 99.7105 183.178C99.7086 182.815 99.4519 182.807 99.4892 182.264C99.5736 181.022 99.9234 179.871 100.048 178.296C100.274 175.444 100.32 172.4 100.585 169.426L100.665 168.03L102.108 168.009C102.207 168.01 102.305 168.012 102.403 168.014C103.24 168.033 103.031 168.291 104.249 168.296C104.428 168.296 105.894 168.073 106.736 168.093C107.242 168.106 109.866 168.263 110.395 168.275C111.27 168.296 111.427 168.046 111.906 168.095C113.292 168.236 112.18 168.603 113.848 168.1C114.396 168.379 115.371 168.351 115.683 168.694C116.25 168.318 116.986 168.679 118.086 168.553C119.187 168.427 120.089 167.7 120.355 168.483C120.869 168.388 123.059 168.225 123.429 168.213C124.517 168.18 123.935 168.396 124.757 168.367C124.901 168.362 124.75 168.214 125.678 168.229C126.287 168.238 130.751 168.248 131.018 168.268C134.059 168.5 129.36 168.415 128.703 168.575C128.587 168.533 128.472 168.491 128.348 168.449C127.004 168.379 127.769 168.714 128.378 168.791C128.988 168.869 130.126 168.72 130.632 168.83C130.885 168.885 130.728 169.286 129.965 169.238C130.782 169.361 129.667 169.492 129.99 169.608C130.345 169.735 134.014 169.775 134.033 169.554C133.348 169.546 132.495 169.554 131.802 169.544C130.896 169.16 133.648 167.848 136.173 168.372C138.004 168.751 134.985 169.053 139.318 168.735C138.651 168.719 138.088 168.683 137.483 168.667C137.418 168.379 138.4 168.696 138.906 168.604C139.15 168.56 137.651 168.355 138.952 168.288C140.072 168.7 140.933 168.285 142.81 168.28C142.288 168.354 141.766 168.427 141.244 168.5C144.416 168.799 137.049 168.898 143.216 169.065C142.474 169.078 141.736 169.075 140.99 169.095C141.351 169.246 140.773 169.69 141.096 169.784C141.945 170.03 143.201 169.882 144.237 169.903C144.69 169.912 144.409 170.032 144.447 170.033C145.068 170.046 144.931 169.871 145.475 169.859C146.16 169.845 148.139 170.016 148.46 169.997C149.29 169.947 147.908 169.6 147.988 169.574C148.517 169.407 149.598 169.546 149.541 169.326C146.94 169.477 139.445 169.283 146.226 168.92C144.356 168.565 144.896 168.076 147.584 168.037C149.808 168.005 148.373 168.201 149.531 168.417C149.68 168.444 152.658 168.547 152.811 168.395C152.692 168.745 153.661 169.056 153.011 169.418C152.915 169.472 151.693 169.451 152.12 169.742C152.333 169.888 152.945 170.206 152.846 170.393C153.097 170.263 153.36 170.117 153.615 169.982C155.447 169.945 155.707 170.084 156.708 170.326C156.663 170.225 155.737 169.801 157.142 169.93C157.214 169.938 157.277 170.09 157.991 170.165C159.433 170.316 159.735 170.363 158.627 170.81C161.615 170.555 162.259 171.053 165.324 170.907C164.714 170.333 163.637 170.475 160.831 170.586C160.709 170.449 160.652 170.314 160.526 170.177C164.261 170.486 162.416 170.454 164.532 170.177C165.049 170.109 167.811 170.182 166.889 169.796C166.672 169.705 164.956 169.715 165.153 169.572C165.191 169.545 167.276 169.475 167.46 169.512C169.574 169.931 166.292 170.233 170.608 170.153L170.033 169.759C170.183 170.125 170.358 170.551 170.564 171.044C170.632 171.205 170.81 171.203 170.955 171.513C171.227 172.098 171.049 172.175 171.298 172.695C171.547 173.215 172.077 173.864 172.164 174.757C172.325 176.389 170.746 173.003 170.365 171.371C169.588 170.948 173.852 182.016 174.162 182.684C175.518 185.6 173.478 180.664 173.527 180.35C173.549 180.219 174.364 179.965 173.361 178.904C173.064 178.59 173.465 180.226 173.021 179.329C172.578 178.431 172.954 178.709 172.944 178.635C172.911 178.382 172.442 177.426 172.425 177.285C172.165 175.116 172.996 175.003 172.884 178.055C173.578 179.097 172.972 176.323 173.692 177.674C174.567 179.315 174.691 180.712 174.758 180.935C175.568 183.605 174.94 180.408 175.996 183.644C176.585 185.445 174.624 181.138 176.216 185.156C177.549 188.518 177.029 186.625 177.542 186.709C177.663 186.729 178.497 188.531 177.481 186.03C177.345 186.001 177.149 185.922 176.987 185.802C176.828 185.153 176.976 183.913 176.868 183.578C176.34 181.941 176.087 182.128 176.055 181.055C175.951 181.87 175.746 180.687 175.51 180.305C174.635 178.885 175.305 180.932 174.343 177.357C174.344 177.871 174.333 178.34 174.33 178.839C174.165 178.43 174 178.02 173.835 177.61C173.974 176.85 173.08 174.681 174.225 176.516C173.412 174.091 172.958 173.16 172.463 172.751C172.368 172.673 172.208 172.324 172.04 171.905C171.988 172.017 171.773 172.217 171.716 172.163C171.212 171.676 171.331 170.573 171.634 170.817C171.528 170.519 171.449 170.282 171.421 170.198C171.248 169.666 171.807 170.625 171.699 170.181C171.681 170.103 171.503 169.659 171.348 169.25L171.14 168.736L170.608 168.744C170.219 168.741 169.863 168.732 169.848 168.698C169.658 168.241 172.25 168.571 167.046 168.305C166.92 168.721 169.337 168.63 168.717 169.072C168.05 169.547 166.691 168.91 166.394 169.493C166.284 169.397 166.235 169.317 166.14 169.208C164.035 169.462 164.007 168.976 163.364 168.869C162.115 168.66 156.373 168.691 161.528 169.112C160.774 169.154 160.005 169.173 159.255 169.21C159.083 168.34 159.54 168.686 155.927 168.553C155.131 168.524 154.872 168.141 154.092 168.596C154.198 168.15 151.844 168.419 151.625 168.365C150.216 168.013 155.447 167.523 156.117 168.312C157 168.005 156.997 168.411 157.983 168.357C159.407 168.279 159.605 168.2 161.295 168.5C162.959 168.078 154.781 168.314 159.739 167.754C161.355 167.572 165.509 167.415 170.608 167.285L172.118 167.262L172.708 168.725C176.765 178.472 182.179 192.037 183.869 196.253C188.41 207.581 190.816 213.53 194.744 223.764C195.132 224.773 198.112 232.373 197.046 230.966C196.893 230.764 195.454 227.556 196.182 230.503C196.172 229.85 196.948 231.449 197.023 231.579C198.756 234.563 198.168 232.675 200.107 237.677ZM201.783 254.08C199.363 247.509 200.913 252.424 199.702 251.333C200.024 252.172 200.345 253.008 200.667 253.847C200.625 253.61 200.584 253.376 200.542 253.139C200.541 253.138 200.541 253.137 200.541 253.137C200.954 253.45 201.369 253.767 201.783 254.08ZM117.008 271.145C117.281 271.048 117.551 270.951 117.847 270.856C118.772 270.886 119.694 270.916 120.619 270.946C120.508 271.012 120.402 271.078 120.291 271.144C119.197 271.141 118.106 271.138 117.008 271.145ZM169.912 170.496C169.868 170.23 169.816 170.03 169.758 169.865L170.608 170.448C169.915 170.427 169.711 170.699 168.321 170.524C168.534 170.878 168.771 171.226 168.995 171.577C169.722 171.548 170.141 171.494 170.608 171.466L168.808 170.232C168.968 170.582 169.124 170.97 169.322 171.589C169.368 171.392 169.413 171.191 169.461 170.997C169.352 170.782 169.234 170.554 169.13 170.346C169.295 169.886 170.168 172.014 169.915 170.5C169.914 170.498 169.913 170.497 169.912 170.496ZM157.831 170.674C157.126 170.628 154.336 170.454 153.955 170.601C152.664 171.1 160.537 170.783 154.735 171.226C154.761 171.296 154.735 171.365 154.735 171.434C155.793 171.459 156.848 171.48 157.914 171.499C157.857 171.224 157.895 170.951 157.831 170.674ZM192.625 230.469C192.271 229.445 190.192 224.716 190.504 226.399C190.596 226.894 191.848 228.88 192.145 229.704C192.338 230.238 191.878 229.734 192.366 230.745C192.45 230.66 192.552 230.588 192.623 230.466C192.624 230.467 192.625 230.468 192.625 230.469ZM194.7 231.843C194.256 230.815 193.795 229.777 193.345 228.742C193.378 229.611 194.13 231.055 193.794 231.287C193.655 231.01 193.518 230.737 193.378 230.46C193.374 230.209 193.371 229.961 193.369 229.713C192.819 228.888 192.93 229.473 192.339 227.771C192.172 229.003 191.945 229.308 193.623 231.966C193.109 231.54 192.318 232.433 193.641 233.755C193.887 234.002 193.493 232.723 193.509 232.7C193.694 232.408 194.127 233.036 194.293 232.735C194.369 232.6 194.073 231.841 194.183 231.667C194.238 231.586 194.732 232.226 194.7 231.843ZM194.188 234.433C193.905 234.171 193.959 235.42 194.405 236.349C195.1 237.799 194.544 235.304 194.188 234.433ZM117.002 271.145C117.004 271.145 117.006 271.145 117.008 271.145C117.007 271.145 117.006 271.146 117.005 271.146C117.004 271.146 117.003 271.146 117.002 271.145ZM161.463 170.869C160.633 171.013 159.405 170.992 159.495 171.22C159.092 171.175 158.684 171.131 158.28 171.086C158.284 171.155 158.291 171.223 158.295 171.291C159.51 171.334 160.721 171.377 161.935 171.42C161.783 171.237 161.642 171.053 161.463 170.869ZM148.232 170.71C146.705 170.687 147.985 170.997 147.65 171.147C147.315 171.296 145.955 171.175 146.115 171.389C147.013 171.398 147.95 171.406 148.86 171.414C148.621 171.18 148.453 170.942 148.228 170.71C148.229 170.71 148.231 170.71 148.232 170.71ZM202.895 271.394C203.93 271.461 203.508 271.698 205.552 271.42C205.551 271.42 205.549 271.42 205.548 271.42C203.602 271.227 201.098 271.054 198.95 271.241C200.264 271.491 201.265 271.289 202.895 271.394ZM170.566 174.126C170.899 174.466 170.311 172.51 169.987 172.154C169.461 171.577 170.061 173.607 170.566 174.126ZM161.067 273.055C159.492 273.632 162.477 274.28 165.602 274C165.873 273.976 163.855 273.792 164.452 273.68C164.513 273.668 165.621 273.682 165.895 273.602C166.169 273.521 165.881 273.335 166.33 273.256C167.119 273.119 168.9 273.373 169.49 273.193C169.568 273.169 168.463 272.919 168.394 272.91C167.259 272.759 166.166 273.085 165.991 273.087C165.088 273.099 165.225 272.842 164.996 272.782C164.566 272.669 163.808 272.782 163.755 272.774C162.385 272.549 165.515 272.614 165.937 272.521C167.076 272.272 166.022 272.04 168.752 271.9C169.011 271.886 172.114 271.902 168.203 271.615C175.882 271.017 164.345 271.275 163.092 271.406C162.515 271.467 163.389 271.712 163.039 271.821C162.24 272.073 160.877 272.117 160.998 272.471C161.261 273.216 163.051 272.728 164.285 272.853C164.155 273.015 164.106 273.172 163.866 273.331C164.235 273.118 161.181 273.011 161.067 273.053C161.067 273.054 161.067 273.054 161.067 273.055ZM180.506 272.204C182.231 272.429 182.109 271.959 183.689 272.227C185.082 271.805 182.334 271.834 182.014 271.81C180.552 271.704 180.585 271.245 179.09 271.386C179.603 271.657 180.022 271.932 180.506 272.204ZM165.503 272.01C166.657 271.772 164.593 271.776 164.509 271.731C163.597 271.248 169.779 271.342 165.503 272.01ZM191.085 223.86C190.889 223.308 190.81 223.737 190.561 223.279C190.311 222.821 189.855 221.1 189.739 221.192C189.623 221.286 190.448 224.444 189.2 221.436C189.166 221.568 189.097 221.554 189.049 221.63C189.369 222.466 189.691 223.309 190.012 224.144C190.049 223.604 190.093 223.047 190.13 222.527C190.481 222.93 190.365 223.278 190.374 223.302C190.374 223.302 190.375 223.302 190.375 223.302C190.73 224.169 191.526 225.101 191.085 223.86ZM207.052 267.16C207.647 267.117 206.555 266.058 206.284 265.554C206.014 265.05 205.93 264.247 205.807 264.609C205.98 265.526 206.986 267.165 207.053 267.159C207.053 267.159 207.052 267.16 207.052 267.16ZM189.877 272.203C191.322 272.064 191.093 271.916 192.862 272.085C192.793 271.948 192.724 271.807 192.656 271.671C191.251 271.668 191.35 272.068 189.724 271.907C189.458 271.881 190.028 271.561 188.826 271.664C189.176 271.835 189.53 272.024 189.877 272.203ZM197.042 271.692C195.382 271.713 194.065 272.828 197.123 272.325C197.576 272.25 198.291 271.676 197.042 271.692ZM196.631 238.134C195.643 235.488 196.632 238.546 196.737 239.293C194.239 233.21 197.048 239.968 196.753 240.786C197.194 241.477 198.082 242.745 197.573 241.151C197.36 240.487 197.294 240.785 197.279 240.746C196.856 239.534 197.171 239.579 196.631 238.134ZM177.509 272.232C177.615 272.223 177.449 272.031 177.787 271.992C178.127 271.954 178.895 272.089 178.971 271.97C179.047 271.851 177.506 271.759 177.034 271.846C176.561 271.933 176.545 272.306 177.509 272.232ZM188.346 272.706C189.757 272.568 187.45 271.858 187.143 271.861C184.447 271.898 188.426 272.481 188.346 272.706ZM200.12 243.816C198.556 240.771 198.87 243.32 199.288 245.444C199.461 245.679 199.636 245.921 199.807 246.153C198.914 245.126 197.678 243.2 199.853 247.707C198.971 245.121 199.911 247.209 199.942 247.216C200.844 247.19 199.017 243.56 200.121 243.819C200.12 243.818 200.12 243.817 200.12 243.816ZM172.92 272.029C171.438 272.031 167.587 272.178 169.384 272.549C170.564 272.376 171.74 272.202 172.92 272.029ZM179.983 191.852C179.745 190.646 179.339 189.606 178.788 188.219C178.984 189.584 178.633 188.773 178.399 188.378C178.045 187.777 178.654 189.327 178.636 189.339C178.352 189.416 177.927 188.442 178.805 190.694C178.494 190.174 178.185 189.661 177.875 189.14C178.527 190.863 178.505 191.337 178.708 192.511C178.832 191.247 179.037 192.77 179.791 193.932C180.167 194.511 180.104 192.466 179.982 191.848C179.982 191.849 179.983 191.851 179.983 191.852ZM198.958 240.494C198.736 240.204 198.491 239.955 198.259 239.681C198.115 239.341 197.973 238.999 197.829 238.659C197.898 238.583 197.973 238.514 198.035 238.432C197.884 237.969 197.834 238.191 197.771 238.061C197.772 238.061 197.772 238.06 197.773 238.06C196.868 236.186 196.58 235.387 196.256 233.769C195.996 233.87 195.736 233.97 195.476 234.071C195.633 234.402 195.79 234.737 195.946 235.068C196.155 235.195 196.365 235.323 196.575 235.45C196.65 235.874 196.725 236.294 196.8 236.718C196.972 237.015 197.172 237.374 197.327 237.629C197.208 239.483 196.32 235.716 196.006 235.801C195.804 235.855 197.204 239.452 197.538 239.919C197.586 239.986 197.827 238.999 198.054 240.425C198.089 240.648 196.947 241.173 198.443 242.227C198.656 242.378 199.11 241.39 198.958 240.494ZM194.283 227.273C194.316 229.587 192.22 221.809 192.85 225.271C192.151 224.484 192.221 224.653 192.274 225.698C192.278 225.79 191.936 225.187 191.945 225.246C192.112 226.177 192.605 227.187 192.301 227.312C192.408 227.54 192.508 227.755 192.615 227.983C192.526 226.895 193.32 228.373 193.795 228.879C194.011 229.109 193.802 228.468 193.987 228.661C194.056 228.732 194.324 229.637 194.439 229.634C194.697 229.62 194.792 228.95 194.6 227.95C194.6 227.95 194.6 227.95 194.601 227.95C194.495 227.722 194.389 227.501 194.283 227.273ZM210.382 270.781C210.102 271.285 210.517 272.712 209.289 270.137C209.258 270.3 209.23 270.466 209.199 270.629C209.379 271.074 209.554 271.504 209.736 271.956C210.202 272.194 210.514 272.584 210.726 272.991L210.794 273.16L210.608 273.162C209.356 273.303 208.256 272.691 209.509 273.371C209.696 273.472 210.833 273.359 209.71 273.633C209.711 273.633 209.713 273.633 209.715 273.633C210.075 273.614 210.363 273.591 210.608 273.57L211.394 273.558L211.106 272.844C210.742 272.101 210.57 271.793 210.382 270.781ZM206.309 261.1C204.134 258.063 207.625 265.95 207.338 264.519C207.312 264.39 205.787 261 206.309 261.1ZM194.266 274.142C195.887 274.158 195.995 273.654 195.831 273.473C195.668 273.291 194.545 273.475 194.4 273.446C193.928 273.351 194.929 273.289 194.316 273.16C194.113 273.117 191.288 272.938 191.159 272.96C190.44 273.08 191.491 273.496 191.285 273.543C190.615 273.699 189.705 273.483 189.511 273.704C189.092 274.176 190.789 273.681 191.075 273.673C191.939 273.65 191.864 273.916 192.511 273.969C193.158 274.022 193.581 273.931 194.151 273.95C194.341 273.956 194.183 274.14 194.266 274.142ZM199.628 273.078C197.934 273.459 202.058 273.874 202.548 273.785C203.987 273.519 200.439 272.896 199.628 273.078ZM195.112 232.778C195.928 234.124 194.836 230.677 194.36 229.754C194.322 229.974 194.831 232.315 195.112 232.778ZM200.459 244.698C199.865 243.4 199.965 245.386 200.402 246.491C201.035 246.993 200.723 246.411 200.459 245.68C200.195 244.951 200.922 245.71 200.459 244.698ZM176.676 273.686C176.983 273.693 181.935 273.355 179.09 273.214C178.872 273.204 175.406 273.263 175.144 273.326C174.615 273.454 175.884 273.668 176.676 273.686ZM203.485 250.851C202.883 250.275 202.62 249.582 202.482 250.378C202.482 250.379 202.483 250.38 202.483 250.381C201.677 248.648 202.44 248.262 202.274 247.885C201.696 246.566 201.623 248.056 201.112 247.286C202.043 249.175 201.445 248.761 201.996 250.259C202.12 250.595 202.864 251.843 203.081 251.983C203.298 252.124 203.459 251.277 203.485 250.851ZM169.681 273.775C171.352 273.91 172.882 273.337 170.564 273.246C169.433 273.201 168.66 273.692 169.681 273.775ZM155.42 168.654C155.675 168.805 155.938 168.954 156.212 169.103C155.595 169.14 154.978 169.177 154.361 169.214C154.849 169.167 155.337 169.12 155.828 169.073C154.67 169.02 154.141 168.747 155.417 168.654C155.418 168.654 155.419 168.654 155.42 168.654ZM114.21 168.54C113.692 168.395 112.672 168.843 112.802 168.878C113.776 169.139 114.929 168.74 114.21 168.54ZM195.558 230.152C194.922 228.334 194.719 229.831 195.098 230.95C194.968 230.226 195.918 231.184 195.558 230.152ZM128.703 168.575C128.876 168.638 129.05 168.7 129.243 168.763C128.634 168.676 128.529 168.617 128.703 168.575ZM177.463 274.331C177.757 274.387 179.931 274.433 180.224 274.364C180.833 274.218 179.138 273.815 178.141 273.939C178.03 273.952 177.171 274.275 177.468 274.331C177.466 274.331 177.465 274.331 177.463 274.331ZM152.816 168.375C152.819 168.382 152.817 168.388 152.811 168.395C152.813 168.388 152.813 168.381 152.816 168.375ZM97.9582 200.482C97.9704 200.471 97.982 200.466 97.9927 200.468C97.9818 200.472 97.97 200.48 97.9582 200.482ZM192.793 274.95C193.516 275.645 195.184 275.275 193.867 274.932C193.793 274.914 192.968 274.951 192.793 274.95Z" fill="black"/>
<path d="M2.1084 78.0362V1.53622H45.1084L99.6084 78.0362H2.1084Z" fill="white"/>
<path d="M89.5504 58.8313C93.5769 64.4686 97.8319 70.3864 102.051 76.2963L105.472 80.9439L99.6084 81.0349C93.6565 81.0406 87.723 81.0295 82.0218 80.9753C80.468 80.9606 80.5741 80.7591 80.1382 80.7325C78.9465 80.6591 78.229 80.8968 77.3604 80.8794C73.1377 80.7954 69.1877 80.7612 65.0451 80.6849C60.7778 80.6065 62.7964 79.9802 61.3137 79.8276C58.4166 79.5288 60.8808 80.3455 59.7421 80.5289C56.421 80.4799 53.0703 80.3914 49.7433 80.3018C50.5555 80.2256 51.3679 80.1509 52.189 80.0803C50.7389 80.0635 48.6635 79.9374 51.0919 79.724C50.5551 79.6652 50.0541 79.5964 49.5025 79.539C49.3513 79.8364 46.7838 79.8604 46.5491 80.0367C46.3148 80.2131 47.7583 80.1726 47.7494 80.188C47.6538 80.4076 41.7324 80.1073 41.3054 80.0828C40.1765 80.0177 41.1662 79.6489 40.2059 79.6727C38.5541 79.7133 39.6545 80.4635 37.4185 79.4661C36.529 79.7901 36.4514 79.6219 35.3251 79.5994C35.1768 79.5966 35.2919 79.7842 35.2266 79.7891C33.5218 79.9284 34.8322 79.5795 34.8233 79.5606C34.6686 79.2396 32.839 79.3823 32.4535 79.3515C27.6171 78.968 24.0734 78.7083 18.97 78.6195C17.8668 78.6006 14.5067 78.7308 13.4392 78.6762C12.3863 78.6224 12.9512 78.391 12.4002 78.28C11.5169 78.8364 10.6743 78.8978 8.69124 78.5312C7.95291 78.9371 8.04785 78.6097 6.63336 78.6909C5.45602 78.7581 3.40419 79.245 2.1084 78.83C3.59409 78.8678 3.44027 78.6684 5.11279 78.548C5.66952 78.5082 11.4753 78.4997 11.0433 78.0848C10.8179 77.8685 8.89372 78.0672 8.81934 78.0273C8.38637 77.7949 9.46036 77.5094 10.4123 77.6095C10.175 77.6563 9.88922 77.7039 9.63419 77.7508C11.7722 78.0413 10.302 76.9257 11.9269 77.9006C12.1278 78.0202 12.05 78.1449 12.3812 78.2719C12.4492 78.2194 12.0441 78.0891 12.393 78.0658C12.749 78.0422 13.425 78.2896 13.5258 78.0811C13.6764 77.778 12.2016 77.8974 12.0906 77.8797C12.0894 77.8815 12.0882 77.8834 12.087 77.8852C11.1058 77.7243 13.1551 77.7059 13.253 77.6772C13.8869 77.4883 13.4546 77.3429 14.4059 77.1868C14.9485 77.098 16.3309 77.1504 16.8409 77.1217C17.3477 77.0922 16.5592 76.9488 16.9002 76.918C17.2412 76.8873 17.6658 76.9962 18.0662 76.9605C18.2375 76.9448 18.2288 76.7848 18.3117 76.7792C19.2011 76.7177 18.6177 77.0504 19.4242 77.0301C19.9468 77.0166 21.7005 76.7065 20.4917 76.6141C21.0728 76.5819 21.6394 76.5583 22.2175 76.5331C21.8529 76.4856 21.4761 76.4532 21.1204 76.3973C22.2083 76.4735 22.7004 76.1998 23.3822 76.1794C24.0643 76.1591 24.6757 76.4876 25.4259 76.3273C27.0273 75.9865 23.062 76.144 22.5698 76.0831C22.3779 76.0591 23.1146 75.8019 23.2281 75.7945C23.732 75.7623 24.3281 75.9463 24.7166 75.9381C26.1073 75.9073 26.959 75.6644 28.2844 75.6154C32.7978 75.4488 38.3968 75.3138 42.673 75.2606C44.2654 75.241 45.2236 75.514 45.9383 75.5063C47.6103 75.4881 47.8152 75.2501 49.2736 75.2375C51.4443 75.2179 54.5024 75.4256 56.3143 75.4704C57.5686 75.5012 58.7042 75.2709 59.0304 75.2653C63.5646 75.1827 69.0805 75.1879 72.8378 75.1851C74.6049 75.1837 75.4441 75.4425 75.809 75.4349C77.3775 75.4027 76.957 75.1815 78.2286 75.2038C78.9156 75.2157 79.0441 75.4281 79.136 75.4363C79.9455 75.5063 80.1067 75.229 80.7384 75.2199C84.3708 75.1674 87.8698 75.349 91.4666 75.3756C91.7276 75.3777 91.7044 75.5005 91.8735 75.4942C92.5993 75.4641 92.2619 75.2706 93.0204 75.2565C94.5981 75.2264 96.218 75.2584 97.8905 75.2829C98.0562 75.2853 98.1307 75.4432 98.5097 75.4433C98.8525 75.4433 99.1205 75.3211 99.6084 75.3037L97.3829 79.6217C97.3511 79.5803 97.3188 79.5361 97.286 79.4888C96.4003 78.2082 95.6547 76.853 94.706 75.5044C94.5489 75.2814 94.1978 75.1165 93.9621 74.782C93.2222 73.7326 92.2597 72.084 91.6265 71.1843C89.5364 68.2167 87.5053 65.5523 85.5203 62.7684C85.0542 62.114 84.7847 61.432 84.5455 61.0891C84.0061 60.3163 84.283 60.992 83.7285 60.2148C79.1998 53.8653 74.7188 47.445 70.1294 41.0258C68.3273 38.5048 65.9983 35.5326 64.2993 33.0657C63.5932 32.0396 63.6496 31.722 63.1403 31.0035C62.231 29.7223 61.8252 29.6615 60.8397 28.3289C60.0535 27.2651 59.4141 25.8597 58.6009 24.7496C57.7877 23.6395 57.1861 23.2884 56.2411 22.021C55.4629 20.977 54.5141 19.4212 53.6746 18.279C49.9841 13.2585 46.3343 8.26507 42.7185 3.23885L45.1084 4.47061C38.3922 4.50155 31.6678 4.47749 24.8679 4.36096C20.2566 4.28187 15.1405 4.32298 10.375 4.04162C9.92739 4.01499 10.6121 3.73855 9.177 3.79663C8.40603 3.82812 7.3296 4.06632 5.54754 4.07824C4.40881 4.08576 3.26192 4.08659 2.1084 4.0822L4.65438 1.53622C4.61794 11.1159 4.22172 21.1525 4.31167 30.7681C4.46356 46.906 6.43074 63.631 3.55215 77.6546C3.41079 78.3425 2.71806 77.9695 2.52126 77.5573C2.66191 77.1749 2.82897 76.8213 2.98781 76.4211C2.12226 75.9171 2.34763 76.0059 2.42531 74.1378C2.47355 72.9877 2.10338 73.9064 1.99831 73.2933C1.86253 72.4986 1.43497 68.7671 2.00819 69.4848C1.90881 69.2535 1.81361 69.04 1.71632 68.8146C1.62953 66.1132 1.48602 63.4885 1.32155 60.8464C1.2928 60.39 1.11293 60.3689 1.08424 59.8975C1.00588 58.6314 1.12404 57.6262 1.10585 56.3214C1.09605 55.6127 0.888203 55.5144 0.901501 54.5862C0.914882 53.6585 1.19546 53.6789 0.890515 52.4132C0.538469 53.2376 0.793914 49.5603 0.772228 48.2524C0.769429 48.0626 0.453159 46.506 0.489512 45.6786C0.525203 44.8484 0.727243 43.588 0.61256 42.3041C0.558668 41.7022 0.31236 41.3369 0.298349 40.6875C0.288551 40.2308 0.507486 39.6823 0.516612 39.104C0.525707 38.526 0.345989 37.2753 0.343027 37.0462C0.331131 36.219 0.485055 37.1315 0.492808 36.5658C0.527802 33.8347 0.610291 30.6615 0.506724 27.969C0.494167 27.6379 0.312817 28.0959 0.306772 28.052C0.0842602 25.8047 0.320546 27.0042 0.482921 26.3974C0.63993 25.8096 0.554283 21.508 0.239023 21.4763C0.633802 21.3441 0.332276 20.3879 0.320688 20.1395C0.275938 19.173 0.617497 19.3625 0.511851 18.4256C0.473375 18.0818 0.24251 18.7512 0.249277 18.3817C0.266074 17.4684 0.636961 16.6465 0.674083 15.4307C0.683182 15.1371 0.517971 15.0417 0.52357 14.5198C0.529255 13.9973 0.731371 11.807 0.382945 12.8177C0.662162 11.4893 0.508913 11.2219 0.516612 9.67695C0.518958 9.28559 0.785198 8.78171 0.702648 7.94881C0.674632 7.66713 0.418003 7.67542 0.415904 7.25138C0.410377 6.28182 0.676037 5.36837 0.686535 4.13788C0.694031 3.28759 0.673259 2.417 0.647441 1.53622L0.619803 0.103992L2.1084 0.0752667C3.6113 0.031212 5.14398 -0.0275367 6.65655 0.0143845C7.30858 0.0326312 7.14581 0.290649 8.0941 0.295636C8.23347 0.295636 9.37562 0.0725076 10.031 0.0934864C10.4254 0.106085 12.469 0.262896 12.8812 0.275494C13.5627 0.295689 13.6845 0.0461456 14.0578 0.0949513C15.1372 0.235631 14.2713 0.602953 15.5701 0.100444C15.9971 0.379003 16.7561 0.351135 16.9993 0.694075C17.4411 0.318258 18.0141 0.679336 18.871 0.553449C19.728 0.427466 20.4307 -0.300424 20.6383 0.48277C21.0386 0.387583 22.7442 0.225136 23.0318 0.213238C23.8796 0.179674 23.4263 0.396313 24.0661 0.367047C24.1788 0.362149 24.0607 0.214012 24.7837 0.228619C25.2582 0.238417 28.7346 0.247506 28.9421 0.267803C31.3106 0.499726 27.6515 0.414721 27.1393 0.575056C27.0489 0.532944 26.9594 0.490694 26.8629 0.449079C25.8163 0.379128 26.4122 0.713801 26.8866 0.791487C27.3611 0.869152 28.2477 0.720059 28.6421 0.829939C28.8386 0.885111 28.7168 1.28636 28.1225 1.2379C28.7584 1.36149 27.8901 1.49199 28.1415 1.60814C28.418 1.73547 31.2754 1.77467 31.2906 1.55357C30.7569 1.54588 30.0927 1.55351 29.553 1.54442C28.8472 1.16017 30.991 -0.152055 32.9571 0.372174C34.3832 0.751499 32.0322 1.05313 35.4064 0.734724C34.8875 0.719323 34.4486 0.683437 33.9771 0.667341C33.9269 0.379175 34.6918 0.696028 35.0861 0.604353C35.2756 0.559529 34.1081 0.355478 35.1217 0.287579C35.9935 0.699656 36.6642 0.285154 38.1261 0.280255C37.7198 0.353745 37.3131 0.426858 36.9068 0.500348C39.3769 0.799199 33.6395 0.897779 38.4428 1.06505C37.8648 1.07833 37.2897 1.0748 36.7087 1.09508C36.9903 1.24628 36.5397 1.69014 36.7917 1.78392C37.4529 2.03008 38.4311 1.88169 39.2375 1.90331C39.5904 1.91241 39.3715 2.03225 39.4012 2.03295C39.8844 2.04623 39.7777 1.87056 40.2018 1.85936C40.7354 1.84538 42.2766 2.01615 42.5265 1.99669C43.173 1.947 42.0965 1.60035 42.1588 1.57445C42.571 1.40654 43.4129 1.54579 43.3686 1.32616C41.343 1.4773 35.5052 1.28326 40.7865 0.920028C39.3305 0.565181 39.751 0.0759637 41.8445 0.0374559C43.5764 0.00526035 42.4588 0.201281 43.3603 0.416852C43.434 0.4339 44.3867 0.481308 45.1084 0.475501L45.6344 0.46535L45.9723 0.92076C46.2192 1.2615 46.4353 1.5278 46.5064 1.53087C46.1666 1.65882 46.3514 2.45395 45.7626 2.25154C45.6763 2.22202 45.1411 1.43459 45.0966 1.87404C45.0739 2.09414 45.0911 2.66695 44.8949 2.71242C45.1139 2.79668 45.3513 2.87885 45.5765 2.96228C46.4349 4.10207 46.4389 4.34805 46.6948 5.12336C46.7562 5.0359 46.683 4.20325 47.2131 5.16919C47.2394 5.2194 47.1437 5.34713 47.4049 5.84368C47.9338 6.84663 48.0316 7.06495 47.1676 6.62146C48.7253 8.36917 48.6111 9.0662 50.1144 10.9256C50.3064 10.2062 49.7038 9.60523 48.3457 7.88946C48.4018 7.73299 48.486 7.61838 48.5415 7.45869C49.9774 10.0073 49.169 8.81831 50.3509 9.99975C50.6402 10.2888 51.8288 12.0824 51.7271 11.2737C51.7028 11.083 50.9191 10.001 51.1247 10.0426C51.1642 10.051 52.1631 11.3334 52.216 11.4715C52.8865 13.2003 50.7637 10.7697 53.7709 14.7036C53.8539 14.8118 54.0178 14.7539 54.1913 14.9575C54.5174 15.3404 54.3634 15.4578 54.6595 15.7963C54.9557 16.135 55.5277 16.4892 55.7222 17.177C56.0795 18.4336 54.1898 16.2155 53.6289 15.0276C52.858 14.9323 58.2076 22.463 58.5795 22.9007C60.2035 24.8124 57.69 21.4965 57.695 21.2299C57.6981 21.1184 58.4174 20.6603 57.3567 20.1238C57.0426 19.9653 57.622 21.1504 57.0979 20.5703C56.5735 19.9899 56.9564 20.0951 56.9379 20.0391C56.8746 19.8469 56.3195 19.2279 56.2862 19.1199C55.7691 17.4639 56.5209 17.1139 56.808 19.5929C57.5821 20.2102 56.6677 18.1788 57.5047 19.0353C58.5221 20.0763 58.8149 21.1566 58.9056 21.314C59.9943 23.1992 59.0062 20.8351 60.3945 23.096C61.1676 24.3548 58.8074 21.5185 60.7905 24.2382C62.4508 26.5144 61.7288 25.1608 62.2129 25.0671C62.3264 25.0455 63.3269 26.228 62.0697 24.5429C61.9401 24.5624 61.7496 24.5605 61.5844 24.5144C61.3547 24.0449 61.3323 23.0055 61.1903 22.7708C60.4936 21.6252 60.2838 21.8539 60.1174 21.0041C60.1256 21.6898 59.7857 20.8065 59.5188 20.5742C58.5298 19.7106 59.4094 21.1403 58.0645 18.5783C58.132 18.989 58.1815 19.3687 58.2426 19.7693C58.038 19.4929 57.833 19.2164 57.6284 18.94C57.6596 18.2878 56.5575 16.8298 57.8486 17.9413C56.7882 16.2539 56.2499 15.65 55.741 15.4772C55.6441 15.4446 55.4512 15.215 55.2427 14.9323C55.2093 15.0377 55.0363 15.2653 54.9769 15.2396C54.4498 15.0072 54.4186 14.0868 54.7286 14.1874C54.5936 13.9819 54.4896 13.8171 54.4536 13.7585C54.2256 13.3865 54.8637 13.9796 54.708 13.6573C54.6565 13.5513 53.9138 12.5746 53.9581 12.5139C54.245 12.128 55.1472 13.9633 53.0122 10.5082C52.6162 10.6701 53.783 12.1501 53.1423 12.0131C52.4541 11.8661 52.3591 10.6342 51.7501 10.7841C51.7782 10.6584 51.8213 10.5811 51.8672 10.4574C50.7089 9.26941 51.0918 8.96998 50.8885 8.49981C50.4945 7.58619 47.8742 3.96234 49.8614 7.47663C49.4865 7.02278 49.1229 6.5458 48.7537 6.09152C49.3853 5.47781 49.3095 5.9686 47.785 3.59957C47.4494 3.07778 47.6441 2.69132 46.9211 2.46016C47.2857 2.29033 46.3186 1.22059 46.0561 0.86109L45.6854 0.361527L45.1084 0.372662C45.0514 0.373333 45.0106 0.371357 44.9912 0.365216C44.6795 0.265184 44.7852 0.154011 45.1084 0.0641974L45.8384 0.0501105L46.3073 0.682109C46.9639 1.21389 48.3107 2.94801 48.0679 3.58008C48.717 3.96202 48.385 4.1955 48.8743 4.78959C49.5811 5.64781 49.7348 5.72738 50.2548 6.97355C51.3505 7.78413 47.4624 2.73391 50.1587 5.55366C52.8557 8.37434 66.1584 26.5087 69.2707 30.7327C74.9091 38.3853 77.8894 42.3976 82.8226 49.3655C83.3095 50.0526 87.0312 55.207 85.8674 54.4139C85.7002 54.2999 83.9625 52.1804 85.0116 54.3128C84.9189 53.7931 85.8387 54.8311 85.9251 54.9115C87.9051 56.7595 87.1214 55.4315 89.5504 58.8313ZM93.1946 71.4433C90.1211 66.9374 92.1801 70.3895 90.9232 69.8941C91.3275 70.4653 91.7305 71.0344 92.1348 71.6056C92.0658 71.4291 91.998 71.2546 91.9289 71.078C91.9285 71.0774 91.928 71.0768 91.9276 71.0761C92.3494 71.1979 92.7728 71.3216 93.1946 71.4433ZM19.5535 76.145C19.7663 76.048 19.9766 75.9509 20.2071 75.856C20.9276 75.8861 21.6453 75.9157 22.3658 75.9457C22.2798 76.0115 22.1967 76.0781 22.1108 76.1439C21.2584 76.1411 20.4088 76.138 19.5535 76.145ZM53.0996 14.4683C52.7271 13.4812 52.3889 13.8351 51.781 12.6042C51.5884 12.9453 51.4127 13.297 51.2281 13.6433C51.8694 14.4529 52.1153 14.5656 52.6948 15.5285C52.712 15.3561 52.728 15.1808 52.7475 15.0104C52.6193 14.8726 52.4814 14.7271 52.3589 14.5925C52.452 14.1732 53.5297 15.6038 53.1022 14.4707C53.1014 14.4699 53.1005 14.4691 53.0996 14.4683ZM46.9181 6.03761C46.6374 5.56399 45.5177 3.69306 45.2259 3.5368C44.2367 3.00719 48.0523 7.81787 45.0691 4.39412C45.0242 4.45154 44.9564 4.47446 44.9 4.5146C45.3584 5.20022 45.8181 5.88187 46.2839 6.56947C46.4827 6.37327 46.7216 6.23944 46.9181 6.03761ZM81.7253 55.3972C81.2673 54.6883 78.7442 51.5506 79.2474 52.8009C79.3959 53.1684 80.8048 54.368 81.1846 54.9349C81.4306 55.302 80.9417 55.0424 81.5216 55.6996C81.5882 55.6049 81.6729 55.5153 81.7233 55.3957C81.724 55.3962 81.7246 55.3968 81.7253 55.3972ZM83.8158 55.8492C83.274 55.1648 82.7158 54.4775 82.1683 53.7899C82.3103 54.4752 83.189 55.3964 82.9089 55.6871C82.745 55.509 82.5829 55.333 82.4191 55.1549C82.3831 54.9549 82.3489 54.7571 82.3146 54.5595C81.702 54.0711 81.8795 54.5048 81.1163 53.3262C81.1199 54.365 80.9491 54.6801 82.8371 56.2843C82.3087 56.1036 81.6929 57.0668 83.0826 57.7114C83.3417 57.8326 82.8147 56.9309 82.826 56.9082C82.96 56.6164 83.4396 56.9833 83.5543 56.6909C83.6065 56.559 83.2368 56.0433 83.3163 55.8701C83.3565 55.7877 83.8939 56.1458 83.8158 55.8492ZM83.6739 58.0838C83.3799 57.9619 83.589 58.9452 84.1197 59.5502C84.9466 60.4939 84.1143 58.6694 83.6739 58.0838ZM19.5488 76.1453C19.5503 76.1452 19.552 76.1451 19.5535 76.145C19.5527 76.1453 19.5519 76.1457 19.5512 76.1461C19.5504 76.1458 19.5496 76.1456 19.5488 76.1453ZM48.4005 8.45482C47.9087 8.01162 47.3705 7.22024 47.2259 7.41008C47.08 7.12807 46.9314 6.84364 46.7855 6.56163C46.7314 6.60382 46.6789 6.6485 46.6254 6.69029C47.1394 7.48542 47.6517 8.27833 48.1652 9.07387C48.2457 8.87088 48.332 8.67472 48.4005 8.45482ZM42.3486 2.70971C41.1597 2.68664 42.1565 2.99682 41.8955 3.1466C41.6346 3.29638 40.5754 3.17453 40.6999 3.3894C41.3998 3.3978 42.1297 3.40623 42.8385 3.41393C42.6516 3.18017 42.5212 2.94208 42.3462 2.70971C42.347 2.70971 42.3478 2.70971 42.3486 2.70971ZM86.4435 76.3936C87.25 76.4608 86.9209 76.6975 88.5133 76.4204C88.5121 76.4204 88.5109 76.4204 88.5097 76.4204C86.9945 76.2265 85.0438 76.0538 83.3715 76.2413C84.3944 76.491 85.1745 76.2887 86.4435 76.3936ZM54.1674 17.1707C54.5177 17.3392 53.725 15.9567 53.3801 15.7728C52.8219 15.4753 53.6343 16.9133 54.1674 17.1707ZM53.8673 78.0548C52.6404 78.6321 54.9652 79.2802 57.3995 79.0003C57.6101 78.9758 56.0385 78.7922 56.504 78.6795C56.5511 78.6684 57.4138 78.6822 57.6273 78.6019C57.8408 78.5214 57.6166 78.3346 57.9665 78.2562C58.5805 78.1192 59.9681 78.373 60.4276 78.1932C60.4882 78.1691 59.6277 77.9192 59.5737 77.9097C58.69 77.7586 57.8385 78.0852 57.702 78.0874C56.9992 78.0986 57.1054 77.8425 56.9275 77.7823C56.5923 77.6691 56.0023 77.7823 55.9608 77.7739C54.8942 77.5493 57.3314 77.6136 57.6605 77.5212C58.547 77.272 57.7262 77.0404 59.8524 76.8997C60.0542 76.8865 62.4711 76.9015 59.4254 76.6148C65.4058 76.0172 56.4205 76.2749 55.4449 76.4064C54.9951 76.4674 55.6761 76.7115 55.4033 76.8214C54.7806 77.0726 53.7191 77.1169 53.814 77.471C54.0187 78.2155 55.4128 77.7277 56.3736 77.853C56.2727 78.0147 56.2342 78.1723 56.0474 78.3305C56.335 78.1178 53.9563 78.0113 53.8673 78.0533C53.8673 78.0538 53.8673 78.0543 53.8673 78.0548ZM69.0067 77.204C70.3501 77.4287 70.255 76.9587 71.4856 77.2275C72.5709 76.8055 70.4303 76.8338 70.1809 76.81C69.0424 76.7036 69.0685 76.2447 67.9036 76.3859C68.3039 76.6575 68.6301 76.9318 69.0067 77.204ZM57.3224 77.0103C58.2209 76.7724 56.6132 76.7764 56.5479 76.7309C55.838 76.2482 60.6521 76.342 57.3224 77.0103ZM79.459 50.5865C79.2073 50.2054 79.1898 50.5735 78.9014 50.2847C78.6122 49.9958 77.9712 48.7599 77.8757 48.8703C77.7807 48.9817 78.9462 51.2528 77.4101 49.2341C77.395 49.3503 77.3297 49.3612 77.2951 49.4369C77.6978 50.0057 78.103 50.5805 78.5056 51.1493C78.4706 50.7045 78.4398 50.2451 78.4072 49.8169C78.7831 50.0298 78.7199 50.3449 78.7319 50.3618C78.7321 50.3617 78.7323 50.3615 78.7325 50.3614C79.1707 50.9447 80.0246 51.4421 79.459 50.5865ZM97.7186 76.8375C97.5822 77.4079 98.6585 76.7708 99.1004 76.7001C99.264 76.6741 99.4503 76.6866 99.6084 76.7003L98.5203 78.8114C98.3832 78.5789 98.296 78.4109 98.2535 78.6175C98.2895 78.7061 98.3401 78.8 98.401 78.8964L99.6084 76.5538C98.8477 76.5118 97.7315 76.7822 97.7186 76.8382C97.7186 76.838 97.7186 76.8377 97.7186 76.8375ZM76.3048 77.2029C77.4308 77.0645 77.252 76.9162 78.6295 77.0854C78.5761 76.9475 78.5228 76.8066 78.4694 76.6708C77.3752 76.668 77.4521 77.0683 76.1861 76.9074C75.9786 76.8808 76.423 76.5611 75.4864 76.6639C75.7589 76.8345 76.0351 77.0239 76.3048 77.2029ZM81.8853 76.6917C80.5925 76.7128 79.567 77.8285 81.9482 77.3253C82.3011 77.2501 82.8577 76.6756 81.8853 76.6917ZM86.402 60.2835C85.152 58.4735 86.4551 60.613 86.6477 61.1788C83.5652 57.0883 87.0213 61.6224 86.8533 62.3693C87.3486 62.7846 88.3304 63.5228 87.6566 62.4057C87.3754 61.9397 87.352 62.1996 87.3337 62.1726C86.7881 61.3344 87.0845 61.2718 86.402 60.2835ZM66.6725 77.2315C66.7555 77.2231 66.6256 77.0305 66.8895 76.992C67.1537 76.9538 67.7518 77.0886 67.8111 76.9704C67.8701 76.8515 66.6704 76.7592 66.3024 76.8459C65.9347 76.9334 65.9223 77.3057 66.6725 77.2315ZM75.1127 77.7061C76.2115 77.5675 74.4147 76.858 74.1757 76.8613C72.0762 76.8984 75.175 77.4815 75.1127 77.7061ZM90.347 63.7439C88.5151 61.7938 89.1303 63.7367 89.7883 65.3069C89.9777 65.4413 90.1704 65.5803 90.3574 65.7126C89.4019 65.17 88.0158 64.0135 90.5987 66.9432C89.4538 65.1481 90.5883 66.526 90.6175 66.522C91.4466 66.219 89.2971 63.883 90.3483 63.7458C90.3479 63.7452 90.3474 63.7445 90.347 63.7439ZM63.0987 77.0286C61.9448 77.0315 58.9451 77.1785 60.3446 77.5494C61.2637 77.3758 62.1796 77.2022 63.0987 77.0286ZM65.1227 28.4232C64.7483 27.5321 64.241 26.8262 63.5551 25.8876C63.911 26.9191 63.483 26.3795 63.2167 26.1359C62.8134 25.766 63.5734 26.8166 63.5586 26.8317C63.306 26.9825 62.7891 26.3355 63.8871 27.8646C63.5339 27.5449 63.1835 27.2305 62.8309 26.9103C63.6526 28.0867 63.6928 28.4729 64.0306 29.3498C63.983 28.2987 64.3669 29.4538 65.2109 30.1488C65.6325 30.4954 65.3127 28.8768 65.1207 28.4203C65.1213 28.4213 65.122 28.4222 65.1227 28.4232ZM88.8506 61.4459C88.6085 61.2834 88.3503 61.1608 88.1014 61.0141C87.9254 60.7863 87.7501 60.5573 87.5741 60.3295C87.6276 60.2478 87.6878 60.1684 87.735 60.0838C87.5366 59.7597 87.5192 59.9535 87.4441 59.8687C87.4445 59.8684 87.4449 59.8681 87.4453 59.8679C86.3712 58.6495 86.0027 58.0997 85.4973 56.9056C85.2703 57.0673 85.0434 57.229 84.8164 57.3907C85.0031 57.607 85.191 57.8261 85.3771 58.0427C85.5868 58.079 85.7969 58.1157 86.0066 58.152C86.1304 58.468 86.2528 58.7812 86.3765 59.0972C86.5734 59.2808 86.8034 59.506 86.9786 59.6615C87.1064 61.1833 85.8052 58.4448 85.5263 58.6107C85.3468 58.7169 87.0987 61.1604 87.4668 61.4298C87.52 61.4683 87.6154 60.6026 88.0075 61.6737C88.0685 61.8414 87.0816 62.6188 88.5973 62.9952C88.8128 63.0492 89.1052 62.1162 88.8506 61.4459ZM82.8458 52.3198C83.1728 54.1622 80.2444 48.5887 81.2683 51.1646C80.5224 50.7531 80.609 50.8664 80.7912 51.6865C80.8068 51.759 80.4141 51.3824 80.43 51.4268C80.7028 52.1209 81.2865 52.7754 81.0226 52.9706C81.1504 53.1198 81.2698 53.2607 81.3976 53.4098C81.1766 52.5667 82.0979 53.5015 82.6012 53.7582C82.8299 53.8755 82.5552 53.427 82.7509 53.5234C82.823 53.5594 83.1866 54.1998 83.2923 54.1615C83.528 54.07 83.5306 53.5032 83.2251 52.7632C83.2253 52.7631 83.2255 52.7629 83.2257 52.7628C83.0992 52.6129 82.973 52.4693 82.8458 52.3198ZM94.1532 78.6385C93.8655 78.1948 92.7125 78.0678 94.9277 77.8508C94.8181 77.7634 94.7052 77.6767 94.5956 77.5893C94.222 77.597 93.8601 77.6046 93.4806 77.6116C92.3419 78.9189 90.2635 77.4436 91.5947 78.3708C91.7401 78.4716 92.6261 78.359 91.7513 78.6326C91.7525 78.6329 91.7537 78.6331 91.7549 78.6334C92.9763 78.5494 93.1302 78.3922 94.1532 78.6385ZM98.2684 75.6506C96.3021 74.2117 98.8007 77.4759 99.5101 78.1062L99.6084 77.9156C99.4067 77.9619 99.3563 78.0115 99.557 78.0559C99.5634 78.0573 99.581 78.0578 99.6084 78.0577L99.6503 78.057L99.6259 78.0238C99.3898 77.6963 97.8048 75.7285 98.2684 75.6506ZM79.7231 79.1417C80.986 79.1578 81.0698 78.654 80.9424 78.4726C80.8149 78.2907 79.9403 78.4745 79.8275 78.4459C79.4597 78.3514 80.2397 78.289 79.7622 78.1595C79.6041 78.1174 77.4043 77.9379 77.3035 77.9595C76.7438 78.08 77.562 78.4957 77.4019 78.5433C76.8801 78.6993 76.1714 78.483 76.0201 78.7041C75.694 79.1756 77.0151 78.6806 77.2382 78.6726C77.9114 78.6502 77.8526 78.9156 78.3567 78.9688C78.8604 79.0219 79.1897 78.931 79.6341 78.9498C79.782 78.9561 79.659 79.14 79.7231 79.1417ZM83.8993 78.0778C82.5802 78.4592 85.7921 78.8739 86.1731 78.7846C87.294 78.5194 84.531 77.8959 83.8993 78.0778ZM84.3147 56.4695C85.2399 57.2917 83.7913 54.8727 83.2344 54.2828C83.2273 54.4709 83.9964 56.1866 84.3147 56.4695ZM90.7725 64.3437C90.0588 63.4903 90.405 65.0496 90.9498 65.7974C91.5979 66.0017 91.2357 65.6331 90.8983 65.1307C90.5616 64.6288 91.3291 65.0095 90.7725 64.3437ZM66.0237 78.6865C66.2629 78.693 70.1195 78.3547 67.9036 78.2141C67.7346 78.2036 65.0351 78.2631 64.8304 78.3261C64.4187 78.4535 65.4069 78.6683 66.0237 78.6865ZM94.3515 68.3254C93.7225 68.0527 93.3912 67.5795 93.3658 68.2602C93.3662 68.2609 93.3667 68.2615 93.3671 68.2622C92.4015 67.1261 93.0559 66.579 92.8553 66.3288C92.1534 65.4535 92.2761 66.6691 91.7066 66.2122C92.8068 67.4344 92.2025 67.2896 92.9023 68.3166C93.0595 68.5469 93.9053 69.314 94.1236 69.3587C94.3418 69.4031 94.3822 68.6749 94.3515 68.3254ZM60.5759 78.7747C61.8776 78.9104 63.0694 78.3366 61.2638 78.2456C60.3831 78.2008 59.7812 78.6921 60.5759 78.7747ZM47.4738 3.33632C47.4666 3.58541 47.4633 3.83901 47.4657 4.09937C47.1575 3.72936 46.8483 3.35943 46.5395 2.98983C46.7985 3.27136 47.0572 3.55373 47.3174 3.83808C46.837 3.07339 46.8208 2.57889 47.4725 3.33439C47.4729 3.33503 47.4734 3.33567 47.4738 3.33632ZM15.8524 0.539533C15.4491 0.394653 14.6544 0.843284 14.7552 0.878279C15.5142 1.13906 16.4121 0.740412 15.8524 0.539533ZM84.3902 54.2269C83.5714 52.9694 83.5755 54.2323 84.068 55.0098C83.8554 54.471 84.8548 54.9405 84.3902 54.2269ZM27.1393 0.575056C27.2739 0.637765 27.4095 0.700481 27.5603 0.763289C27.0861 0.676083 27.0039 0.617435 27.1393 0.575056ZM66.6369 79.3306C66.8658 79.3866 68.5586 79.4328 68.7873 79.3636C69.2617 79.218 67.9416 78.8153 67.1647 78.9392C67.0787 78.9525 66.4091 79.2747 66.6404 79.3306C66.6392 79.3306 66.6381 79.3306 66.6369 79.3306ZM46.5246 1.5223C46.5204 1.52849 46.5142 1.53121 46.5064 1.53087C46.5127 1.5285 46.5179 1.5242 46.5246 1.5223ZM0.205698 21.4893C0.217013 21.4801 0.228244 21.4752 0.239023 21.4763C0.228439 21.4798 0.217303 21.487 0.205698 21.4893ZM78.5761 79.9499C79.1396 80.6449 80.4384 80.2753 79.4123 79.9316C79.3549 79.9135 78.7128 79.9513 78.5761 79.9499Z" fill="black"/>
<path d="M45.1084 1.03622H1.6084L101.108 169.536H170.608L45.1084 1.03622Z" fill="white"/>
<path d="M93.4771 150.721C96.9491 156.542 100.218 162.332 103.487 168.132L101.108 166.774C107.506 166.903 113.912 167.036 120.449 167.037C137.009 167.038 153.832 166.509 170.431 166.607C170.49 166.608 170.549 166.608 170.608 166.609L168.26 171.285C158.517 158.039 148.761 144.704 139.062 131.391C129.318 118.015 119.614 104.64 109.909 91.2245C100.225 77.8376 90.537 64.4088 80.8727 50.9906C74.3085 41.8766 67.7415 32.7491 61.1845 23.6313C58.3059 19.6287 55.4364 15.6376 52.5599 11.6367C50.4141 8.65184 48.2682 5.66692 46.1224 2.68199C45.8242 2.26698 45.5601 1.8531 45.3897 1.52998C45.2193 1.20682 45.1556 1.00044 45.2158 0.956241C45.2761 0.912217 45.4566 1.03345 45.7181 1.29035C45.9792 1.5472 46.3003 1.91972 46.6123 2.32449C48.8746 5.26136 51.1369 8.19821 53.3992 11.135C55.9119 14.3972 58.4204 17.6534 60.9321 20.9149C61.0735 21.6175 61.4186 22.4697 62.3317 23.8675C62.7978 24.5809 63.5212 25.5885 64.1124 26.287C64.6433 26.9142 65.0854 27.3552 65.5056 27.7738C65.9449 28.2116 66.362 28.627 66.8341 29.2099C67.6354 30.1991 68.4617 31.0909 69.3296 32.0274C69.6454 32.3682 69.9671 32.7153 70.295 33.0751C72.6918 36.1889 75.0885 39.3033 77.4844 42.4175C78.3647 43.6541 79.177 44.7888 79.8941 45.7306C80.5374 46.5754 81.1701 47.3166 81.8129 48.0449C82.1837 48.527 82.5545 49.0092 82.9254 49.4914C85.3184 52.6035 87.7116 55.7173 90.1044 58.8316C91.8691 61.3377 93.7238 63.9608 96.19 67.3303C97.2529 68.7825 98.2781 70.2329 99.2636 71.6271C100.719 73.6865 102.089 75.6237 103.366 77.265C104.22 78.362 105.058 79.5604 105.895 80.7558C107.017 82.359 108.137 83.9592 109.288 85.3081C110.012 86.1562 110.695 86.922 111.328 87.6312C112.334 88.7596 113.213 89.7453 113.931 90.6962C115.28 92.4824 116.516 93.9793 117.605 95.2985C118.915 96.8851 120.014 98.2158 120.843 99.4851C120.969 99.6775 121.111 99.8993 121.27 100.149C122.111 101.466 123.456 103.571 125.672 106.381C126.461 107.382 127.248 108.287 128.02 109.173C129.143 110.462 130.234 111.715 131.248 113.171C131.4 113.389 131.537 113.632 131.662 113.853C131.82 114.135 131.958 114.38 132.082 114.495C132.446 114.83 132.988 115.389 133.577 115.995C134.009 116.44 134.468 116.913 134.899 117.342C137.685 120.997 140.47 124.654 143.253 128.314C144.528 129.991 145.803 131.668 147.078 133.347C147.612 134.293 148.171 135.251 148.791 136.241C149.602 137.535 150.75 139.14 152.23 141.208C153.319 142.73 154.589 144.504 156.036 146.591C158.715 150.454 161.626 154.302 163.541 156.732C163.946 157.246 164.355 157.761 164.791 158.313C166.448 160.404 168.516 163.014 172.38 168.019C172.412 168.061 172.444 168.103 172.477 168.145L175.227 171.908L170.608 171.866C164.697 171.967 159.668 171.994 155.881 172.014C153.931 172.024 152.31 172.032 151.068 172.048C148.943 172.076 146.333 172.101 143.714 172.125C139.615 172.164 135.489 172.202 133.154 172.254C132.323 172.272 131.45 172.294 130.508 172.319C127.898 172.386 124.744 172.466 120.397 172.513C115.835 172.562 113.007 172.529 110.069 172.456C108.875 172.427 107.822 172.31 106.736 172.189C105.196 172.018 103.59 171.839 101.417 171.893C101.315 171.895 101.213 171.898 101.108 171.902L99.7308 171.886L99.0714 170.739C98.8472 170.388 98.6056 170.023 98.3551 169.645C97.7802 168.776 97.1581 167.837 96.5944 166.833C96.3978 166.482 96.2452 166.161 96.0956 165.847C95.931 165.501 95.7695 165.162 95.5556 164.796C94.7567 163.429 93.9666 162.107 93.2645 160.932C92.3591 159.417 91.5999 158.146 91.1567 157.341C90.3668 155.906 89.4184 154.387 88.4578 152.849C87.7241 151.674 86.9827 150.487 86.2996 149.318C84.3478 145.976 81.569 141.436 78.6596 136.785C77.5588 135.025 76.7274 133.475 75.6623 131.488C74.9998 130.252 74.247 128.847 73.2821 127.118C72.7351 126.137 72.1962 125.352 71.6973 124.624C71.2378 123.954 70.8119 123.333 70.4445 122.654C70.1203 122.055 69.995 121.629 69.876 121.225C69.7436 120.775 69.619 120.351 69.2367 119.746C69.0333 119.423 68.751 119.052 68.4152 118.61C68.2825 118.436 68.1409 118.249 67.9927 118.051C68.0181 118.05 68.0366 118.043 68.0496 118.036C68.1407 117.983 67.8171 117.325 67.4994 116.68C67.3725 116.423 67.246 116.167 67.1481 115.953C66.7875 115.165 65.9704 113.752 65.3328 112.681C65.063 112.227 64.8481 111.799 64.5973 111.299C64.3747 110.856 64.1238 110.356 63.7809 109.731C63.5854 109.375 63.4532 109.091 63.344 108.856C63.265 108.686 63.1978 108.541 63.1265 108.412C63.0647 108.301 62.9863 108.227 62.8982 108.145C62.8347 108.086 62.7658 108.021 62.6944 107.935C62.5237 107.727 62.3392 107.439 62.2288 107.226C62.1778 107.127 62.1435 107.046 62.1094 106.965C62.0697 106.871 62.0304 106.778 61.964 106.656C61.6595 106.097 61.3152 105.582 60.9574 105.046C60.5643 104.458 60.1544 103.844 59.7635 103.122C59.6405 102.895 59.5196 102.647 59.4026 102.407C59.2801 102.155 59.161 101.911 59.0489 101.71C58.5937 100.893 58.0819 100.175 57.6111 99.5137C57.298 99.0742 57.0027 98.6594 56.7547 98.259C56.3002 97.525 55.9866 97.1719 55.7553 96.9117C55.6355 96.7768 55.5375 96.6669 55.4531 96.5408C55.3847 96.4199 55.3156 96.2971 55.2484 96.1768C55.1898 96.0645 55.1292 95.9484 55.0649 95.8438C55.06 95.8359 55.055 95.8282 55.0502 95.8204C54.6766 95.1445 54.3178 94.4757 53.9614 93.8111C53.1609 92.3184 52.3703 90.8439 51.4381 89.3417C51.2372 89.018 51.0077 88.7028 50.7743 88.3823C50.4884 87.9895 50.1958 87.5876 49.9425 87.152C49.3388 86.1136 48.7754 85.0383 48.2205 83.9791C47.3859 82.3861 46.5701 80.8292 45.6653 79.4895C45.3666 79.0473 45.0561 78.6272 44.7444 78.2061C44.5707 77.9714 44.396 77.7355 44.2234 77.4956C44.2977 77.5242 44.3547 77.5292 44.4077 77.5339C44.5171 77.5435 44.6109 77.552 44.8106 77.7625C45.2826 78.26 45.8496 78.8048 45.9395 78.6541C45.9639 78.6132 46.0134 78.6054 46.0641 78.599C46.1911 78.5828 46.3207 78.566 46.0519 78.004C45.8707 77.6251 45.3966 76.6569 44.9715 76.1139C44.8789 75.9957 44.7994 75.9374 44.7109 75.8724C44.5519 75.7557 44.3631 75.6167 44.0153 75.0697C43.9567 74.9776 43.8936 74.8771 43.8287 74.7731C43.5697 74.3583 43.28 73.8938 43.1222 73.7493C42.9405 73.5829 42.8953 73.6681 42.8425 73.7673C42.7737 73.8966 42.6922 74.0504 42.28 73.7042C42.1984 73.6355 42.0904 73.4765 42.0089 73.3564C41.9514 73.2718 41.9072 73.2072 41.894 73.2058C41.8791 73.2046 41.8737 73.2455 41.8671 73.2976C41.8439 73.4814 41.8024 73.8011 41.2553 72.8912C41.1073 72.6451 40.9484 72.3574 40.806 72.0994C40.596 71.7191 40.4216 71.4034 40.3691 71.3783C40.3493 71.369 40.3313 71.3647 40.314 71.3625C40.1416 71.0629 39.9692 70.7633 39.7968 70.4637C39.6046 70.0622 39.2854 69.5281 38.8867 68.8614C38.7899 68.6996 38.6881 68.5289 38.5826 68.3514C38.2427 67.7601 37.9026 67.1685 37.5629 66.5772C37.3021 66.1032 37.0325 65.5941 36.7601 65.0494C36.2144 63.9582 35.7966 62.9749 35.3886 62.0143C35.2166 61.6095 35.0463 61.2083 34.8686 60.8045C34.9609 60.9482 35.0457 61.0769 35.1151 61.1737C35.5894 61.8361 35.8763 62.045 36.1403 62.2369C36.3158 62.3646 36.4815 62.4852 36.685 62.7265C37.0576 63.1685 37.1254 63.0621 37.1756 62.9838C37.2017 62.9432 37.2238 62.911 37.2804 62.9656C37.326 63.0097 37.4046 63.1274 37.4858 63.2488C37.5566 63.3546 37.6298 63.4639 37.6841 63.5293C38.3442 64.3234 38.2706 64.0109 38.1637 63.5564C38.1048 63.3057 38.0362 63.0126 38.0743 62.837C38.1281 62.6737 38.18 62.6873 38.496 63.1211C38.3393 62.7303 38.1826 62.3394 38.026 61.9485C37.9394 61.81 37.842 61.7237 37.6964 61.6076C37.4364 61.4002 36.8845 60.5507 36.4533 59.887C36.2537 59.5798 36.0798 59.3123 35.9727 59.1665C35.4031 58.3919 35.4287 58.6999 35.4514 58.971C35.4639 59.1203 35.4751 59.258 35.386 59.1981C35.3479 59.1727 35.3609 59.2335 35.3739 59.2949C35.3839 59.3423 35.3943 59.391 35.3813 59.4008C35.2862 59.4716 34.923 59.0287 34.5861 58.6179C34.3931 58.3826 34.2088 58.1583 34.0877 58.0457C34.0508 58.0114 34.0187 57.9857 33.9882 57.962C33.9436 57.9272 33.9006 57.8931 33.8452 57.8326C33.7191 57.6949 33.5053 57.384 33.2712 57.0432C33.1511 56.8684 33.0258 56.6859 32.9042 56.5152C32.7467 56.294 32.657 56.2337 32.5627 56.1699C32.4961 56.1247 32.4268 56.0771 32.3305 55.9714C32.1561 55.78 31.8793 55.3487 31.6225 54.9485C31.5106 54.7742 31.4022 54.6058 31.3079 54.4655C31.2696 54.4084 31.2459 54.3841 31.2327 54.3834C30.8043 53.7305 30.3931 53.1081 29.9926 52.5026C27.985 49.4667 26.2469 46.8389 23.9579 42.7338C23.5252 41.9577 23.0363 41.1384 22.531 40.3174C21.0028 37.6385 19.4751 34.9575 17.9498 32.2782C17.731 31.6987 17.4283 31.0107 17.0392 30.2142C16.3086 28.7184 15.4648 27.2342 14.4691 25.4828C13.733 24.188 12.9138 22.7469 11.9953 21.0462C10.4522 18.1889 8.84846 15.2666 6.98383 12.0016C5.1273 8.7508 2.98272 5.04025 1.4533 2.4223C1.26759 2.1044 1.0835 1.78075 0.901281 1.45378L0.178184 0.200659L1.6084 0.215025C2.91411 0.247647 4.24303 0.320352 5.50062 0.389079C7.77654 0.513457 9.81878 0.624934 11.0656 0.463288C11.4638 0.41163 11.8487 0.321945 12.2233 0.234814C12.4901 0.17276 12.7532 0.112159 13.0109 0.0670223C13.6972 0.0810397 14.3843 0.0949059 15.0711 0.109062C16.2913 0.216783 18.1876 0.332277 20.0206 0.212149C20.729 0.226993 21.4379 0.241766 22.1223 0.256747C23.6157 0.288085 25.0769 0.319825 26.5513 0.351792C27.0326 0.362364 27.5186 0.372952 28.0058 0.383596C28.0105 0.383718 28.0151 0.38384 28.0197 0.383961C29.0005 0.405387 29.9887 0.42696 30.9605 0.448665C31.3768 0.457926 31.793 0.467187 32.2093 0.476448C33.2671 0.49995 34.3325 0.523536 35.3796 0.547366C35.9338 0.560039 36.4934 0.572615 37.0539 0.585384C37.9632 0.6061 38.8793 0.626929 39.7908 0.647895C41.2649 0.681789 42.732 0.71607 44.202 0.750617C44.4424 0.75633 44.6734 0.774255 44.8432 0.801429C45.0129 0.82865 45.1087 0.862771 45.1084 0.897937C45.1081 0.933117 45.0115 0.967323 44.8412 0.994444C44.6711 1.02147 44.4403 1.03896 44.2 1.04453C42.729 1.07813 41.26 1.11137 39.7849 1.14432C38.8732 1.1647 37.9574 1.18525 37.0479 1.20537C36.4872 1.21778 35.9282 1.22998 35.3737 1.24229C34.3265 1.26544 33.2592 1.28857 32.2013 1.31138C31.7851 1.3204 31.3688 1.32942 30.9526 1.33843C29.9781 1.35956 28.9872 1.38047 28.0039 1.40131C27.9979 1.40143 27.992 1.40155 27.9861 1.40168C27.5023 1.41193 27.0193 1.4222 26.5414 1.43238C25.0664 1.4634 23.6044 1.49413 22.1104 1.5245C21.3385 1.5409 20.5341 1.55692 19.7356 1.57312C19.291 1.58214 18.8473 1.59121 18.4116 1.60017C18.1735 1.60495 17.932 1.60968 17.6893 1.61443C12.3196 1.72277 6.98632 1.82715 1.6084 1.92744L2.3758 0.583068C2.48139 0.754489 2.587 0.925966 2.69264 1.0975C5.61003 5.83403 8.52876 10.5812 11.4356 15.3161C14.3494 20.0626 17.2546 24.8028 20.1589 29.5487C38.5913 59.6685 57.0091 89.9608 75.2876 120.353C77.895 124.688 80.566 129.139 83.1718 133.486C85.8058 137.881 88.383 142.188 91.0167 146.599C91.8169 147.938 92.6365 149.312 93.4771 150.721Z" fill="black"/>
</svg>
